<svg id="svg" version="1.1" xmlns="http://www.w3.org/2000/svg" xmlns:xlink="http://www.w3.org/1999/xlink" width="400" height="400" viewBox="0, 0, 400,400"><g id="svgg"><path id="path0" d="M0.000 200.000 L 0.000 400.000 200.000 400.000 L 400.000 400.000 400.000 200.000 L 400.000 0.000 200.000 0.000 L 0.000 0.000 0.000 200.000 M234.017 86.220 C 234.517 86.823,233.472 94.531,232.331 98.666 C 231.778 100.667,230.449 100.470,227.837 98.000 C 226.674 96.900,225.613 96.000,225.479 96.000 C 225.345 96.000,221.237 99.600,216.350 104.000 L 207.466 112.000 200.733 112.000 L 194.000 112.000 194.000 120.351 C 194.000 130.530,194.902 129.554,185.370 129.691 L 177.800 129.800 177.689 135.573 C 177.548 142.877,178.022 142.400,170.890 142.400 L 165.078 142.400 163.036 144.500 C 161.913 145.655,159.333 148.355,157.302 150.500 C 153.524 154.491,152.808 154.893,151.531 153.738 C 150.702 152.987,150.543 151.222,151.300 151.157 C 151.575 151.133,153.060 149.734,154.600 148.047 C 156.140 146.360,158.695 143.590,160.277 141.890 L 163.154 138.800 167.944 138.800 C 174.529 138.800,174.000 139.326,174.000 132.786 C 174.000 125.477,173.320 126.000,182.829 126.000 L 190.400 126.000 190.400 117.680 C 190.400 107.482,189.643 108.400,198.054 108.400 C 201.736 108.400,205.165 108.239,205.674 108.042 C 206.388 107.767,213.942 101.114,222.565 93.167 C 222.777 92.971,222.231 92.072,221.265 91.024 C 218.434 87.953,219.043 87.290,225.547 86.354 C 231.657 85.474,233.375 85.447,234.017 86.220 M215.200 108.733 C 215.200 109.137,215.319 109.586,215.465 109.732 C 215.714 109.980,216.508 112.052,217.792 115.800 C 218.571 118.073,220.593 125.397,221.160 128.000 C 221.423 129.210,221.797 130.920,221.989 131.800 C 222.317 133.302,222.715 135.770,223.585 141.698 C 224.695 149.263,224.971 150.706,225.515 151.800 C 226.664 154.111,227.634 154.150,230.786 152.009 C 233.723 150.015,241.361 142.545,245.316 137.800 C 250.719 131.316,251.874 130.603,250.167 134.805 C 243.388 151.487,230.643 167.379,216.147 177.223 C 195.790 191.048,170.333 193.905,157.244 183.834 C 150.403 178.570,147.258 170.104,148.397 160.022 C 149.212 152.811,150.395 149.397,150.407 154.220 C 150.488 185.727,185.677 193.336,204.160 165.843 C 209.012 158.625,211.804 151.038,213.964 139.200 C 214.894 134.105,215.342 123.406,214.865 117.707 C 214.295 110.900,214.275 108.000,214.800 108.000 C 215.020 108.000,215.200 108.330,215.200 108.733 M209.826 114.960 C 209.958 115.489,209.989 121.834,209.893 129.060 C 209.707 143.145,209.670 143.439,207.139 151.200 C 205.203 157.134,199.109 167.978,197.700 167.994 C 197.158 168.000,196.927 114.806,197.467 114.267 C 198.356 113.377,209.587 114.008,209.826 114.960 M239.690 126.920 C 246.877 130.732,246.351 138.840,238.737 141.623 C 228.203 145.473,220.433 132.426,230.200 127.288 C 232.687 125.980,237.562 125.791,239.690 126.920 M194.800 151.367 C 194.800 162.019,194.695 171.009,194.566 171.345 C 193.908 173.060,183.966 178.779,182.572 178.245 C 182.085 178.058,182.000 174.605,182.000 155.013 L 182.000 132.000 188.400 132.000 L 194.800 132.000 194.800 151.367 M179.520 144.480 C 180.210 145.170,180.210 178.030,179.520 178.720 C 178.786 179.454,171.833 179.280,169.400 178.468 L 167.400 177.800 167.296 160.900 L 167.191 144.000 173.116 144.000 C 177.190 144.000,179.190 144.150,179.520 144.480 M164.708 166.972 C 164.827 176.155,164.761 176.433,162.781 175.099 C 159.814 173.100,156.325 167.327,155.375 162.849 C 154.356 158.040,154.040 158.358,159.700 158.488 L 164.600 158.600 164.708 166.972 M166.671 215.723 C 169.052 219.091,172.710 224.302,174.800 227.302 C 176.890 230.302,178.732 232.767,178.893 232.778 C 179.055 232.790,179.235 227.985,179.293 222.100 L 179.400 211.400 181.300 211.278 L 183.200 211.156 183.200 227.978 C 183.200 237.230,183.051 244.800,182.870 244.800 C 182.313 244.800,181.091 243.246,176.581 236.800 C 174.195 233.390,170.793 228.530,169.022 226.000 L 165.800 221.400 165.694 232.294 L 165.587 243.188 164.594 243.437 C 164.047 243.575,163.150 243.574,162.600 243.436 L 161.600 243.185 161.600 226.392 C 161.600 216.336,161.749 209.600,161.971 209.600 C 162.175 209.600,164.290 212.356,166.671 215.723 M201.600 209.737 C 201.600 209.813,204.652 217.322,208.381 226.425 C 213.253 238.315,215.027 243.062,214.681 243.282 C 213.372 244.114,210.400 243.232,210.400 242.011 C 210.400 241.829,209.752 240.132,208.960 238.240 L 207.520 234.800 201.260 234.806 C 193.803 234.813,194.438 234.492,192.567 239.200 C 190.905 243.383,190.739 243.588,189.000 243.588 C 186.482 243.588,186.411 243.857,193.430 226.772 C 197.083 217.877,200.259 210.375,200.485 210.100 C 200.861 209.645,201.600 209.404,201.600 209.737 M238.941 211.933 C 243.002 213.729,247.600 218.358,247.600 220.650 C 247.600 222.625,244.452 221.987,242.444 219.606 C 234.774 210.510,220.924 215.706,221.048 227.633 C 221.167 239.096,234.780 244.056,242.280 235.369 C 245.566 231.563,249.130 232.281,246.736 236.266 C 239.018 249.115,219.604 244.988,217.228 229.993 C 215.263 217.597,227.930 207.062,238.941 211.933 M147.400 213.000 L 147.400 214.600 139.905 214.709 C 131.105 214.837,131.904 214.194,132.084 221.000 L 132.200 225.400 139.723 225.509 L 147.245 225.618 147.123 227.309 L 147.000 229.000 139.818 229.110 C 131.233 229.241,132.014 228.483,132.006 236.692 L 132.000 243.185 131.000 243.436 C 130.450 243.574,129.550 243.574,129.000 243.436 L 128.000 243.185 128.000 227.459 C 128.000 218.810,128.123 211.610,128.274 211.460 C 128.424 211.309,132.789 211.234,137.974 211.293 L 147.400 211.400 147.400 213.000 M155.200 227.192 L 155.200 243.185 154.200 243.436 C 153.650 243.574,152.750 243.574,152.200 243.436 L 151.200 243.185 151.200 227.459 C 151.200 210.139,151.052 211.200,153.467 211.200 L 155.200 211.200 155.200 227.192 M271.800 213.000 L 271.800 214.600 264.100 214.709 L 256.400 214.817 256.400 220.209 L 256.400 225.600 263.757 225.600 L 271.113 225.600 271.373 226.634 C 272.007 229.161,271.891 229.200,263.773 229.200 L 256.400 229.200 256.400 234.591 L 256.400 239.983 264.100 240.091 L 271.800 240.200 271.923 241.687 C 272.087 243.654,272.106 243.651,261.400 243.513 L 252.600 243.400 252.495 227.801 C 252.438 219.221,252.478 211.973,252.585 211.694 C 252.737 211.298,254.890 211.209,262.290 211.293 L 271.800 211.400 271.800 213.000 M200.274 219.900 C 198.253 224.587,196.051 230.558,196.234 230.856 C 196.447 231.199,206.000 231.361,206.000 231.021 C 206.000 230.722,201.149 218.400,201.031 218.400 C 200.971 218.400,200.630 219.075,200.274 219.900 " stroke="none" fill="#fbfbfb" fill-rule="evenodd"></path><path id="path1" d="M227.944 86.589 C 227.841 86.693,226.260 86.945,224.431 87.150 C 219.849 87.662,219.408 88.176,221.555 90.504 C 223.686 92.817,223.655 93.002,220.716 95.602 C 219.350 96.811,216.873 99.060,215.211 100.600 C 213.548 102.140,210.821 104.615,209.149 106.100 L 206.110 108.800 198.935 108.800 C 189.968 108.800,190.800 107.851,190.800 118.080 L 190.800 126.400 183.489 126.400 C 173.783 126.400,174.400 125.923,174.400 133.423 L 174.400 139.200 169.054 139.200 L 163.708 139.200 160.723 142.300 C 158.062 145.063,156.254 147.016,152.665 151.000 C 151.354 152.456,151.428 153.400,152.854 153.400 C 153.681 153.400,154.985 152.225,159.177 147.700 L 164.459 142.000 170.129 141.994 C 177.473 141.986,176.958 142.472,177.200 135.316 L 177.400 129.400 185.058 129.292 C 190.764 129.211,192.827 129.050,193.150 128.661 C 193.423 128.332,193.624 125.034,193.692 119.769 L 193.800 111.400 200.673 111.200 L 207.547 111.000 210.273 108.656 C 211.773 107.368,213.903 105.478,215.006 104.456 C 216.109 103.435,218.719 101.070,220.806 99.200 C 222.893 97.330,224.660 95.665,224.733 95.500 C 225.068 94.747,226.203 95.372,228.183 97.400 C 231.225 100.516,231.583 100.361,232.362 95.600 C 232.632 93.950,233.021 91.949,233.226 91.154 C 233.432 90.358,233.600 88.963,233.600 88.054 L 233.600 86.400 230.867 86.400 C 229.363 86.400,228.048 86.485,227.944 86.589 M198.000 140.895 L 198.000 166.990 199.589 164.795 C 206.725 154.941,208.921 146.564,209.107 128.500 L 209.248 114.800 203.624 114.800 L 198.000 114.800 198.000 140.895 M182.800 154.994 L 182.800 177.588 184.900 176.763 C 187.924 175.574,190.578 174.067,192.406 172.502 L 194.000 171.138 194.000 151.769 L 194.000 132.400 188.400 132.400 L 182.800 132.400 182.800 154.994 M167.600 160.969 L 167.600 177.138 168.900 177.549 C 171.782 178.461,175.080 178.909,176.903 178.635 L 178.800 178.351 178.800 161.575 L 178.800 144.800 173.200 144.800 L 167.600 144.800 167.600 160.969 M155.605 160.086 C 155.627 164.289,161.373 174.800,163.649 174.800 C 163.864 174.800,163.972 171.606,163.909 167.100 L 163.800 159.400 159.700 159.286 C 155.662 159.174,155.600 159.186,155.605 160.086 M200.285 211.686 C 199.945 212.409,198.735 215.340,197.597 218.200 C 196.458 221.060,195.200 224.120,194.800 225.000 C 194.400 225.880,193.140 228.940,192.001 231.800 C 190.861 234.660,189.499 237.940,188.975 239.089 C 187.333 242.685,187.305 243.200,188.753 243.200 C 190.222 243.200,190.384 242.974,192.336 238.200 L 193.809 234.600 200.982 234.600 L 208.155 234.600 209.834 238.800 C 211.345 242.578,211.623 243.013,212.605 243.131 C 214.695 243.383,214.675 242.853,212.395 237.800 C 211.998 236.920,210.403 233.050,208.849 229.200 C 200.646 208.868,201.139 209.875,200.285 211.686 M162.276 211.457 C 162.124 211.609,162.000 218.720,162.000 227.259 L 162.000 242.785 162.977 243.030 C 164.774 243.481,164.800 243.315,164.800 231.576 C 164.800 225.429,164.935 220.403,165.100 220.406 C 165.714 220.419,166.292 221.099,169.179 225.200 C 170.806 227.510,173.151 230.840,174.392 232.600 C 175.633 234.360,177.884 237.560,179.394 239.710 C 180.904 241.861,182.290 243.470,182.475 243.285 C 182.659 243.101,182.762 236.032,182.705 227.575 L 182.600 212.200 181.300 212.075 L 180.000 211.949 180.000 223.175 C 180.000 229.349,179.851 234.400,179.670 234.400 C 179.167 234.400,177.950 232.925,175.543 229.400 C 166.486 216.135,162.708 211.026,162.276 211.457 M229.800 211.737 C 216.130 215.261,213.107 233.224,224.895 240.883 C 232.000 245.500,241.591 243.301,246.201 235.999 C 248.459 232.422,245.675 232.644,242.070 236.328 C 233.704 244.878,220.647 239.445,220.614 227.400 C 220.581 215.277,234.462 209.833,242.528 218.805 C 243.933 220.367,244.586 220.800,245.537 220.800 C 247.344 220.800,247.323 220.393,245.384 217.801 C 241.661 212.823,235.256 210.331,229.800 211.737 M128.800 227.369 C 128.800 243.519,128.796 243.488,130.623 243.030 L 131.600 242.785 131.600 235.801 L 131.600 228.818 138.900 228.709 L 146.200 228.600 146.200 227.400 L 146.200 226.200 139.000 226.000 L 131.800 225.800 131.800 220.200 L 131.800 214.600 139.400 214.400 L 147.000 214.200 147.000 213.200 L 147.000 212.200 137.900 212.092 L 128.800 211.985 128.800 227.369 M152.000 227.351 C 152.000 243.527,151.996 243.489,153.827 243.029 L 154.809 242.782 154.705 227.491 L 154.600 212.200 153.300 212.075 L 152.000 211.949 152.000 227.351 M252.895 227.500 L 253.000 243.000 262.000 243.000 L 271.000 243.000 271.000 241.800 L 271.000 240.600 263.618 240.491 C 254.949 240.362,255.612 240.817,255.612 235.000 C 255.611 228.199,254.826 228.837,263.344 228.709 L 270.600 228.600 270.600 227.400 L 270.600 226.200 263.418 226.090 C 254.977 225.962,255.612 226.409,255.612 220.600 C 255.611 213.789,254.795 214.436,263.544 214.309 L 271.000 214.200 271.127 213.100 L 271.253 212.000 262.022 212.000 L 252.791 212.000 252.895 227.500 M201.992 218.900 C 202.261 219.615,202.626 220.560,202.803 221.000 C 207.467 232.585,207.599 231.769,201.028 231.912 C 194.394 232.057,194.595 232.526,197.823 224.430 C 200.633 217.381,201.159 216.684,201.992 218.900 " stroke="none" fill="#09234a" fill-rule="evenodd"></path><path id="path2" d="M215.045 112.000 C 216.594 124.257,214.582 143.383,210.585 154.400 C 206.349 166.078,197.771 176.127,188.566 180.198 C 169.253 188.739,150.860 177.831,150.297 157.502 C 150.182 153.348,149.906 153.091,149.269 156.546 C 142.048 195.738,193.972 201.494,229.354 165.423 C 236.418 158.222,242.075 150.262,246.710 141.000 C 251.218 131.994,250.761 131.986,243.251 140.941 C 236.919 148.492,228.734 154.899,226.639 153.945 C 225.588 153.466,224.000 150.089,224.000 148.331 C 224.000 147.870,223.826 146.391,223.613 145.046 C 223.400 143.701,222.847 140.170,222.385 137.200 C 221.139 129.198,219.156 121.266,216.546 113.843 C 215.150 109.875,214.708 109.331,215.045 112.000 M232.429 126.866 C 222.807 129.629,225.153 141.692,235.287 141.570 C 238.513 141.531,240.031 140.960,242.003 139.046 C 247.908 133.315,240.921 124.427,232.429 126.866 " stroke="none" fill="#269d5d" fill-rule="evenodd"></path><path id="path3" d="M228.400 86.011 C 227.024 86.234,227.449 86.290,230.200 86.251 L 233.800 86.200 233.739 88.800 L 233.679 91.400 234.085 89.096 C 234.706 85.577,233.875 85.126,228.400 86.011 M222.600 86.800 L 221.000 87.086 222.400 87.096 C 223.170 87.101,224.340 86.968,225.000 86.800 C 226.628 86.386,224.913 86.386,222.600 86.800 M221.360 91.079 L 222.921 92.757 219.960 95.614 L 217.000 98.470 220.100 95.744 C 223.747 92.536,223.624 92.956,221.500 90.981 L 219.800 89.400 221.360 91.079 M233.069 92.756 C 232.921 93.495,232.820 94.483,232.844 94.950 C 232.868 95.418,233.047 94.990,233.242 94.000 C 233.437 93.010,233.538 92.023,233.467 91.806 C 233.396 91.590,233.217 92.017,233.069 92.756 M223.063 97.477 C 221.854 98.535,220.851 99.561,220.833 99.758 C 220.815 99.955,221.779 99.190,222.976 98.058 C 225.591 95.585,225.449 95.599,227.419 97.632 C 228.288 98.529,229.360 99.458,229.800 99.697 C 230.240 99.935,229.541 99.156,228.246 97.965 C 225.245 95.204,225.619 95.240,223.063 97.477 M232.192 97.671 C 232.036 98.402,231.726 99.225,231.505 99.500 C 231.231 99.840,231.241 100.000,231.536 100.000 C 231.982 100.000,233.001 96.868,232.664 96.531 C 232.561 96.427,232.348 96.941,232.192 97.671 M212.559 102.332 C 210.337 104.459,209.438 105.402,210.560 104.427 C 213.867 101.553,216.855 98.721,216.721 98.588 C 216.653 98.520,214.780 100.205,212.559 102.332 M218.400 101.683 C 217.410 102.598,215.733 104.142,214.674 105.114 C 213.614 106.086,212.804 106.936,212.874 107.003 C 212.943 107.070,214.710 105.529,216.800 103.577 C 218.890 101.625,220.510 100.027,220.400 100.024 C 220.290 100.022,219.390 100.768,218.400 101.683 M206.868 107.311 C 206.025 108.155,205.607 108.206,198.619 108.324 C 192.270 108.432,191.187 108.542,190.748 109.124 C 190.317 109.696,190.325 109.723,190.799 109.300 C 191.200 108.942,193.265 108.800,198.054 108.800 C 201.736 108.800,205.165 108.626,205.674 108.414 C 206.867 107.916,208.197 106.864,207.949 106.615 C 207.842 106.509,207.356 106.822,206.868 107.311 M209.808 109.409 L 207.416 111.582 200.608 111.691 L 193.800 111.800 193.692 120.169 C 193.616 126.033,193.436 128.727,193.092 129.169 C 192.658 129.726,192.682 129.736,193.300 129.251 C 193.927 128.759,194.000 127.829,194.000 120.351 L 194.000 112.000 200.745 112.000 L 207.491 112.000 210.045 109.618 C 211.450 108.307,212.510 107.236,212.400 107.236 C 212.290 107.236,211.124 108.214,209.808 109.409 M214.450 110.900 C 214.477 112.495,214.632 115.060,214.795 116.600 C 215.030 118.824,215.081 118.227,215.045 113.700 C 215.020 110.565,214.865 108.000,214.700 108.000 C 214.535 108.000,214.422 109.305,214.450 110.900 M215.318 110.200 C 215.448 110.640,216.353 113.340,217.331 116.200 C 218.308 119.060,219.437 122.750,219.840 124.400 C 220.243 126.050,220.634 127.101,220.709 126.736 C 220.895 125.828,218.736 118.344,216.488 112.099 C 215.755 110.065,214.840 108.579,215.318 110.200 M197.467 114.267 C 196.927 114.806,197.158 168.000,197.700 167.994 C 198.533 167.984,204.822 158.161,204.793 156.916 C 204.788 156.742,204.023 158.001,203.093 159.713 C 201.293 163.023,198.399 167.194,197.900 167.198 C 197.735 167.199,197.600 155.325,197.600 140.810 L 197.600 114.421 203.700 114.299 L 209.800 114.178 203.767 114.089 C 200.448 114.040,197.613 114.120,197.467 114.267 M209.778 127.400 C 209.779 134.440,209.833 137.264,209.899 133.675 C 209.966 130.086,209.966 124.326,209.899 120.875 C 209.833 117.424,209.778 120.360,209.778 127.400 M215.301 123.800 C 215.305 124.680,215.387 124.993,215.483 124.495 C 215.579 123.998,215.575 123.278,215.475 122.895 C 215.375 122.513,215.296 122.920,215.301 123.800 M174.629 126.629 C 174.118 127.139,174.000 128.293,174.000 132.786 C 174.000 139.326,174.529 138.800,167.944 138.800 L 163.154 138.800 160.277 141.839 C 158.695 143.511,157.343 145.033,157.273 145.222 C 157.203 145.410,158.539 144.132,160.242 142.382 L 163.339 139.200 168.096 139.200 C 174.730 139.200,174.400 139.533,174.400 132.835 C 174.400 125.910,173.692 126.446,183.030 126.300 L 190.600 126.181 182.929 126.091 C 176.406 126.014,175.163 126.094,174.629 126.629 M234.705 126.283 C 235.202 126.379,235.922 126.375,236.305 126.275 C 236.687 126.175,236.280 126.096,235.400 126.101 C 234.520 126.105,234.207 126.187,234.705 126.283 M231.000 126.859 C 226.294 129.418,224.618 132.875,226.221 136.713 C 227.221 139.105,230.100 141.666,231.680 141.568 C 231.966 141.550,231.741 141.325,231.179 141.068 C 224.181 137.863,224.781 129.535,232.200 126.891 C 233.058 126.585,233.172 126.458,232.600 126.444 C 232.160 126.433,231.440 126.620,231.000 126.859 M238.728 127.074 C 245.375 129.425,246.115 137.724,239.945 140.714 C 238.985 141.180,238.470 141.568,238.800 141.579 C 241.208 141.653,244.800 137.242,244.800 134.212 C 244.800 130.736,240.858 126.321,237.854 126.432 C 237.314 126.452,237.636 126.688,238.728 127.074 M220.856 128.400 C 220.856 128.950,221.011 129.760,221.200 130.200 C 221.513 130.929,221.544 130.912,221.544 130.000 C 221.544 129.450,221.389 128.640,221.200 128.200 C 220.887 127.471,220.856 127.488,220.856 128.400 M214.676 132.342 C 214.498 134.841,214.437 136.970,214.541 137.074 C 214.852 137.385,215.270 132.366,215.130 130.000 C 215.031 128.325,214.923 128.884,214.676 132.342 M221.668 132.200 C 221.687 134.111,222.317 135.819,222.332 134.000 C 222.338 133.230,222.189 132.240,222.000 131.800 C 221.708 131.121,221.658 131.181,221.668 132.200 M182.000 155.013 C 182.000 174.605,182.085 178.058,182.572 178.245 C 184.144 178.848,194.179 172.852,194.616 171.048 C 194.729 170.582,194.770 161.560,194.707 151.000 L 194.592 131.800 194.496 151.466 L 194.400 171.132 192.504 172.801 C 191.461 173.719,189.166 175.162,187.404 176.007 C 181.981 178.608,182.600 181.328,182.600 154.900 C 182.600 142.305,182.465 132.000,182.300 132.000 C 182.135 132.000,182.000 142.356,182.000 155.013 M248.570 134.100 C 247.468 135.255,245.606 137.370,244.430 138.800 C 241.291 142.618,233.483 150.178,230.786 152.009 C 227.637 154.148,226.711 154.112,225.474 151.800 C 225.096 151.094,224.825 150.866,224.816 151.246 C 224.788 152.391,226.378 154.000,227.538 154.000 C 230.017 154.000,237.278 147.841,243.809 140.200 C 246.065 137.560,248.404 134.950,249.005 134.400 L 250.099 133.400 249.816 134.400 C 249.138 136.792,243.987 146.487,241.013 150.968 C 230.240 167.203,216.702 178.524,200.600 184.764 C 194.829 187.001,194.509 187.141,195.113 187.173 C 196.117 187.226,203.076 184.457,207.600 182.205 C 225.608 173.240,241.938 155.056,250.168 134.803 C 251.651 131.153,251.460 131.069,248.570 134.100 M222.480 136.800 C 222.480 137.570,222.624 138.650,222.800 139.200 C 223.090 140.105,223.120 140.067,223.120 138.800 C 223.120 138.030,222.976 136.950,222.800 136.400 C 222.510 135.495,222.480 135.533,222.480 136.800 M213.811 139.675 C 213.649 140.706,213.602 141.786,213.706 142.075 C 213.810 142.364,214.027 141.756,214.189 140.725 C 214.351 139.694,214.398 138.614,214.294 138.325 C 214.190 138.036,213.973 138.644,213.811 139.675 M209.000 142.400 C 208.846 143.310,208.811 144.144,208.921 144.254 C 209.031 144.364,209.246 143.710,209.400 142.800 C 209.554 141.890,209.589 141.056,209.479 140.946 C 209.369 140.836,209.154 141.490,209.000 142.400 M223.295 142.200 C 223.295 143.080,223.432 144.340,223.600 145.000 C 223.890 146.138,223.905 146.117,223.905 144.600 C 223.905 143.720,223.768 142.460,223.600 141.800 C 223.310 140.662,223.295 140.683,223.295 142.200 M232.800 142.000 C 233.130 142.213,234.210 142.388,235.200 142.388 C 236.190 142.388,237.270 142.213,237.600 142.000 C 238.017 141.731,237.283 141.612,235.200 141.612 C 233.117 141.612,232.383 141.731,232.800 142.000 M162.386 144.700 C 161.182 145.965,159.210 148.080,158.003 149.400 L 155.810 151.800 158.314 149.309 C 162.556 145.088,165.090 142.400,164.827 142.400 C 164.688 142.400,163.590 143.435,162.386 144.700 M213.103 143.600 C 212.631 145.217,212.715 146.389,213.238 145.490 C 213.465 145.099,213.593 144.289,213.523 143.690 L 213.395 142.600 213.103 143.600 M167.200 144.300 C 167.199 144.465,169.854 144.600,173.100 144.600 L 179.000 144.600 179.000 161.582 L 179.000 178.564 178.000 178.842 L 177.000 179.120 178.020 179.160 C 178.581 179.182,179.256 178.984,179.520 178.720 C 180.210 178.030,180.210 145.170,179.520 144.480 C 178.985 143.945,167.200 143.772,167.200 144.300 M208.200 146.000 C 208.048 146.691,208.014 147.347,208.124 147.457 C 208.234 147.567,208.448 147.091,208.600 146.400 C 208.752 145.709,208.786 145.053,208.676 144.943 C 208.566 144.833,208.352 145.309,208.200 146.000 M154.030 148.600 C 152.657 150.030,151.368 151.200,151.167 151.200 C 150.965 151.200,150.800 151.622,150.800 152.138 C 150.800 153.181,151.925 154.400,152.887 154.400 C 153.633 154.400,155.622 152.833,154.900 152.813 C 154.625 152.806,154.400 152.977,154.400 153.192 C 154.400 153.834,152.446 154.136,151.795 153.596 C 150.822 152.788,151.066 152.296,154.033 149.075 C 157.483 145.331,157.481 145.006,154.030 148.600 M212.216 147.400 C 212.060 148.060,211.579 149.746,211.146 151.146 C 210.713 152.547,210.447 153.780,210.554 153.888 C 210.844 154.178,212.887 147.251,212.678 146.686 C 212.579 146.419,212.371 146.740,212.216 147.400 M224.075 147.600 C 224.065 148.370,224.211 149.360,224.400 149.800 C 224.857 150.864,224.857 149.197,224.400 147.400 L 224.095 146.200 224.075 147.600 M207.473 148.553 C 207.323 148.945,207.211 149.566,207.225 149.933 C 207.242 150.375,207.381 150.274,207.637 149.634 C 207.849 149.103,207.961 148.482,207.885 148.254 C 207.809 148.027,207.624 148.161,207.473 148.553 M206.097 152.892 C 204.681 156.535,204.652 156.629,205.092 156.200 C 205.579 155.724,207.296 151.163,207.073 150.939 C 206.987 150.854,206.548 151.732,206.097 152.892 M149.867 151.867 C 149.452 152.282,149.553 153.600,150.000 153.600 C 150.220 153.600,150.400 153.150,150.400 152.600 C 150.400 151.553,150.308 151.426,149.867 151.867 M149.089 154.800 C 148.936 155.350,148.825 156.250,148.842 156.800 C 148.868 157.661,148.926 157.614,149.258 156.460 C 149.470 155.724,149.581 154.824,149.506 154.460 C 149.408 153.994,149.286 154.093,149.089 154.800 M208.406 158.277 C 201.317 173.617,189.161 182.495,175.200 182.528 C 172.620 182.535,171.039 182.667,171.600 182.830 C 180.323 185.363,195.332 178.479,202.904 168.472 C 205.937 164.464,210.644 155.733,210.311 154.734 C 210.250 154.549,209.392 156.143,208.406 158.277 M150.478 159.800 C 150.466 160.900,150.611 162.160,150.800 162.600 C 151.265 163.683,151.276 162.159,150.820 159.600 L 150.500 157.800 150.478 159.800 M148.263 161.500 C 148.131 163.205,148.175 165.680,148.359 167.000 C 148.649 169.068,148.702 168.640,148.748 163.900 C 148.806 157.751,148.624 156.846,148.263 161.500 M154.860 159.688 C 154.916 160.916,154.931 160.929,155.088 159.887 L 155.256 158.774 159.728 158.887 L 164.200 159.000 164.309 166.771 C 164.439 176.050,164.358 176.241,161.530 173.280 C 159.161 170.800,158.557 170.705,160.643 173.141 C 164.540 177.694,164.847 177.215,164.709 166.789 L 164.600 158.600 159.700 158.488 L 154.800 158.375 154.860 159.688 M155.422 163.000 C 155.668 164.705,157.820 169.753,158.564 170.370 C 158.809 170.573,158.333 169.358,157.508 167.670 C 156.682 165.981,155.992 164.240,155.975 163.800 C 155.958 163.360,155.774 162.640,155.568 162.200 C 155.293 161.617,155.254 161.834,155.422 163.000 M151.223 164.085 C 151.041 169.412,161.778 181.722,166.487 181.585 C 166.769 181.577,165.920 181.037,164.600 180.386 C 158.669 177.459,154.421 172.551,152.150 166.003 C 151.653 164.571,151.236 163.708,151.223 164.085 M148.983 171.000 C 150.051 179.667,162.737 189.893,171.992 189.547 C 173.167 189.504,173.035 189.431,171.200 189.111 C 161.750 187.461,154.546 182.600,151.095 175.544 C 150.273 173.864,149.587 172.154,149.572 171.744 C 149.556 171.335,149.373 170.640,149.165 170.200 C 148.880 169.600,148.835 169.800,148.983 171.000 M167.776 177.778 C 168.204 178.120,168.834 178.386,169.176 178.368 C 169.715 178.341,169.718 178.307,169.200 178.114 C 168.870 177.992,168.240 177.726,167.800 177.524 C 167.013 177.162,167.012 177.166,167.776 177.778 M170.600 178.800 C 171.040 178.989,171.850 179.138,172.400 179.132 L 173.400 179.120 172.400 178.800 C 171.850 178.624,171.040 178.474,170.600 178.468 L 169.800 178.456 170.600 178.800 M167.600 182.000 C 167.930 182.213,168.740 182.373,169.400 182.354 C 170.576 182.321,170.580 182.314,169.600 182.000 C 168.070 181.510,166.842 181.510,167.600 182.000 M192.600 187.600 L 191.800 187.944 192.600 187.966 C 193.040 187.978,193.670 187.813,194.000 187.600 C 194.795 187.086,193.796 187.086,192.600 187.600 M189.400 188.400 L 188.600 188.744 189.400 188.744 C 189.840 188.744,190.560 188.589,191.000 188.400 L 191.800 188.056 191.000 188.056 C 190.560 188.056,189.840 188.211,189.400 188.400 M184.200 189.200 C 183.123 189.474,183.184 189.506,184.800 189.513 C 185.790 189.517,187.050 189.376,187.600 189.200 C 188.969 188.761,185.923 188.761,184.200 189.200 M161.600 210.115 C 161.600 210.398,161.974 210.658,162.430 210.692 C 163.111 210.744,163.174 210.651,162.781 210.177 C 162.187 209.461,161.600 209.430,161.600 210.115 M231.491 211.089 C 232.201 211.177,233.461 211.179,234.291 211.092 C 235.121 211.005,234.540 210.933,233.000 210.931 C 231.460 210.929,230.781 211.000,231.491 211.089 M128.274 211.460 C 128.123 211.610,128.000 218.794,128.000 227.424 C 128.000 244.599,127.865 243.669,130.333 243.547 C 131.223 243.503,131.167 243.454,130.000 243.247 L 128.600 243.000 128.600 227.400 L 128.600 211.800 137.900 211.693 L 147.200 211.585 147.200 212.984 L 147.200 214.382 139.733 214.491 C 133.498 214.582,132.239 214.699,132.103 215.200 C 131.984 215.634,132.035 215.665,132.287 215.309 C 132.536 214.959,134.751 214.787,140.018 214.709 L 147.400 214.600 147.400 213.000 L 147.400 211.400 137.974 211.293 C 132.789 211.234,128.424 211.309,128.274 211.460 M151.467 211.467 C 151.320 211.613,151.200 218.794,151.200 227.424 C 151.200 244.599,151.065 243.669,153.533 243.547 C 154.423 243.503,154.367 243.454,153.200 243.247 L 151.800 243.000 151.800 227.400 L 151.800 211.800 153.501 211.800 C 154.436 211.800,155.201 211.665,155.201 211.500 C 155.200 211.129,151.834 211.099,151.467 211.467 M179.467 211.467 C 179.320 211.613,179.200 216.473,179.200 222.267 C 179.200 229.414,179.064 232.800,178.776 232.800 C 178.543 232.800,178.464 232.980,178.600 233.200 C 179.405 234.502,179.596 232.663,179.694 222.700 L 179.800 211.800 181.158 211.670 C 181.975 211.592,182.650 211.752,182.852 212.070 C 183.107 212.473,183.189 212.432,183.194 211.900 C 183.200 211.187,180.106 210.828,179.467 211.467 M237.638 211.786 C 238.428 212.077,239.643 212.609,240.338 212.968 C 241.032 213.327,241.600 213.518,241.600 213.392 C 241.600 213.051,237.495 211.204,236.800 211.232 C 236.470 211.245,236.847 211.495,237.638 211.786 M252.585 211.694 C 252.478 211.973,252.438 219.221,252.495 227.801 L 252.600 243.400 261.400 243.513 C 271.942 243.648,272.000 243.639,272.000 241.816 C 272.000 241.063,271.845 240.351,271.655 240.234 C 271.466 240.117,271.331 240.691,271.355 241.511 L 271.400 243.000 262.100 243.107 L 252.800 243.215 252.800 227.400 L 252.800 211.585 262.100 211.693 L 271.400 211.800 271.400 213.000 L 271.400 214.200 263.800 214.400 L 256.200 214.600 256.182 220.200 L 256.164 225.800 256.293 220.309 L 256.422 214.817 264.111 214.709 L 271.800 214.600 271.800 213.000 L 271.800 211.400 262.290 211.293 C 254.890 211.209,252.737 211.298,252.585 211.694 M224.595 213.356 C 222.354 214.879,220.830 216.425,219.821 218.200 C 219.146 219.388,219.146 219.390,219.870 218.417 C 221.671 215.991,222.745 214.960,224.956 213.530 C 226.258 212.689,227.159 212.000,226.957 212.000 C 226.755 212.000,225.692 212.610,224.595 213.356 M165.612 214.722 C 166.566 216.108,167.536 217.360,167.767 217.503 C 168.241 217.796,165.392 213.729,164.472 212.800 C 164.145 212.470,164.658 213.335,165.612 214.722 M243.124 214.793 C 243.852 215.504,244.532 216.001,244.635 215.898 C 244.738 215.796,244.142 215.214,243.311 214.606 L 241.800 213.500 243.124 214.793 M230.829 214.751 C 230.277 214.905,231.212 215.022,233.000 215.022 C 234.788 215.022,235.723 214.905,235.171 214.751 C 234.637 214.602,233.660 214.480,233.000 214.480 C 232.340 214.480,231.363 214.602,230.829 214.751 M225.969 216.909 C 224.422 217.952,221.601 221.507,221.611 222.400 C 221.615 222.730,221.926 222.374,222.303 221.609 C 223.016 220.162,225.613 217.350,227.000 216.524 C 227.440 216.261,227.692 216.036,227.559 216.024 C 227.427 216.011,226.711 216.409,225.969 216.909 M239.866 217.149 C 240.738 217.781,242.040 219.041,242.759 219.949 C 245.624 223.566,249.085 221.769,246.397 218.060 C 244.800 215.854,244.509 215.928,246.014 218.158 C 247.665 220.604,247.584 221.200,245.604 221.200 C 244.243 221.200,243.881 221.007,243.152 219.896 C 242.323 218.630,239.250 216.000,238.601 216.000 C 238.424 216.000,238.994 216.517,239.866 217.149 M204.126 216.800 C 204.602 218.333,205.757 221.040,206.089 221.400 C 206.516 221.864,204.942 217.732,204.342 216.815 C 204.001 216.294,203.968 216.292,204.126 216.800 M170.390 221.506 C 171.768 223.544,173.074 225.322,173.293 225.457 C 173.759 225.745,169.348 219.282,168.476 218.400 C 168.150 218.070,169.011 219.468,170.390 221.506 M200.480 218.480 C 200.216 218.744,200.006 219.239,200.014 219.580 C 200.023 219.981,200.216 219.861,200.559 219.242 C 201.077 218.309,201.114 218.346,202.034 220.720 C 202.554 222.059,203.047 223.086,203.131 223.002 C 203.336 222.798,201.466 218.000,201.182 218.000 C 201.060 218.000,200.744 218.216,200.480 218.480 M165.106 232.069 L 165.000 243.000 163.600 243.247 C 162.433 243.454,162.377 243.503,163.267 243.547 C 165.691 243.667,165.598 244.111,165.622 232.257 L 165.644 221.400 166.522 222.556 C 168.266 224.852,168.851 225.357,167.536 223.432 C 165.215 220.035,165.224 220.004,165.106 232.069 M195.600 221.284 C 195.600 221.404,195.328 222.154,194.995 222.951 C 194.662 223.748,194.479 224.400,194.589 224.400 C 194.906 224.400,196.033 221.500,195.805 221.272 C 195.692 221.159,195.600 221.165,195.600 221.284 M221.049 223.815 C 220.912 224.173,220.821 224.946,220.846 225.533 C 220.880 226.332,220.970 226.198,221.204 225.000 C 221.535 223.300,221.462 222.740,221.049 223.815 M217.089 225.700 C 216.967 226.855,216.998 228.610,217.156 229.600 C 217.382 231.008,217.450 230.550,217.468 227.500 C 217.494 223.086,217.408 222.675,217.089 225.700 M146.731 227.191 L 146.882 228.782 139.574 228.891 C 133.481 228.982,132.239 229.100,132.103 229.600 C 131.984 230.034,132.035 230.065,132.287 229.710 C 132.535 229.361,134.710 229.187,139.818 229.110 L 147.000 229.000 147.123 227.300 C 147.191 226.365,147.096 225.600,146.912 225.600 C 146.729 225.600,146.647 226.316,146.731 227.191 M175.599 228.913 C 176.764 230.625,177.913 232.146,178.152 232.294 C 178.648 232.600,174.996 227.312,174.082 226.400 C 173.751 226.070,174.434 227.201,175.599 228.913 M171.365 229.419 C 172.439 230.949,173.587 232.470,173.918 232.800 C 174.249 233.130,173.566 231.999,172.401 230.287 C 171.236 228.575,170.087 227.054,169.848 226.906 C 169.609 226.759,170.292 227.889,171.365 229.419 M220.806 229.433 C 220.809 230.075,220.984 230.870,221.195 231.200 C 221.455 231.609,221.499 231.290,221.332 230.200 C 221.029 228.223,220.798 227.886,220.806 229.433 M256.175 229.321 C 256.065 229.608,256.031 232.173,256.101 235.021 L 256.226 240.200 256.313 234.709 L 256.400 229.218 263.900 229.099 L 271.400 228.981 263.887 228.891 C 258.018 228.820,256.331 228.914,256.175 229.321 M205.808 230.300 C 206.101 231.372,197.131 231.738,196.030 230.700 C 195.602 230.296,195.535 230.316,195.683 230.800 C 195.830 231.283,196.830 231.422,200.800 231.513 C 205.935 231.630,206.809 231.400,206.022 230.139 C 205.607 229.472,205.586 229.488,205.808 230.300 M217.840 232.800 C 218.501 235.317,222.055 240.159,224.008 241.205 C 224.401 241.415,223.652 240.516,222.343 239.207 C 220.879 237.743,219.504 235.859,218.770 234.313 C 218.114 232.931,217.695 232.250,217.840 232.800 M242.246 235.500 L 240.339 237.800 242.301 235.700 C 244.947 232.868,248.376 232.539,246.974 235.251 C 246.647 235.883,246.469 236.400,246.579 236.400 C 246.977 236.400,248.027 233.967,247.793 233.588 C 246.955 232.233,244.154 233.198,242.246 235.500 M176.620 236.849 C 177.891 238.692,179.197 240.470,179.524 240.800 C 179.850 241.130,178.989 239.732,177.610 237.694 C 176.232 235.656,174.926 233.878,174.707 233.743 C 174.489 233.608,175.350 235.005,176.620 236.849 M211.326 234.400 C 211.802 235.933,212.957 238.640,213.289 239.000 C 213.716 239.464,212.142 235.332,211.542 234.415 C 211.201 233.894,211.168 233.892,211.326 234.400 M222.980 234.784 C 223.688 235.932,225.396 237.667,226.200 238.056 C 226.640 238.268,226.460 237.986,225.800 237.429 C 225.140 236.872,224.150 235.911,223.600 235.293 C 223.050 234.674,222.771 234.446,222.980 234.784 M194.300 234.832 C 193.915 235.056,193.600 235.424,193.600 235.648 C 193.600 235.873,193.883 235.774,194.229 235.429 C 194.747 234.910,195.965 234.800,201.180 234.800 L 207.503 234.800 208.005 236.013 C 208.282 236.680,208.587 237.147,208.683 237.050 C 208.780 236.953,208.571 236.318,208.219 235.637 L 207.579 234.400 201.290 234.412 C 197.766 234.419,194.692 234.604,194.300 234.832 M189.892 235.283 C 188.377 239.065,188.001 240.136,188.304 239.800 C 188.792 239.260,190.448 235.114,190.253 234.920 C 190.168 234.835,190.006 234.998,189.892 235.283 M245.132 238.006 C 244.642 238.670,243.286 239.870,242.120 240.673 C 239.926 242.184,239.159 243.026,241.100 241.793 C 243.351 240.363,244.768 239.168,245.599 238.001 C 246.717 236.431,246.293 236.436,245.132 238.006 M238.600 238.427 C 237.255 239.289,237.439 239.438,238.981 238.736 C 239.542 238.480,240.000 238.120,240.000 237.936 C 240.000 237.518,240.043 237.503,238.600 238.427 M229.200 239.594 C 229.530 239.811,230.235 239.991,230.767 239.994 C 232.051 240.002,231.725 239.775,230.000 239.458 C 229.015 239.277,228.778 239.318,229.200 239.594 M235.600 239.600 C 234.776 239.864,234.741 239.926,235.400 239.954 C 235.840 239.973,236.470 239.813,236.800 239.600 C 237.501 239.147,237.014 239.147,235.600 239.600 M180.581 242.382 C 181.720 244.229,183.200 245.356,183.200 244.376 C 183.200 244.143,183.037 244.053,182.839 244.176 C 182.640 244.299,181.965 243.807,181.339 243.082 C 180.712 242.357,180.371 242.042,180.581 242.382 M214.490 242.200 C 214.580 242.853,214.306 243.045,213.000 243.243 L 211.400 243.486 212.800 243.537 C 214.718 243.606,215.430 243.120,214.837 242.148 C 214.400 241.432,214.385 241.434,214.490 242.200 M225.200 241.822 C 225.200 242.143,227.669 243.244,228.081 243.106 C 228.316 243.028,227.764 242.672,226.854 242.314 C 225.944 241.957,225.200 241.735,225.200 241.822 M190.573 242.778 C 190.368 242.979,189.570 243.217,188.800 243.307 L 187.400 243.472 188.800 243.530 C 190.177 243.587,191.583 243.050,191.162 242.628 C 191.043 242.510,190.779 242.577,190.573 242.778 M229.679 243.660 C 230.847 243.990,235.030 243.985,236.586 243.651 C 237.239 243.511,235.744 243.398,233.265 243.398 C 230.787 243.399,229.173 243.517,229.679 243.660 " stroke="none" fill="#9ba5a4" fill-rule="evenodd"></path><path id="path4" d="M231.676 86.280 C 233.357 86.425,233.569 86.554,233.714 87.521 C 233.860 88.500,233.871 88.488,233.837 87.400 C 233.801 86.237,233.738 86.199,231.800 86.159 L 229.800 86.118 231.676 86.280 M225.000 86.800 C 223.930 87.072,223.908 87.105,224.800 87.105 C 225.350 87.105,226.340 86.968,227.000 86.800 C 228.070 86.528,228.092 86.495,227.200 86.495 C 226.650 86.495,225.660 86.632,225.000 86.800 M220.000 89.052 C 220.000 89.264,220.765 90.149,221.700 91.019 L 223.400 92.600 221.800 90.806 C 220.920 89.820,220.155 88.935,220.100 88.839 C 220.045 88.744,220.000 88.840,220.000 89.052 M233.000 91.600 C 232.848 92.291,232.807 92.941,232.909 93.042 C 233.011 93.144,233.209 92.653,233.350 91.950 C 233.683 90.283,233.360 89.960,233.000 91.600 M219.183 96.700 L 217.400 98.600 219.393 96.800 C 220.488 95.810,221.463 94.955,221.559 94.900 C 221.655 94.845,221.561 94.800,221.350 94.800 C 221.139 94.800,220.164 95.655,219.183 96.700 M232.250 96.050 C 231.917 97.717,232.240 98.040,232.600 96.400 C 232.752 95.709,232.793 95.059,232.691 94.958 C 232.589 94.856,232.391 95.347,232.250 96.050 M224.800 95.624 C 224.800 95.857,224.997 95.925,225.238 95.776 C 225.479 95.627,226.595 96.382,227.717 97.453 C 229.847 99.485,229.547 98.784,227.313 96.510 C 226.052 95.226,224.800 94.784,224.800 95.624 M222.581 97.700 L 221.000 99.400 222.700 97.819 C 223.635 96.949,224.400 96.184,224.400 96.119 C 224.400 95.816,224.052 96.119,222.581 97.700 M214.185 101.300 L 212.200 103.400 214.300 101.415 C 216.251 99.571,216.583 99.200,216.285 99.200 C 216.222 99.200,215.277 100.145,214.185 101.300 M218.515 101.210 C 217.589 102.085,216.939 102.800,217.071 102.800 C 217.203 102.800,218.092 102.080,219.046 101.200 C 220.001 100.320,220.651 99.605,220.491 99.610 C 220.331 99.616,219.442 100.336,218.515 101.210 M210.181 104.900 L 208.600 106.600 210.300 105.019 C 211.881 103.548,212.184 103.200,211.881 103.200 C 211.816 103.200,211.051 103.965,210.181 104.900 M214.581 104.900 L 213.000 106.600 214.700 105.019 C 216.281 103.548,216.584 103.200,216.281 103.200 C 216.216 103.200,215.451 103.965,214.581 104.900 M209.800 109.018 L 207.400 111.199 200.724 111.199 C 197.052 111.200,193.963 111.335,193.861 111.500 C 193.758 111.665,196.796 111.710,200.611 111.600 L 207.548 111.400 210.207 109.100 C 211.669 107.835,212.716 106.808,212.533 106.818 C 212.350 106.828,211.120 107.818,209.800 109.018 M206.983 107.628 C 206.837 107.863,206.332 108.212,205.859 108.403 C 205.273 108.639,205.203 108.757,205.638 108.775 C 205.989 108.789,206.602 108.440,207.000 108.000 C 207.398 107.560,207.617 107.200,207.486 107.200 C 207.354 107.200,207.128 107.393,206.983 107.628 M190.841 109.351 C 190.521 109.736,190.419 112.419,190.500 118.251 L 190.617 126.600 190.709 118.180 C 190.773 112.273,190.943 109.617,191.280 109.280 C 191.544 109.016,191.656 108.800,191.529 108.800 C 191.402 108.800,191.092 109.048,190.841 109.351 M197.600 140.800 C 197.600 155.320,197.735 167.200,197.900 167.200 C 198.065 167.200,198.152 155.410,198.094 141.000 L 197.989 114.800 203.618 114.800 L 209.248 114.800 209.124 128.629 C 209.056 136.234,209.117 142.039,209.260 141.529 C 209.403 141.018,209.538 134.705,209.560 127.500 L 209.600 114.400 203.600 114.400 L 197.600 114.400 197.600 140.800 M192.969 128.791 C 192.750 129.010,189.238 129.230,184.989 129.291 L 177.400 129.400 177.200 135.316 C 176.958 142.469,177.465 141.986,170.187 141.994 L 164.575 142.000 162.187 144.500 L 159.800 147.000 162.212 144.700 L 164.623 142.400 170.312 142.400 C 177.895 142.400,177.600 142.691,177.600 135.200 L 177.600 129.600 185.151 129.600 C 191.375 129.600,192.790 129.495,193.200 129.000 C 193.753 128.334,193.582 128.178,192.969 128.791 M182.584 132.500 C 181.852 134.413,182.636 177.794,183.400 177.672 C 185.075 177.403,190.687 174.400,192.504 172.801 L 194.400 171.132 194.400 151.566 L 194.400 132.000 188.587 132.000 C 184.306 132.000,182.724 132.132,182.584 132.500 M194.000 151.769 L 194.000 171.138 192.406 172.502 C 190.578 174.067,187.924 175.574,184.900 176.763 L 182.800 177.588 182.800 154.994 L 182.800 132.400 188.400 132.400 L 194.000 132.400 194.000 151.769 M159.787 142.900 L 157.400 145.400 159.900 143.013 C 162.222 140.795,162.583 140.400,162.287 140.400 C 162.226 140.400,161.101 141.525,159.787 142.900 M208.449 143.400 C 208.416 143.840,208.296 144.650,208.183 145.200 L 207.977 146.200 208.406 145.219 C 208.642 144.679,208.761 143.869,208.672 143.419 C 208.513 142.621,208.507 142.621,208.449 143.400 M167.477 144.656 C 167.325 144.809,167.200 152.203,167.200 161.087 L 167.200 177.241 168.500 177.770 C 171.848 179.132,178.289 179.551,178.969 178.451 C 179.072 178.284,178.265 178.330,177.175 178.553 C 175.207 178.957,172.191 178.591,168.900 177.549 L 167.600 177.138 167.600 160.969 L 167.600 144.800 173.195 144.800 L 178.791 144.800 178.902 160.500 L 179.014 176.200 179.007 160.400 L 179.000 144.600 173.377 144.489 C 170.285 144.429,167.630 144.504,167.477 144.656 M154.837 148.085 C 153.647 149.358,152.837 150.381,153.037 150.357 C 153.469 150.306,157.400 146.043,157.163 145.882 C 157.074 145.821,156.026 146.812,154.837 148.085 M207.646 146.867 C 207.621 147.234,207.496 147.864,207.370 148.267 C 207.152 148.962,207.163 148.963,207.597 148.287 C 207.848 147.896,207.973 147.266,207.873 146.887 C 207.711 146.268,207.688 146.266,207.646 146.867 M157.400 149.600 C 156.094 150.920,155.199 151.980,155.413 151.955 C 155.795 151.910,160.291 147.200,159.951 147.200 C 159.854 147.200,158.706 148.280,157.400 149.600 M206.832 149.622 C 206.732 151.591,202.650 160.324,200.146 163.927 C 199.179 165.317,198.572 166.341,198.796 166.202 C 200.755 164.992,207.678 151.030,207.070 149.516 C 206.925 149.155,206.854 149.187,206.832 149.622 M151.779 151.623 C 150.882 152.614,151.384 153.769,152.747 153.853 C 153.569 153.904,153.571 153.897,152.782 153.722 C 151.624 153.465,151.371 152.516,152.213 151.585 C 152.604 151.153,152.834 150.800,152.724 150.800 C 152.614 150.800,152.189 151.171,151.779 151.623 M150.093 156.000 C 150.093 156.770,150.175 157.085,150.276 156.700 C 150.376 156.315,150.376 155.685,150.276 155.300 C 150.175 154.915,150.093 155.230,150.093 156.000 M155.228 160.087 C 155.244 160.809,155.412 161.760,155.603 162.200 C 155.828 162.719,155.868 162.327,155.718 161.085 L 155.487 159.171 159.644 159.285 L 163.800 159.400 163.909 167.100 C 163.968 171.335,163.885 174.800,163.724 174.800 C 163.562 174.800,162.613 174.038,161.615 173.106 L 159.800 171.412 161.693 173.393 C 164.346 176.171,164.437 175.941,164.309 166.771 L 164.200 159.000 159.700 158.887 L 155.200 158.774 155.228 160.087 M156.014 163.771 C 155.994 164.847,159.123 171.200,159.673 171.200 C 159.945 171.200,159.881 170.922,159.510 170.500 C 158.699 169.575,157.641 167.465,156.751 165.000 C 156.354 163.900,156.022 163.347,156.014 163.771 M200.392 210.610 C 200.114 210.945,199.997 211.331,200.134 211.467 C 200.270 211.603,200.494 211.420,200.632 211.060 C 200.771 210.699,201.045 210.504,201.242 210.626 C 201.439 210.748,201.600 210.657,201.600 210.424 C 201.600 209.809,200.977 209.905,200.392 210.610 M161.780 210.908 C 161.299 212.162,161.806 242.935,162.310 243.037 C 162.591 243.094,162.636 243.049,162.410 242.937 C 161.936 242.701,161.819 211.914,162.291 211.443 C 162.451 211.283,163.091 211.748,163.715 212.476 L 164.848 213.800 163.924 212.309 C 162.916 210.682,162.077 210.134,161.780 210.908 M229.200 211.606 C 228.778 211.882,229.015 211.923,230.000 211.742 C 231.725 211.425,232.051 211.198,230.767 211.206 C 230.235 211.209,229.530 211.389,229.200 211.606 M235.600 211.600 C 236.968 212.038,238.019 212.038,237.000 211.600 C 236.560 211.411,235.840 211.262,235.400 211.268 C 234.757 211.277,234.796 211.343,235.600 211.600 M128.667 211.867 C 128.297 212.237,128.329 242.709,128.700 242.938 C 128.865 243.040,128.951 236.115,128.891 227.548 L 128.782 211.971 137.991 212.086 C 143.056 212.149,147.201 212.065,147.200 211.900 C 147.200 211.529,129.037 211.497,128.667 211.867 M151.886 211.848 C 151.503 212.230,151.517 242.701,151.900 242.938 C 152.065 243.040,152.151 236.109,152.091 227.536 L 151.982 211.948 153.291 212.074 L 154.600 212.200 154.705 227.373 C 154.787 239.231,154.699 242.625,154.305 242.904 C 153.927 243.171,153.951 243.220,154.400 243.097 C 154.920 242.955,155.000 240.864,155.000 227.367 L 155.000 211.800 153.586 211.681 C 152.808 211.615,152.043 211.690,151.886 211.848 M179.867 211.867 C 179.720 212.013,179.600 216.963,179.600 222.867 C 179.600 234.418,179.582 234.500,177.643 231.800 C 176.171 229.750,175.478 229.320,176.838 231.300 C 178.049 233.064,179.270 234.400,179.670 234.400 C 179.851 234.400,180.000 229.349,180.000 223.175 L 180.000 211.949 181.300 212.075 L 182.600 212.200 182.705 227.575 C 182.762 236.032,182.658 243.102,182.472 243.288 C 182.286 243.474,181.372 242.540,180.441 241.213 C 179.511 239.886,178.658 238.800,178.547 238.800 C 178.436 238.800,178.751 239.385,179.246 240.100 C 181.224 242.956,182.488 244.393,182.835 244.178 C 183.237 243.930,183.355 213.268,182.957 212.233 C 182.713 211.597,180.409 211.324,179.867 211.867 M262.144 211.896 L 271.289 212.015 271.112 213.220 C 271.005 213.950,271.079 214.281,271.301 214.059 C 271.503 213.857,271.607 213.267,271.534 212.746 L 271.400 211.800 262.200 211.789 L 253.000 211.778 262.144 211.896 M240.010 212.926 C 240.609 213.574,243.295 215.197,242.818 214.622 C 242.510 214.251,241.705 213.666,241.029 213.323 C 240.353 212.979,239.895 212.801,240.010 212.926 M131.775 214.921 C 131.665 215.208,131.626 217.773,131.687 220.621 L 131.800 225.800 139.000 226.000 L 146.200 226.200 146.196 227.500 C 146.194 228.215,146.340 228.800,146.520 228.800 C 146.701 228.800,146.792 228.125,146.724 227.300 L 146.600 225.800 139.279 225.691 L 131.958 225.582 132.079 219.990 C 132.199 214.461,132.165 213.904,131.775 214.921 M221.978 215.900 L 220.600 217.400 222.100 216.022 C 223.496 214.738,223.784 214.400,223.478 214.400 C 223.412 214.400,222.737 215.075,221.978 215.900 M229.600 214.818 C 229.162 215.115,229.324 215.152,230.200 214.956 C 231.671 214.627,231.990 214.398,230.967 214.406 C 230.545 214.409,229.930 214.595,229.600 214.818 M234.433 214.544 C 234.525 214.623,235.140 214.808,235.800 214.956 C 236.676 215.152,236.838 215.115,236.400 214.818 C 235.860 214.453,234.032 214.198,234.433 214.544 M166.973 217.218 C 169.231 220.374,170.035 221.056,167.988 218.078 C 167.034 216.692,166.064 215.440,165.833 215.297 C 165.601 215.154,166.114 216.018,166.973 217.218 M227.100 215.829 C 225.605 216.640,225.696 216.978,227.200 216.200 C 227.860 215.859,228.400 215.494,228.400 215.390 C 228.400 215.132,228.357 215.147,227.100 215.829 M255.754 220.400 C 255.754 223.150,255.818 224.275,255.896 222.900 C 255.974 221.525,255.974 219.275,255.896 217.900 C 255.818 216.525,255.754 217.650,255.754 220.400 M244.824 217.100 C 245.354 217.705,245.948 218.380,246.143 218.600 C 246.651 219.173,245.721 217.536,245.063 216.700 C 244.760 216.315,244.365 216.000,244.186 216.000 C 244.007 216.000,244.294 216.495,244.824 217.100 M224.175 218.100 L 223.000 219.400 224.300 218.225 C 225.512 217.130,225.784 216.800,225.475 216.800 C 225.406 216.800,224.821 217.385,224.175 218.100 M218.981 220.037 C 218.629 220.718,218.412 221.345,218.499 221.432 C 218.586 221.519,218.956 220.962,219.322 220.195 C 220.144 218.470,219.859 218.338,218.981 220.037 M243.194 219.900 C 244.016 221.142,247.200 221.921,247.200 220.880 C 247.200 220.704,246.549 220.637,245.754 220.729 C 244.546 220.870,244.146 220.709,243.321 219.749 L 242.334 218.600 243.194 219.900 M164.712 231.762 C 164.650 238.011,164.735 243.041,164.900 242.939 C 165.065 242.836,165.200 237.903,165.200 231.976 C 165.200 226.049,165.321 221.200,165.469 221.200 C 165.616 221.200,166.108 221.515,166.562 221.900 C 167.363 222.580,167.369 222.577,166.793 221.800 C 166.127 220.902,165.540 220.415,165.112 220.406 C 164.954 220.403,164.774 225.513,164.712 231.762 M172.416 224.963 C 173.168 226.009,173.956 226.973,174.167 227.103 C 174.378 227.233,173.935 226.484,173.184 225.437 C 172.432 224.391,171.644 223.427,171.433 223.297 C 171.222 223.167,171.665 223.916,172.416 224.963 M169.599 226.352 C 170.560 227.722,171.527 228.955,171.747 229.091 C 171.968 229.227,171.362 228.218,170.401 226.848 C 169.440 225.478,168.473 224.245,168.253 224.109 C 168.032 223.973,168.638 224.982,169.599 226.352 M220.524 227.400 C 220.526 228.720,220.601 229.212,220.690 228.493 C 220.779 227.774,220.777 226.694,220.686 226.093 C 220.595 225.492,220.522 226.080,220.524 227.400 M263.200 225.986 L 270.600 226.200 270.596 227.500 C 270.594 228.215,270.729 228.800,270.896 228.800 C 271.510 228.800,271.209 226.089,270.567 225.843 C 270.219 225.709,266.754 225.639,262.867 225.686 L 255.800 225.773 263.200 225.986 M131.600 235.767 C 131.600 240.125,131.447 242.809,131.190 242.937 C 130.965 243.049,131.010 243.094,131.290 243.037 C 131.855 242.924,132.460 228.798,131.900 228.799 C 131.735 228.800,131.600 231.935,131.600 235.767 M195.401 230.396 C 195.262 230.834,195.261 231.374,195.398 231.596 C 195.687 232.064,205.852 232.162,206.139 231.700 C 206.241 231.535,203.957 231.400,201.062 231.400 C 195.844 231.400,195.801 231.393,195.895 230.500 C 196.013 229.386,195.740 229.329,195.401 230.396 M255.754 234.800 C 255.754 237.550,255.818 238.675,255.896 237.300 C 255.974 235.925,255.974 233.675,255.896 232.300 C 255.818 230.925,255.754 232.050,255.754 234.800 M174.816 233.763 C 175.568 234.809,176.356 235.773,176.567 235.903 C 176.778 236.033,176.335 235.284,175.584 234.237 C 174.832 233.191,174.044 232.227,173.833 232.097 C 173.622 231.967,174.065 232.716,174.816 233.763 M245.852 236.465 C 245.253 237.380,245.053 237.888,245.408 237.594 C 246.012 237.092,247.385 234.800,247.081 234.800 C 247.005 234.800,246.452 235.549,245.852 236.465 M241.468 236.646 C 240.625 237.429,240.007 238.140,240.094 238.227 C 240.181 238.314,240.952 237.669,241.807 236.793 C 243.734 234.819,243.529 234.730,241.468 236.646 M224.200 236.750 C 224.860 237.477,225.940 238.328,226.600 238.641 C 227.260 238.955,227.454 238.984,227.032 238.706 C 226.609 238.428,225.529 237.577,224.632 236.815 L 223.000 235.429 224.200 236.750 M222.121 239.064 C 223.497 240.523,226.800 242.762,226.800 242.236 C 226.800 242.117,226.305 241.764,225.700 241.450 C 225.095 241.137,223.700 240.109,222.600 239.166 L 220.600 237.451 222.121 239.064 M243.000 239.675 L 241.800 240.904 243.300 239.805 C 244.125 239.200,244.800 238.636,244.800 238.553 C 244.800 238.122,244.073 238.576,243.000 239.675 M231.491 240.289 C 232.201 240.377,233.461 240.379,234.291 240.292 C 235.121 240.205,234.540 240.133,233.000 240.131 C 231.460 240.129,230.781 240.200,231.491 240.289 M263.400 240.387 L 271.000 240.600 270.998 241.863 C 270.997 242.557,271.132 243.042,271.298 242.939 C 271.661 242.715,271.692 241.506,271.357 240.633 C 271.146 240.082,270.122 240.011,263.457 240.087 L 255.800 240.173 263.400 240.387 M231.491 243.489 C 232.201 243.577,233.461 243.579,234.291 243.492 C 235.121 243.405,234.540 243.333,233.000 243.331 C 231.460 243.329,230.781 243.400,231.491 243.489 " stroke="none" fill="#7c7c7c" fill-rule="evenodd"></path></g></svg>