<svg id="svg" version="1.1" xmlns="http://www.w3.org/2000/svg" xmlns:xlink="http://www.w3.org/1999/xlink" width="400" height="400" viewBox="0, 0, 400,400"><g id="svgg"><path id="path0" d="M252.400 68.800 C 252.400 69.020,252.128 69.200,251.795 69.200 C 251.462 69.200,250.832 69.380,250.395 69.600 C 249.958 69.820,249.240 70.180,248.800 70.400 C 248.360 70.620,247.640 70.980,247.200 71.200 C 246.760 71.420,246.042 71.780,245.605 72.000 C 245.168 72.220,244.555 72.400,244.243 72.400 C 243.931 72.400,242.984 72.746,242.138 73.170 C 241.292 73.593,240.015 74.177,239.300 74.467 C 238.585 74.758,238.000 75.131,238.000 75.298 C 238.000 75.464,237.561 75.600,237.024 75.600 C 236.487 75.600,235.936 75.780,235.800 76.000 C 235.664 76.220,235.203 76.400,234.776 76.400 C 234.349 76.400,234.000 76.580,234.000 76.800 C 234.000 77.020,233.717 77.200,233.371 77.200 C 231.637 77.200,231.600 77.544,231.600 93.771 C 231.600 107.820,231.808 110.972,232.560 108.300 C 232.796 107.460,232.849 107.446,233.351 108.100 C 234.009 108.957,234.570 109.019,234.255 108.200 C 233.563 106.395,235.494 105.768,236.591 107.443 C 237.156 108.305,237.481 108.444,238.475 108.245 C 239.414 108.057,239.835 108.200,240.408 108.902 C 241.045 109.683,241.174 109.715,241.395 109.146 C 241.613 108.588,242.146 108.523,245.014 108.702 L 248.377 108.911 248.794 107.815 C 249.084 107.054,249.404 106.793,249.843 106.961 C 253.052 108.192,252.905 108.989,253.171 88.800 C 253.325 77.073,253.546 71.153,253.848 70.643 C 254.454 69.618,254.077 68.400,253.153 68.400 C 252.739 68.400,252.400 68.580,252.400 68.800 M248.618 84.694 C 248.255 94.989,248.777 94.117,242.889 94.273 L 238.049 94.402 237.803 92.701 C 237.667 91.765,237.611 88.875,237.678 86.278 L 237.800 81.556 239.200 80.802 C 243.059 78.726,248.168 76.457,248.509 76.667 C 248.749 76.816,248.790 79.832,248.618 84.694 M216.892 88.400 C 216.420 88.840,215.756 89.200,215.417 89.200 C 215.078 89.200,214.800 89.338,214.800 89.506 C 214.800 89.674,214.125 90.131,213.300 90.522 C 211.601 91.328,209.499 92.498,209.200 92.805 C 209.090 92.918,208.145 93.442,207.100 93.968 C 206.055 94.495,205.200 95.077,205.200 95.263 C 205.200 95.448,204.840 95.600,204.400 95.600 C 203.960 95.600,203.600 95.780,203.600 96.000 C 203.600 96.220,203.240 96.400,202.800 96.400 C 202.360 96.400,202.000 96.559,202.000 96.753 C 202.000 96.948,201.685 97.207,201.300 97.329 C 200.460 97.595,198.430 98.811,197.699 99.485 C 197.119 100.020,196.989 114.800,197.565 114.800 C 197.925 114.800,197.881 114.435,198.343 121.337 C 198.738 127.227,199.104 128.282,200.291 126.944 C 200.681 126.504,201.315 126.028,201.700 125.885 C 202.134 125.724,202.402 125.203,202.406 124.513 C 202.414 123.030,203.326 121.365,204.033 121.544 C 204.855 121.753,209.983 121.621,211.463 121.354 C 213.127 121.052,214.226 122.144,214.587 124.458 C 214.973 126.933,215.198 127.600,215.651 127.600 C 215.869 127.600,215.952 127.447,215.836 127.259 C 215.720 127.071,215.867 126.588,216.162 126.184 C 216.674 125.484,216.711 125.490,216.976 126.325 C 217.952 129.399,218.258 125.315,218.634 104.228 C 218.788 95.570,219.043 90.000,219.305 89.581 C 220.368 87.879,218.456 86.943,216.892 88.400 M214.070 102.634 C 213.998 105.695,213.776 108.830,213.577 109.600 L 213.215 111.000 208.546 111.124 C 202.986 111.273,203.214 111.470,203.206 106.526 L 203.200 102.852 208.300 99.833 C 214.623 96.091,214.227 95.899,214.070 102.634 M184.617 107.324 C 184.186 107.586,183.578 108.036,183.264 108.324 C 182.951 108.612,181.999 109.150,181.147 109.518 C 180.296 109.887,179.600 110.326,179.600 110.494 C 179.600 110.662,179.240 110.800,178.800 110.800 C 178.360 110.800,178.000 110.980,178.000 111.200 C 178.000 111.420,177.640 111.600,177.200 111.600 C 176.760 111.600,176.400 111.750,176.400 111.932 C 176.400 112.115,175.905 112.520,175.300 112.832 C 174.695 113.144,174.110 113.489,174.000 113.599 C 173.749 113.851,172.273 114.694,170.200 115.770 C 169.320 116.226,168.510 116.703,168.400 116.829 C 168.290 116.955,167.885 117.175,167.500 117.317 C 166.736 117.598,166.431 122.924,167.152 123.371 C 167.346 123.490,167.632 124.941,167.787 126.594 C 168.030 129.191,168.173 129.600,168.834 129.600 C 169.255 129.600,169.600 129.335,169.600 129.010 C 169.600 128.568,169.901 128.480,170.800 128.660 C 171.954 128.891,172.000 128.845,172.000 127.476 C 172.000 124.839,172.622 123.870,174.107 124.191 C 174.818 124.345,176.689 124.443,178.264 124.409 L 181.128 124.347 181.781 126.593 C 182.140 127.827,182.651 128.904,182.917 128.986 C 186.084 129.953,185.971 130.309,186.329 118.233 C 186.529 111.454,186.730 109.023,187.100 108.900 C 187.375 108.808,187.600 108.298,187.600 107.767 C 187.600 106.671,186.064 106.443,184.617 107.324 M186.085 109.600 C 185.959 110.462,185.690 110.800,185.131 110.800 C 184.703 110.800,184.456 110.632,184.583 110.428 C 184.709 110.223,184.630 109.942,184.407 109.804 C 183.678 109.354,183.979 108.739,184.800 109.000 C 185.259 109.146,185.600 109.072,185.600 108.827 C 185.600 108.592,185.749 108.400,185.931 108.400 C 186.113 108.400,186.182 108.940,186.085 109.600 M181.600 117.367 C 181.600 119.303,181.249 119.600,178.957 119.600 C 176.307 119.600,176.261 119.247,178.700 117.652 C 180.992 116.153,181.600 116.093,181.600 117.367 M255.790 119.216 C 255.648 119.445,255.188 119.523,254.766 119.389 C 253.768 119.073,253.894 117.339,253.632 135.041 C 253.412 149.871,253.436 150.660,254.100 150.245 C 254.485 150.005,254.800 149.671,254.800 149.504 C 254.800 149.337,255.025 149.200,255.300 149.200 C 255.761 149.199,256.501 148.656,259.200 146.340 C 259.750 145.869,260.200 145.520,260.200 145.567 C 260.200 145.872,261.946 144.890,262.644 144.193 C 263.459 143.378,263.496 142.905,263.676 131.173 C 263.779 124.478,263.759 120.710,263.632 122.800 C 263.387 126.818,262.418 126.034,262.396 121.800 C 262.384 119.440,261.924 118.896,260.648 119.732 C 259.284 120.625,258.122 120.575,257.600 119.600 C 257.139 118.739,256.207 118.541,255.790 119.216 M189.342 130.478 C 188.506 130.884,187.599 131.132,187.326 131.027 C 186.733 130.799,186.529 131.930,186.195 137.300 C 186.061 139.445,186.098 141.201,186.276 141.203 C 186.714 141.207,187.600 143.172,187.600 144.141 C 187.600 144.860,187.532 144.846,186.746 143.961 C 185.856 142.960,185.860 143.027,186.794 145.000 C 187.561 146.620,187.597 146.652,187.963 146.060 C 188.187 145.698,188.484 145.969,188.960 146.972 C 189.467 148.040,189.886 148.400,190.624 148.400 C 191.611 148.400,191.957 148.273,194.200 147.086 L 195.400 146.451 195.357 140.125 C 195.294 130.823,195.320 130.950,193.500 131.041 C 192.675 131.083,192.000 130.955,192.000 130.758 C 192.000 130.561,192.210 130.400,192.467 130.400 C 192.723 130.400,192.810 130.276,192.659 130.125 C 192.138 129.604,190.858 129.740,189.342 130.478 M229.200 136.576 C 229.200 137.553,229.380 138.464,229.600 138.600 C 229.847 138.752,230.000 138.071,230.000 136.824 C 230.000 135.711,229.820 134.800,229.600 134.800 C 229.380 134.800,229.200 135.599,229.200 136.576 M259.584 140.150 C 259.769 140.638,259.726 141.341,259.485 141.800 C 259.254 142.240,259.083 142.690,259.105 142.800 C 259.316 143.864,256.610 147.200,255.535 147.200 C 254.209 147.200,254.150 144.593,255.448 143.295 C 255.751 142.992,256.114 142.262,256.255 141.672 C 256.848 139.185,258.870 138.261,259.584 140.150 M191.773 141.800 C 192.446 143.218,192.950 143.528,193.400 142.800 C 193.934 141.937,194.668 142.442,194.708 143.700 C 194.790 146.292,194.509 146.800,192.992 146.800 C 192.227 146.800,191.600 146.980,191.600 147.200 C 191.600 147.824,190.556 147.670,189.966 146.959 C 188.943 145.726,189.198 143.106,190.321 143.321 C 191.240 143.497,191.275 143.429,191.039 141.953 C 190.732 140.032,190.916 139.994,191.773 141.800 M223.846 150.625 C 223.714 150.969,223.443 151.150,223.245 151.028 C 222.840 150.778,222.400 151.693,222.400 152.784 C 222.400 153.942,221.288 154.647,220.368 154.073 C 219.648 153.623,219.598 153.726,219.570 155.697 C 219.364 170.247,218.830 183.991,218.433 184.980 C 218.172 185.629,217.923 187.097,217.879 188.242 C 217.836 189.387,217.684 190.252,217.542 190.164 C 217.400 190.076,217.173 190.294,217.037 190.647 C 216.861 191.106,216.964 191.223,217.395 191.057 C 218.037 190.811,218.120 191.072,218.016 193.031 C 217.930 194.648,218.764 195.346,220.151 194.818 C 220.728 194.599,221.200 194.234,221.200 194.007 C 221.200 193.780,222.990 191.780,225.178 189.563 L 229.156 185.532 229.168 181.166 C 229.175 178.588,229.020 176.800,228.790 176.800 C 228.008 176.800,228.317 171.202,229.100 171.187 C 229.767 171.175,229.767 171.149,229.100 170.643 C 228.348 170.072,228.141 168.800,228.800 168.800 C 229.020 168.800,229.200 168.609,229.200 168.376 C 229.200 168.143,229.020 168.064,228.800 168.200 C 228.580 168.336,228.400 168.066,228.400 167.600 C 228.400 167.038,228.569 166.848,228.900 167.035 C 229.300 167.261,229.300 167.210,228.900 166.779 C 228.579 166.433,228.400 164.986,228.400 162.740 C 228.400 158.530,227.783 155.217,226.847 154.400 C 226.469 154.070,225.920 152.945,225.628 151.900 C 225.098 150.007,224.302 149.437,223.846 150.625 M203.600 157.976 C 203.600 158.429,203.780 158.800,204.000 158.800 C 204.220 158.800,204.400 158.541,204.400 158.224 C 204.400 157.907,204.220 157.536,204.000 157.400 C 203.780 157.264,203.600 157.523,203.600 157.976 M167.093 159.200 C 166.716 159.640,166.057 160.000,165.628 160.000 C 165.198 160.000,164.739 160.175,164.607 160.389 C 164.474 160.603,163.647 160.972,162.767 161.209 C 161.888 161.446,160.321 162.136,159.284 162.744 C 156.458 164.401,155.985 164.511,155.106 163.715 C 154.346 163.027,154.335 163.045,154.609 164.506 C 154.883 165.969,154.863 166.000,153.657 166.000 C 152.633 166.000,152.169 166.352,150.897 168.100 C 148.986 170.726,148.184 172.800,149.081 172.800 C 149.550 172.800,149.628 173.058,149.414 173.900 C 148.962 175.675,149.357 179.657,150.354 183.400 C 150.589 184.280,150.793 186.710,150.808 188.800 C 150.823 190.890,150.989 193.931,151.178 195.557 C 151.626 199.431,151.057 208.387,150.333 208.861 C 147.752 210.548,146.374 208.481,145.603 201.768 C 145.424 200.210,144.990 198.089,144.639 197.054 C 144.287 196.019,144.000 194.274,144.000 193.176 C 144.000 192.078,143.640 190.156,143.200 188.904 C 142.760 187.652,142.400 186.312,142.400 185.926 C 142.400 185.540,141.950 183.846,141.400 182.161 C 140.850 180.476,140.400 178.575,140.400 177.936 C 140.400 176.518,139.536 176.105,138.074 176.823 C 137.484 177.114,136.460 177.362,135.800 177.376 C 133.816 177.416,134.154 179.732,136.541 182.461 C 137.565 183.632,138.686 185.455,139.044 186.532 C 139.656 188.376,139.649 188.971,138.977 192.400 C 138.718 193.723,138.737 193.756,139.324 193.000 C 139.838 192.339,140.038 192.291,140.473 192.725 C 140.909 193.159,140.879 193.318,140.300 193.645 C 139.410 194.147,139.384 196.186,140.246 197.800 C 141.118 199.432,141.913 208.607,141.271 209.635 C 141.019 210.038,140.919 210.645,141.049 210.984 C 141.202 211.381,141.057 211.600,140.643 211.600 C 140.289 211.600,140.000 211.409,140.000 211.176 C 140.000 210.943,139.819 210.864,139.599 211.001 C 139.378 211.137,139.299 211.656,139.424 212.154 C 139.564 212.711,139.417 213.254,139.043 213.564 C 138.412 214.088,137.600 213.854,137.600 213.148 C 137.600 212.925,137.320 212.463,136.978 212.120 C 136.492 211.635,136.414 211.024,136.624 209.349 C 136.847 207.558,136.789 207.200,136.271 207.200 C 135.562 207.200,135.335 212.189,136.025 212.615 C 136.231 212.743,136.400 213.382,136.400 214.036 C 136.400 214.803,136.649 215.317,137.100 215.485 C 137.485 215.628,138.091 216.072,138.447 216.472 C 138.803 216.873,139.568 217.200,140.147 217.200 C 140.726 217.200,141.200 217.380,141.200 217.600 C 141.200 217.820,141.560 218.000,142.000 218.000 C 142.440 218.000,142.800 218.180,142.800 218.400 C 142.800 218.620,143.149 218.800,143.576 218.800 C 144.003 218.800,144.464 218.980,144.600 219.200 C 144.736 219.420,145.467 219.600,146.224 219.600 C 146.981 219.600,147.600 219.780,147.600 220.000 C 147.600 220.220,148.305 220.400,149.167 220.400 C 150.028 220.400,150.797 220.591,150.875 220.825 C 151.136 221.608,167.219 221.442,171.400 220.613 C 173.380 220.220,175.587 219.812,176.304 219.705 C 177.021 219.599,177.706 219.351,177.827 219.156 C 177.948 218.960,178.656 218.800,179.400 218.800 C 180.144 218.800,180.864 218.620,181.000 218.400 C 181.136 218.180,181.597 218.000,182.024 218.000 C 182.451 218.000,182.800 217.820,182.800 217.600 C 182.800 217.380,183.239 217.200,183.776 217.200 C 184.313 217.200,184.864 217.020,185.000 216.800 C 185.136 216.580,185.777 216.400,186.424 216.400 C 187.071 216.400,187.600 216.220,187.600 216.000 C 187.600 215.780,187.960 215.600,188.400 215.600 C 188.840 215.600,189.200 215.420,189.200 215.200 C 189.200 214.980,189.639 214.800,190.176 214.800 C 190.713 214.800,191.264 214.620,191.400 214.400 C 191.536 214.180,191.997 214.000,192.424 214.000 C 192.851 214.000,193.200 213.820,193.200 213.600 C 193.200 213.380,193.560 213.200,194.000 213.200 C 194.440 213.200,194.800 213.020,194.800 212.800 C 194.800 212.580,195.160 212.400,195.600 212.400 C 196.040 212.400,196.400 212.220,196.400 212.000 C 196.400 211.780,196.760 211.600,197.200 211.600 C 197.640 211.600,198.000 211.420,198.000 211.200 C 198.000 210.980,198.294 210.800,198.653 210.800 C 199.012 210.800,199.597 210.482,199.953 210.093 C 200.309 209.704,201.455 208.956,202.500 208.430 C 203.545 207.904,204.400 207.366,204.400 207.235 C 204.400 207.103,204.940 206.756,205.600 206.464 C 207.047 205.824,207.127 205.369,205.848 205.048 C 204.936 204.819,204.884 204.614,204.605 200.151 C 204.445 197.589,204.066 194.898,203.762 194.171 C 203.433 193.383,203.314 192.331,203.467 191.563 C 203.662 190.588,203.603 190.351,203.224 190.585 C 202.894 190.789,201.812 189.926,200.061 188.062 C 196.884 184.681,196.497 184.522,191.550 184.576 C 187.943 184.615,187.569 184.699,185.624 185.909 C 184.481 186.619,183.315 187.200,183.032 187.200 C 182.134 187.200,180.400 189.124,180.400 190.119 C 180.400 190.645,180.028 191.413,179.573 191.825 C 178.839 192.488,178.754 192.986,178.822 196.187 C 178.938 201.613,178.515 209.617,178.029 211.197 C 177.793 211.966,177.600 213.337,177.600 214.243 C 177.600 217.137,174.871 219.332,174.048 217.100 C 173.866 216.605,173.509 213.140,173.256 209.400 C 173.002 205.660,172.528 201.610,172.202 200.400 C 171.877 199.190,171.508 197.030,171.382 195.600 C 171.132 192.752,169.884 186.833,168.936 184.000 C 168.605 183.010,168.183 181.365,167.998 180.344 C 167.813 179.324,167.442 178.136,167.173 177.705 C 166.110 176.004,171.894 171.200,175.004 171.200 C 175.198 171.200,182.648 167.770,183.628 167.229 C 184.655 166.663,189.313 164.867,190.504 164.579 C 191.111 164.432,191.713 164.140,191.843 163.931 C 191.972 163.722,192.510 163.386,193.039 163.185 C 194.366 162.680,194.244 162.000,192.826 162.000 C 191.038 162.000,189.639 161.324,189.134 160.216 C 188.540 158.910,187.476 158.605,186.105 159.346 C 183.846 160.567,174.024 165.200,173.696 165.200 C 173.509 165.200,172.745 165.650,172.000 166.200 C 171.255 166.750,170.361 167.200,170.015 167.200 C 168.745 167.200,166.586 169.058,166.489 170.234 C 166.437 170.856,166.036 172.052,165.598 172.894 C 165.159 173.736,164.800 174.636,164.800 174.893 C 164.800 175.151,164.239 175.940,163.554 176.647 C 162.345 177.894,162.321 177.989,162.741 179.866 C 164.404 187.305,164.737 190.681,164.768 200.400 C 164.791 207.373,164.447 212.851,163.745 216.714 C 163.520 217.949,161.493 219.627,160.919 219.052 C 160.805 218.939,160.636 215.821,160.541 212.123 C 160.283 201.974,158.811 189.573,157.487 186.400 C 157.166 185.630,156.779 184.010,156.628 182.800 C 156.476 181.590,156.127 180.240,155.851 179.800 C 155.576 179.360,154.852 177.615,154.243 175.922 C 153.633 174.229,152.880 172.632,152.567 172.373 C 152.236 172.098,152.000 171.175,152.000 170.154 C 152.000 168.306,152.175 168.141,156.000 166.382 C 159.780 164.643,163.055 162.877,166.200 160.881 C 166.640 160.601,167.675 160.082,168.500 159.726 C 169.325 159.370,170.000 158.926,170.000 158.739 C 170.000 158.063,167.762 158.418,167.093 159.200 M228.893 164.400 C 228.893 165.170,228.975 165.485,229.076 165.100 C 229.176 164.715,229.176 164.085,229.076 163.700 C 228.975 163.315,228.893 163.630,228.893 164.400 M223.200 185.800 C 223.200 186.130,222.930 186.400,222.600 186.400 C 222.270 186.400,222.000 186.130,222.000 185.800 C 222.000 185.470,222.270 185.200,222.600 185.200 C 222.930 185.200,223.200 185.470,223.200 185.800 M221.600 190.800 C 221.600 191.580,221.176 191.842,220.694 191.361 C 220.374 191.040,220.793 190.000,221.243 190.000 C 221.439 190.000,221.600 190.360,221.600 190.800 M194.000 192.000 C 194.000 192.220,193.640 192.400,193.200 192.400 C 192.760 192.400,192.400 192.220,192.400 192.000 C 192.400 191.780,192.760 191.600,193.200 191.600 C 193.640 191.600,194.000 191.780,194.000 192.000 M220.800 192.400 C 220.800 192.620,220.725 192.800,220.633 192.800 C 220.541 192.800,220.142 192.924,219.746 193.076 C 219.103 193.323,219.089 193.282,219.613 192.691 C 220.281 191.939,220.800 191.812,220.800 192.400 M211.090 194.700 C 210.762 195.324,210.799 198.623,211.140 199.139 C 211.366 199.481,211.501 198.718,211.511 197.039 C 211.527 194.519,211.439 194.034,211.090 194.700 M210.877 201.229 C 210.819 201.983,210.941 202.360,211.191 202.205 C 211.668 201.911,211.750 200.000,211.285 200.000 C 211.112 200.000,210.928 200.553,210.877 201.229 M134.000 202.676 C 134.000 202.938,134.180 203.264,134.400 203.400 C 134.620 203.536,134.800 204.357,134.800 205.224 C 134.800 206.358,134.968 206.800,135.400 206.800 C 136.370 206.800,136.122 204.667,135.000 203.362 C 134.451 202.723,134.001 202.414,134.000 202.676 M208.860 203.442 C 208.131 204.266,208.600 204.657,209.381 203.876 C 209.721 203.536,210.000 203.154,210.000 203.029 C 210.000 202.609,209.406 202.824,208.860 203.442 M163.300 224.276 C 163.685 224.376,164.315 224.376,164.700 224.276 C 165.085 224.175,164.770 224.093,164.000 224.093 C 163.230 224.093,162.915 224.175,163.300 224.276 " stroke="none" fill="#4a99b9" fill-rule="evenodd"></path><path id="path1" d="M244.362 78.239 C 242.293 79.235,239.970 80.388,239.200 80.802 L 237.800 81.556 237.678 86.278 C 237.611 88.875,237.667 91.765,237.803 92.701 L 238.049 94.402 242.889 94.273 C 248.777 94.117,248.255 94.989,248.618 84.694 C 248.942 75.511,249.205 75.910,244.362 78.239 M264.109 94.000 C 264.109 94.990,264.187 95.395,264.282 94.900 C 264.378 94.405,264.378 93.595,264.282 93.100 C 264.187 92.605,264.109 93.010,264.109 94.000 M208.300 99.833 L 203.200 102.852 203.206 106.526 C 203.214 111.470,202.986 111.273,208.546 111.124 L 213.215 111.000 213.577 109.600 C 214.105 107.561,214.289 97.096,213.800 96.941 C 213.580 96.871,211.105 98.173,208.300 99.833 M185.600 108.827 C 185.600 109.072,185.259 109.146,184.800 109.000 C 183.979 108.739,183.678 109.354,184.407 109.804 C 184.630 109.942,184.709 110.223,184.583 110.428 C 184.456 110.632,184.703 110.800,185.131 110.800 C 185.690 110.800,185.959 110.462,186.085 109.600 C 186.182 108.940,186.113 108.400,185.931 108.400 C 185.749 108.400,185.600 108.592,185.600 108.827 M264.165 122.400 C 264.165 126.250,264.225 127.825,264.298 125.900 C 264.371 123.975,264.371 120.825,264.298 118.900 C 264.225 116.975,264.165 118.550,264.165 122.400 M178.700 117.652 C 176.261 119.247,176.307 119.600,178.957 119.600 C 181.249 119.600,181.600 119.303,181.600 117.367 C 181.600 116.093,180.992 116.153,178.700 117.652 M229.720 119.200 C 229.720 120.410,229.795 120.905,229.887 120.300 C 229.978 119.695,229.978 118.705,229.887 118.100 C 229.795 117.495,229.720 117.990,229.720 119.200 M229.720 140.800 C 229.720 142.010,229.795 142.505,229.887 141.900 C 229.978 141.295,229.978 140.305,229.887 139.700 C 229.795 139.095,229.720 139.590,229.720 140.800 M256.843 139.950 C 256.660 140.308,256.395 141.082,256.255 141.672 C 256.114 142.262,255.751 142.992,255.448 143.295 C 254.150 144.593,254.209 147.200,255.535 147.200 C 256.610 147.200,259.316 143.864,259.105 142.800 C 259.083 142.690,259.254 142.240,259.485 141.800 C 260.121 140.590,259.467 139.300,258.219 139.300 C 257.644 139.300,257.025 139.593,256.843 139.950 M191.039 141.953 C 191.275 143.429,191.240 143.497,190.321 143.321 C 189.198 143.106,188.943 145.726,189.966 146.959 C 190.556 147.670,191.600 147.824,191.600 147.200 C 191.600 146.980,192.227 146.800,192.992 146.800 C 194.509 146.800,194.790 146.292,194.708 143.700 C 194.668 142.442,193.934 141.937,193.400 142.800 C 192.950 143.528,192.446 143.218,191.773 141.800 C 190.916 139.994,190.732 140.032,191.039 141.953 M222.000 185.800 C 222.000 186.130,222.270 186.400,222.600 186.400 C 222.930 186.400,223.200 186.130,223.200 185.800 C 223.200 185.470,222.930 185.200,222.600 185.200 C 222.270 185.200,222.000 185.470,222.000 185.800 M220.670 190.561 C 220.445 191.149,220.703 191.600,221.267 191.600 C 221.450 191.600,221.600 191.240,221.600 190.800 C 221.600 189.883,220.991 189.726,220.670 190.561 M219.613 192.691 C 219.089 193.282,219.103 193.323,219.746 193.076 C 220.142 192.924,220.541 192.800,220.633 192.800 C 220.725 192.800,220.800 192.620,220.800 192.400 C 220.800 191.812,220.281 191.939,219.613 192.691 M158.200 221.600 C 158.053 221.838,158.490 221.989,159.276 221.972 C 160.379 221.948,160.467 221.886,159.800 221.600 C 158.715 221.134,158.488 221.134,158.200 221.600 M163.300 223.876 C 163.685 223.976,164.315 223.976,164.700 223.876 C 165.085 223.775,164.770 223.693,164.000 223.693 C 163.230 223.693,162.915 223.775,163.300 223.876 M244.400 270.400 C 244.400 270.620,243.984 270.800,243.475 270.800 C 242.967 270.800,242.164 271.160,241.692 271.600 C 241.220 272.040,240.643 272.400,240.409 272.400 C 239.749 272.400,234.800 277.511,234.800 278.193 C 234.800 278.527,234.620 278.800,234.400 278.800 C 234.180 278.800,234.000 279.160,234.000 279.600 C 234.000 280.040,233.820 280.400,233.600 280.400 C 233.380 280.400,233.200 280.929,233.200 281.576 C 233.200 282.223,233.020 282.864,232.800 283.000 C 232.563 283.146,232.400 285.604,232.400 289.024 C 232.400 292.608,232.552 294.800,232.800 294.800 C 233.020 294.800,233.200 295.340,233.200 296.000 C 233.200 296.660,233.380 297.200,233.600 297.200 C 233.820 297.200,234.000 297.560,234.000 298.000 C 234.000 298.440,234.180 298.800,234.400 298.800 C 234.620 298.800,234.800 299.074,234.800 299.409 C 234.800 300.201,238.999 304.400,239.791 304.400 C 240.126 304.400,240.400 304.580,240.400 304.800 C 240.400 305.020,240.760 305.200,241.200 305.200 C 241.640 305.200,242.000 305.380,242.000 305.600 C 242.000 305.820,242.540 306.000,243.200 306.000 C 243.860 306.000,244.400 306.164,244.400 306.364 C 244.400 306.699,247.715 307.168,250.600 307.241 C 252.485 307.289,255.994 306.733,256.232 306.348 C 256.350 306.157,256.797 306.000,257.224 306.000 C 257.651 306.000,258.000 305.820,258.000 305.600 C 258.000 305.380,258.360 305.200,258.800 305.200 C 259.240 305.200,259.600 305.020,259.600 304.800 C 259.600 304.580,259.920 304.400,260.312 304.400 C 260.703 304.400,261.283 304.040,261.600 303.600 C 261.917 303.160,262.425 302.800,262.728 302.800 C 263.031 302.800,263.783 302.260,264.400 301.600 C 265.934 299.958,266.000 300.022,266.000 303.132 C 266.000 305.944,267.031 307.446,268.387 306.608 C 268.642 306.451,275.184 306.294,282.925 306.261 L 297.000 306.200 297.114 301.806 C 297.177 299.389,297.402 297.238,297.614 297.026 C 298.213 296.427,298.076 295.630,297.149 294.329 C 296.219 293.022,296.019 293.011,289.400 293.884 L 287.000 294.200 286.800 296.000 L 286.600 297.800 283.900 297.918 L 281.200 298.037 281.200 295.250 L 281.200 292.464 283.700 292.199 C 285.075 292.053,287.100 291.994,288.200 292.067 L 290.200 292.200 290.112 288.003 C 290.043 284.709,289.888 283.707,289.391 283.344 C 288.893 282.980,289.511 282.879,292.279 282.872 C 294.215 282.867,296.115 282.849,296.500 282.831 C 297.134 282.803,297.200 282.236,297.200 276.800 L 297.200 270.800 281.600 270.800 L 266.000 270.800 266.000 274.800 L 266.000 278.800 267.600 278.800 L 269.200 278.800 269.200 288.400 L 269.200 298.000 268.000 298.000 C 267.340 298.000,266.800 298.180,266.800 298.400 C 266.800 299.133,265.576 298.812,264.582 297.818 C 264.042 297.278,263.600 296.677,263.600 296.482 C 263.600 295.757,260.050 292.400,259.283 292.400 C 258.845 292.400,257.582 293.300,256.476 294.400 C 255.371 295.500,254.181 296.400,253.833 296.400 C 253.485 296.400,253.200 296.580,253.200 296.800 C 253.200 297.020,252.480 297.200,251.600 297.200 C 250.720 297.200,250.000 297.020,250.000 296.800 C 250.000 296.580,249.722 296.400,249.382 296.400 C 248.305 296.400,246.000 293.542,246.000 292.205 C 246.000 291.872,245.820 291.600,245.600 291.600 C 245.372 291.600,245.200 290.408,245.200 288.824 C 245.200 287.297,245.380 285.936,245.600 285.800 C 245.820 285.664,246.000 285.113,246.000 284.576 C 246.000 284.039,246.180 283.600,246.400 283.600 C 246.620 283.600,246.800 283.322,246.800 282.982 C 246.800 282.642,247.242 281.922,247.782 281.382 C 249.895 279.269,253.974 280.722,254.012 283.600 C 254.041 285.799,256.706 286.417,264.500 286.034 C 265.141 286.003,265.200 285.358,265.200 278.400 C 265.200 271.442,265.141 270.797,264.500 270.764 C 260.974 270.580,255.760 270.937,255.510 271.380 C 255.194 271.939,253.200 271.743,253.200 271.153 C 253.200 270.959,252.851 270.800,252.424 270.800 C 251.997 270.800,251.536 270.620,251.400 270.400 C 251.264 270.180,249.633 270.000,247.776 270.000 C 245.792 270.000,244.400 270.165,244.400 270.400 M134.279 270.654 C 134.126 270.808,134.000 272.703,134.000 274.867 L 134.000 278.800 135.500 278.800 L 137.000 278.800 137.000 288.400 L 137.000 297.999 135.600 298.003 C 133.796 298.007,132.240 300.960,133.600 301.800 C 133.820 301.936,134.000 302.926,134.000 304.000 C 134.000 306.533,133.444 306.380,143.058 306.498 L 151.400 306.600 151.514 302.300 L 151.627 298.000 149.953 298.000 L 148.279 298.000 148.619 291.700 C 149.029 284.099,149.028 282.257,148.613 280.300 L 148.295 278.800 149.948 278.800 L 151.600 278.800 151.600 274.800 L 151.600 270.800 143.633 270.800 C 139.251 270.800,135.416 270.704,135.112 270.588 C 134.807 270.471,134.433 270.501,134.279 270.654 M182.744 270.703 C 174.618 270.836,175.318 270.370,175.527 275.500 L 175.661 278.800 177.230 278.800 L 178.800 278.800 178.800 282.400 C 178.800 284.533,178.637 286.000,178.400 286.000 C 178.180 286.000,178.000 285.764,178.000 285.475 C 178.000 285.187,177.685 284.602,177.300 284.175 C 176.915 283.749,176.345 282.905,176.032 282.300 C 175.720 281.695,175.315 281.200,175.132 281.200 C 174.950 281.200,174.800 280.919,174.800 280.576 C 174.800 280.207,174.612 280.069,174.338 280.238 C 174.064 280.407,173.985 280.349,174.142 280.094 C 174.288 279.858,174.136 279.393,173.804 279.061 C 173.472 278.729,173.200 278.240,173.200 277.975 C 173.200 277.711,172.884 277.203,172.497 276.847 C 172.111 276.491,171.540 275.705,171.230 275.100 C 170.919 274.495,170.515 274.000,170.332 274.000 C 170.150 274.000,170.000 273.775,170.000 273.500 C 169.999 273.225,169.573 272.505,169.053 271.900 L 168.107 270.800 160.253 270.800 L 152.400 270.800 152.400 274.229 C 152.400 277.988,152.785 278.800,154.571 278.800 L 155.600 278.800 155.600 288.400 L 155.600 298.000 154.700 298.013 C 152.683 298.041,152.217 298.931,152.351 302.491 C 152.517 306.865,152.207 306.715,160.978 306.652 C 169.685 306.589,169.200 306.832,169.200 302.520 C 169.200 298.664,168.824 298.035,166.500 298.013 L 165.200 298.000 165.200 294.000 C 165.200 291.600,165.360 290.000,165.600 290.000 C 165.820 290.000,166.000 290.320,166.000 290.712 C 166.000 291.103,166.360 291.683,166.800 292.000 C 167.240 292.317,167.600 292.857,167.600 293.200 C 167.600 293.543,167.960 294.083,168.400 294.400 C 168.840 294.717,169.200 295.257,169.200 295.600 C 169.200 295.943,169.560 296.483,170.000 296.800 C 170.440 297.117,170.800 297.657,170.800 298.000 C 170.800 298.343,171.160 298.883,171.600 299.200 C 172.040 299.517,172.400 300.057,172.400 300.400 C 172.400 300.743,172.760 301.283,173.200 301.600 C 173.640 301.917,174.000 302.457,174.000 302.800 C 174.000 303.143,174.360 303.683,174.800 304.000 C 175.240 304.317,175.600 304.866,175.600 305.221 C 175.600 306.277,177.399 307.020,178.615 306.466 C 179.904 305.879,185.694 305.854,186.273 306.433 C 186.583 306.743,186.945 306.716,187.553 306.337 C 188.389 305.815,188.400 305.625,188.400 292.304 L 188.400 278.800 190.000 278.800 L 191.600 278.800 191.600 274.800 C 191.600 272.600,191.435 270.800,191.233 270.800 C 191.031 270.800,190.626 270.752,190.333 270.694 C 190.040 270.636,186.625 270.640,182.744 270.703 M209.100 270.704 L 199.600 270.814 199.600 274.319 C 199.600 277.365,199.705 277.899,200.400 278.400 C 201.226 278.996,201.507 280.400,200.800 280.400 C 200.580 280.400,200.400 280.929,200.400 281.576 C 200.400 282.223,200.220 282.864,200.000 283.000 C 199.780 283.136,199.600 283.867,199.600 284.624 C 199.600 285.381,199.420 286.000,199.200 286.000 C 198.980 286.000,198.800 286.540,198.800 287.200 C 198.800 287.860,198.620 288.400,198.400 288.400 C 198.180 288.400,198.000 288.940,198.000 289.600 C 198.000 290.260,197.820 290.800,197.600 290.800 C 197.380 290.800,197.200 291.419,197.200 292.176 C 197.200 292.933,197.020 293.664,196.800 293.800 C 196.580 293.936,196.400 294.577,196.400 295.224 C 196.400 295.871,196.220 296.400,196.000 296.400 C 195.780 296.400,195.600 296.760,195.600 297.200 C 195.600 297.833,195.329 298.003,194.300 298.013 C 191.979 298.035,191.600 298.666,191.600 302.501 C 191.600 306.732,190.994 306.456,200.493 306.537 C 209.560 306.613,209.200 306.783,209.200 302.427 C 209.200 298.820,208.798 298.000,207.029 298.000 C 205.996 298.000,205.655 297.460,206.397 297.002 C 206.746 296.786,212.198 296.606,214.100 296.748 C 215.430 296.847,214.884 297.999,213.500 298.013 C 211.194 298.035,210.800 298.675,210.800 302.400 C 210.800 306.872,210.191 306.638,221.526 306.535 C 233.287 306.428,232.400 306.757,232.400 302.501 C 232.400 298.666,232.021 298.035,229.700 298.013 C 228.525 298.001,228.400 297.885,228.400 296.800 C 228.400 296.140,228.220 295.600,228.000 295.600 C 227.780 295.600,227.600 295.060,227.600 294.400 C 227.600 293.740,227.420 293.200,227.200 293.200 C 226.980 293.200,226.800 292.660,226.800 292.000 C 226.800 291.340,226.620 290.800,226.400 290.800 C 226.180 290.800,226.000 290.181,226.000 289.424 C 226.000 288.667,225.820 287.936,225.600 287.800 C 225.380 287.664,225.200 287.124,225.200 286.600 C 225.200 286.076,225.020 285.536,224.800 285.400 C 224.580 285.264,224.400 284.623,224.400 283.976 C 224.400 283.329,224.220 282.800,224.000 282.800 C 223.780 282.800,223.600 282.260,223.600 281.600 C 223.600 280.940,223.420 280.400,223.200 280.400 C 222.980 280.400,222.800 279.871,222.800 279.224 C 222.800 278.577,222.620 277.936,222.400 277.800 C 222.180 277.664,222.000 277.113,222.000 276.576 C 222.000 276.039,221.820 275.600,221.600 275.600 C 221.380 275.600,221.200 274.981,221.200 274.224 C 221.200 273.467,221.020 272.736,220.800 272.600 C 220.580 272.464,220.400 272.003,220.400 271.576 C 220.400 271.149,220.235 270.800,220.033 270.800 C 219.831 270.800,219.426 270.754,219.133 270.697 C 218.840 270.640,214.325 270.643,209.100 270.704 M102.717 271.100 C 102.645 271.265,102.647 273.065,102.722 275.100 L 102.857 278.800 104.328 278.800 L 105.800 278.800 105.889 288.400 L 105.978 298.000 104.533 298.000 C 102.517 298.000,100.903 300.875,102.400 301.800 C 102.620 301.936,102.800 302.926,102.800 304.000 C 102.800 306.584,102.429 306.483,112.509 306.657 C 123.181 306.842,122.806 306.996,122.787 302.438 C 122.771 298.493,122.401 298.000,119.456 298.000 L 117.200 298.000 117.200 296.013 L 117.200 294.025 121.900 293.913 L 126.600 293.800 126.715 290.087 C 126.867 285.200,126.867 285.200,121.429 285.200 L 117.200 285.200 117.200 282.000 L 117.200 278.800 119.957 278.800 C 122.930 278.800,123.200 278.996,123.200 281.156 C 123.200 282.877,124.157 283.918,125.170 283.300 C 126.200 282.671,130.166 282.647,131.152 283.263 C 132.961 284.393,133.200 283.663,133.200 277.013 L 133.200 270.800 118.024 270.800 C 109.677 270.800,102.789 270.935,102.717 271.100 M287.039 280.445 C 286.768 282.143,287.316 283.422,288.107 282.934 C 288.349 282.784,288.404 282.870,288.238 283.138 C 288.059 283.428,286.697 283.600,284.576 283.600 L 281.200 283.600 281.200 281.200 L 281.200 278.800 284.251 278.800 L 287.302 278.800 287.039 280.445 M210.800 284.000 C 210.800 284.660,210.980 285.200,211.200 285.200 C 211.420 285.200,211.600 285.740,211.600 286.400 C 211.600 287.060,211.780 287.600,212.000 287.600 C 212.220 287.600,212.400 287.960,212.400 288.400 C 212.400 289.093,212.133 289.200,210.400 289.200 C 208.537 289.200,207.863 288.779,208.800 288.200 C 209.020 288.064,209.200 287.524,209.200 287.000 C 209.200 286.476,209.380 285.936,209.600 285.800 C 209.820 285.664,210.000 284.933,210.000 284.176 C 210.000 283.419,210.180 282.800,210.400 282.800 C 210.620 282.800,210.800 283.340,210.800 284.000 " stroke="none" fill="#0739a2" fill-rule="evenodd"></path><path id="path2" d="M274.217 139.173 C 274.072 139.408,273.603 139.600,273.176 139.600 C 272.749 139.600,272.400 139.780,272.400 140.000 C 272.400 140.220,272.164 140.400,271.875 140.400 C 271.587 140.400,270.964 140.760,270.492 141.200 C 270.020 141.640,269.491 142.000,269.317 142.000 C 269.143 142.001,268.464 142.462,267.810 143.025 C 267.155 143.587,265.985 144.343,265.210 144.704 C 264.434 145.064,263.530 145.648,263.200 146.002 C 262.870 146.355,262.028 146.876,261.329 147.159 C 260.630 147.442,259.747 148.017,259.367 148.437 C 258.987 148.856,258.479 149.200,258.238 149.201 C 257.997 149.201,257.170 149.741,256.400 150.400 C 255.630 151.059,254.775 151.599,254.500 151.599 C 254.225 151.600,254.000 151.780,254.000 152.000 C 254.000 152.220,253.764 152.400,253.475 152.400 C 253.187 152.400,252.602 152.715,252.175 153.100 C 251.749 153.485,250.905 154.055,250.300 154.368 C 249.695 154.680,249.200 155.085,249.200 155.268 C 249.200 155.450,248.880 155.600,248.488 155.600 C 248.097 155.600,247.517 155.960,247.200 156.400 C 246.883 156.840,246.427 157.200,246.187 157.200 C 245.947 157.200,245.402 157.515,244.975 157.900 C 244.549 158.285,243.705 158.855,243.100 159.168 C 242.495 159.480,242.000 159.885,242.000 160.068 C 242.000 160.250,241.640 160.400,241.200 160.400 C 240.435 160.400,240.400 160.667,240.400 166.520 C 240.400 172.291,240.008 174.787,239.100 174.797 C 238.935 174.799,238.800 175.072,238.800 175.404 C 238.800 175.736,238.260 176.572,237.600 177.263 C 236.940 177.954,236.400 178.762,236.400 179.059 C 236.400 179.357,236.220 179.600,236.000 179.600 C 235.780 179.600,235.600 179.864,235.600 180.186 C 235.600 180.508,235.240 180.965,234.800 181.200 C 234.360 181.435,234.000 181.812,234.000 182.036 C 234.000 182.260,233.461 183.019,232.802 183.722 C 232.143 184.425,231.603 185.132,231.602 185.293 C 231.600 185.658,229.931 187.615,227.700 189.869 C 226.765 190.814,226.000 191.666,226.000 191.762 C 226.000 192.064,220.174 197.875,219.704 198.042 C 219.459 198.129,217.990 199.415,216.440 200.900 C 214.890 202.385,213.482 203.601,213.311 203.602 C 213.140 203.603,212.425 204.143,211.722 204.802 C 211.019 205.461,210.335 206.000,210.204 206.000 C 209.819 206.000,203.813 210.106,203.667 210.470 C 203.593 210.651,203.276 210.800,202.961 210.800 C 202.433 210.800,200.866 211.534,200.400 212.000 C 200.060 212.340,197.905 213.545,195.600 214.684 C 194.390 215.281,193.340 215.912,193.267 216.085 C 193.193 216.258,192.788 216.400,192.367 216.400 C 191.945 216.400,191.600 216.580,191.600 216.800 C 191.600 217.020,191.150 217.200,190.600 217.200 C 190.050 217.200,189.600 217.380,189.600 217.600 C 189.600 217.820,189.150 218.000,188.600 218.000 C 188.050 218.000,187.600 218.180,187.600 218.400 C 187.600 218.620,187.161 218.800,186.624 218.800 C 186.087 218.800,185.536 218.980,185.400 219.200 C 185.264 219.420,184.623 219.600,183.976 219.600 C 183.329 219.600,182.800 219.780,182.800 220.000 C 182.800 220.220,182.380 220.400,181.867 220.400 C 181.353 220.400,180.814 220.520,180.667 220.666 C 180.521 220.812,179.909 220.985,179.306 221.049 C 178.704 221.113,178.149 221.353,178.072 221.583 C 177.996 221.812,177.228 222.000,176.367 222.000 C 175.505 222.000,174.800 222.151,174.800 222.337 C 174.800 222.522,173.965 222.686,172.945 222.701 C 171.925 222.717,170.980 222.901,170.845 223.111 C 170.710 223.321,169.433 223.507,168.007 223.525 C 166.576 223.543,165.351 223.746,165.274 223.979 C 165.100 224.499,156.727 224.558,156.180 224.042 C 155.971 223.845,154.630 223.575,153.200 223.441 C 148.410 222.994,146.800 222.722,146.800 222.360 C 146.800 222.162,146.348 222.000,145.795 222.000 C 145.242 222.000,144.477 221.841,144.095 221.647 C 143.422 221.304,142.850 221.059,140.100 219.936 C 139.385 219.644,138.800 219.269,138.800 219.102 C 138.800 218.936,138.564 218.800,138.275 218.800 C 137.987 218.800,137.364 218.440,136.892 218.000 C 136.420 217.560,135.869 217.200,135.669 217.200 C 135.136 217.200,130.000 211.978,130.000 211.436 C 130.000 211.184,129.640 210.717,129.200 210.400 C 128.760 210.083,128.400 209.503,128.400 209.112 C 128.400 208.720,128.220 208.400,128.000 208.400 C 127.780 208.400,127.600 208.040,127.600 207.600 C 127.600 207.160,127.420 206.800,127.200 206.800 C 126.980 206.800,126.800 206.271,126.800 205.624 C 126.800 204.977,126.639 204.348,126.442 204.226 C 125.895 203.888,125.565 201.143,125.342 195.075 L 125.139 189.550 123.438 187.775 C 120.986 185.216,119.600 185.620,119.600 188.891 C 119.600 189.853,119.383 190.857,119.119 191.121 C 118.579 191.661,118.532 208.043,119.068 208.910 C 119.232 209.176,119.433 210.205,119.515 211.197 C 119.596 212.189,119.829 213.060,120.031 213.133 C 120.234 213.207,120.400 213.871,120.400 214.610 C 120.400 215.348,120.580 216.064,120.800 216.200 C 121.020 216.336,121.200 216.977,121.200 217.624 C 121.200 218.271,121.380 218.800,121.600 218.800 C 121.820 218.800,122.000 219.340,122.000 220.000 C 122.000 220.660,122.180 221.200,122.400 221.200 C 122.620 221.200,122.800 221.560,122.800 222.000 C 122.800 222.440,122.980 222.800,123.200 222.800 C 123.420 222.800,123.600 223.160,123.600 223.600 C 123.600 224.040,123.780 224.400,124.000 224.400 C 124.220 224.400,124.400 224.760,124.400 225.200 C 124.400 225.640,124.580 226.000,124.800 226.000 C 125.020 226.000,125.200 226.360,125.200 226.800 C 125.200 227.240,125.380 227.600,125.600 227.600 C 125.820 227.600,126.000 227.960,126.000 228.400 C 126.000 228.840,126.152 229.200,126.337 229.200 C 126.523 229.200,127.106 230.055,127.633 231.100 C 128.160 232.145,129.051 233.450,129.611 234.000 C 130.172 234.550,131.072 235.630,131.612 236.400 C 132.853 238.172,138.257 243.600,138.779 243.600 C 138.995 243.600,139.365 243.960,139.600 244.400 C 139.835 244.840,140.252 245.200,140.526 245.200 C 140.799 245.200,141.283 245.560,141.600 246.000 C 141.917 246.440,142.482 246.800,142.855 246.800 C 143.228 246.800,143.593 246.945,143.667 247.123 C 143.878 247.635,147.487 249.999,148.072 250.009 C 148.362 250.014,149.050 250.370,149.600 250.800 C 150.150 251.230,150.825 251.586,151.100 251.591 C 151.375 251.596,151.600 251.780,151.600 252.000 C 151.600 252.220,151.949 252.400,152.376 252.400 C 152.803 252.400,153.264 252.580,153.400 252.800 C 153.536 253.020,154.087 253.200,154.624 253.200 C 155.161 253.200,155.600 253.380,155.600 253.600 C 155.600 253.820,155.955 254.000,156.388 254.000 C 156.821 254.000,157.817 254.360,158.600 254.800 C 159.383 255.240,160.458 255.600,160.989 255.600 C 161.519 255.600,162.064 255.780,162.200 256.000 C 162.336 256.220,163.157 256.400,164.024 256.400 C 164.891 256.400,165.600 256.560,165.600 256.756 C 165.600 257.262,167.987 257.646,172.500 257.864 C 174.645 257.968,176.400 258.221,176.400 258.427 C 176.400 258.633,178.190 258.800,180.400 258.800 C 182.600 258.800,184.400 258.644,184.400 258.453 C 184.400 258.262,186.155 258.081,188.300 258.052 C 190.486 258.021,192.259 257.822,192.333 257.599 C 192.407 257.379,193.352 257.200,194.433 257.200 C 195.515 257.200,196.400 257.020,196.400 256.800 C 196.400 256.580,197.300 256.400,198.400 256.400 C 199.500 256.400,200.400 256.220,200.400 256.000 C 200.400 255.780,200.940 255.600,201.600 255.600 C 202.260 255.600,202.800 255.420,202.800 255.200 C 202.800 254.980,203.419 254.800,204.176 254.800 C 204.933 254.800,205.664 254.620,205.800 254.400 C 205.936 254.180,206.476 254.000,207.000 254.000 C 207.524 254.000,208.064 253.820,208.200 253.600 C 208.336 253.380,208.797 253.200,209.224 253.200 C 209.651 253.200,210.000 253.020,210.000 252.800 C 210.000 252.580,210.439 252.400,210.976 252.400 C 211.513 252.400,212.064 252.220,212.200 252.000 C 212.336 251.780,212.797 251.600,213.224 251.600 C 213.651 251.600,214.000 251.420,214.000 251.200 C 214.000 250.980,214.439 250.800,214.976 250.800 C 215.513 250.800,216.064 250.620,216.200 250.400 C 216.336 250.180,216.797 250.000,217.224 250.000 C 217.651 250.000,218.000 249.820,218.000 249.600 C 218.000 249.380,218.360 249.200,218.800 249.200 C 219.240 249.200,219.600 249.020,219.600 248.800 C 219.600 248.580,219.836 248.400,220.125 248.400 C 220.413 248.400,221.036 248.040,221.508 247.600 C 221.980 247.160,222.644 246.800,222.983 246.800 C 223.322 246.800,223.600 246.641,223.600 246.447 C 223.600 246.252,223.915 245.993,224.300 245.871 C 225.342 245.541,227.309 244.296,228.046 243.500 C 228.402 243.115,228.922 242.800,229.200 242.800 C 229.478 242.800,229.997 242.484,230.353 242.097 C 230.709 241.711,231.495 241.140,232.100 240.830 C 232.705 240.519,233.200 240.115,233.200 239.932 C 233.200 239.750,233.484 239.600,233.831 239.600 C 234.179 239.600,235.154 238.880,236.000 238.000 C 236.846 237.120,237.686 236.398,237.869 236.396 C 238.051 236.393,238.920 235.717,239.800 234.893 C 240.680 234.069,242.083 232.885,242.919 232.263 C 245.753 230.150,251.275 224.229,250.853 223.755 C 250.714 223.599,250.811 223.593,251.069 223.741 C 251.341 223.896,251.922 223.471,252.450 222.729 C 252.952 222.025,254.226 220.544,255.281 219.437 C 256.336 218.330,257.200 217.278,257.200 217.099 C 257.200 216.920,257.842 216.131,258.627 215.347 C 260.023 213.950,261.125 214.115,261.187 215.729 C 261.194 215.909,261.472 216.329,261.804 216.661 C 262.136 216.993,262.288 217.458,262.142 217.694 C 261.994 217.933,262.062 218.009,262.296 217.864 C 262.527 217.721,262.819 217.874,262.946 218.202 C 263.199 218.862,265.200 219.038,265.200 218.400 C 265.200 218.180,265.740 218.000,266.400 218.000 C 267.060 218.000,267.600 217.820,267.600 217.600 C 267.600 217.380,267.878 217.200,268.218 217.200 C 269.120 217.200,270.800 215.374,270.800 214.395 C 270.800 213.932,270.980 213.664,271.200 213.800 C 271.426 213.940,271.600 213.612,271.600 213.047 C 271.600 212.497,271.780 211.936,272.000 211.800 C 272.220 211.664,272.400 211.023,272.400 210.376 C 272.400 209.729,272.580 209.200,272.800 209.200 C 273.020 209.200,273.200 208.840,273.200 208.400 C 273.200 207.960,273.380 207.600,273.600 207.600 C 273.820 207.600,274.000 207.071,274.000 206.424 C 274.000 205.777,274.180 205.136,274.400 205.000 C 274.620 204.864,274.800 204.313,274.800 203.776 C 274.800 203.239,274.980 202.800,275.200 202.800 C 275.420 202.800,275.600 202.080,275.600 201.200 C 275.600 200.320,275.780 199.600,276.000 199.600 C 276.220 199.600,276.400 199.060,276.400 198.400 C 276.400 197.740,276.561 197.200,276.758 197.200 C 276.955 197.200,277.225 196.480,277.358 195.600 C 277.491 194.720,277.709 193.280,277.842 192.400 C 277.975 191.520,278.245 190.800,278.442 190.800 C 278.639 190.800,278.800 189.900,278.800 188.800 C 278.800 187.700,278.980 186.800,279.200 186.800 C 279.420 186.800,279.600 185.900,279.600 184.800 C 279.600 183.700,279.780 182.800,280.000 182.800 C 280.230 182.800,280.400 181.560,280.400 179.880 C 280.400 178.274,280.566 176.789,280.770 176.580 C 281.572 175.756,282.387 151.427,281.638 150.678 C 281.382 150.422,281.200 148.649,281.200 146.400 C 281.200 141.831,280.701 140.408,279.100 140.403 C 278.495 140.401,278.000 140.240,278.000 140.045 C 278.000 139.850,277.505 139.606,276.900 139.502 C 276.295 139.398,275.503 139.185,275.140 139.029 C 274.778 138.873,274.362 138.938,274.217 139.173 " stroke="none" fill="#f77c3a" fill-rule="evenodd"></path><path id="path3" d="M180.400 142.468 C 180.400 142.651,179.781 142.800,179.024 142.800 C 178.267 142.800,177.536 142.980,177.400 143.200 C 177.264 143.420,176.803 143.600,176.376 143.600 C 175.949 143.600,175.600 143.780,175.600 144.000 C 175.600 144.220,175.060 144.400,174.400 144.400 C 173.740 144.400,173.200 144.580,173.200 144.800 C 173.200 145.020,172.660 145.200,172.000 145.200 C 171.340 145.200,170.800 145.380,170.800 145.600 C 170.800 145.820,170.451 146.000,170.024 146.000 C 169.597 146.000,169.136 146.180,169.000 146.400 C 168.864 146.620,168.313 146.800,167.776 146.800 C 167.239 146.800,166.800 146.980,166.800 147.200 C 166.800 147.420,166.440 147.600,166.000 147.600 C 165.560 147.600,165.200 147.780,165.200 148.000 C 165.200 148.220,164.761 148.400,164.224 148.400 C 163.687 148.400,163.136 148.580,163.000 148.800 C 162.864 149.020,162.403 149.200,161.976 149.200 C 161.549 149.200,161.200 149.380,161.200 149.600 C 161.200 149.820,160.840 150.000,160.400 150.000 C 159.960 150.000,159.600 150.180,159.600 150.400 C 159.600 150.620,159.240 150.800,158.800 150.800 C 158.360 150.800,158.000 150.980,158.000 151.200 C 158.000 151.420,157.640 151.600,157.200 151.600 C 156.760 151.600,156.400 151.780,156.400 152.000 C 156.400 152.220,156.040 152.400,155.600 152.400 C 155.160 152.400,154.800 152.580,154.800 152.800 C 154.800 153.020,154.440 153.200,154.000 153.200 C 153.560 153.200,153.200 153.380,153.200 153.600 C 153.200 153.820,152.840 154.000,152.400 154.000 C 151.960 154.000,151.600 154.180,151.600 154.400 C 151.600 154.620,151.240 154.800,150.800 154.800 C 150.360 154.800,150.000 154.980,150.000 155.200 C 150.000 155.420,149.640 155.600,149.200 155.600 C 148.760 155.600,148.400 155.780,148.400 156.000 C 148.400 156.220,148.040 156.400,147.600 156.400 C 147.160 156.400,146.800 156.580,146.800 156.800 C 146.800 157.020,146.440 157.200,146.000 157.200 C 145.560 157.200,145.200 157.380,145.200 157.600 C 145.200 157.820,144.840 158.000,144.400 158.000 C 143.960 158.000,143.600 158.180,143.600 158.400 C 143.600 158.620,143.240 158.800,142.800 158.800 C 142.360 158.800,142.000 158.980,142.000 159.200 C 142.000 159.420,141.680 159.600,141.288 159.600 C 140.897 159.600,140.317 159.960,140.000 160.400 C 139.683 160.840,139.103 161.200,138.712 161.200 C 138.320 161.200,138.000 161.336,138.000 161.502 C 138.000 161.669,137.460 162.044,136.800 162.336 C 135.667 162.837,135.062 164.400,136.000 164.400 C 136.220 164.400,136.400 164.925,136.400 165.567 C 136.400 166.208,136.625 166.818,136.900 166.921 C 137.596 167.182,136.045 168.371,134.988 168.387 C 134.542 168.394,133.917 168.760,133.600 169.200 C 133.261 169.670,132.565 170.000,131.912 170.000 C 131.300 170.000,130.800 170.180,130.800 170.400 C 130.800 170.620,130.440 170.800,130.000 170.800 C 129.560 170.800,129.199 170.935,129.197 171.100 C 129.193 171.501,127.219 172.400,126.344 172.400 C 125.961 172.400,125.536 172.580,125.400 172.800 C 125.264 173.020,124.803 173.200,124.376 173.200 C 123.949 173.200,123.600 173.380,123.600 173.600 C 123.600 173.820,123.060 174.000,122.400 174.000 C 121.740 174.000,121.200 174.180,121.200 174.400 C 121.200 174.620,120.840 174.800,120.400 174.800 C 119.960 174.800,119.600 174.980,119.600 175.200 C 119.600 175.420,119.276 175.600,118.880 175.600 C 118.035 175.600,117.200 176.339,117.200 177.086 C 117.200 177.375,118.640 179.057,120.400 180.824 C 122.160 182.591,123.600 184.182,123.600 184.359 C 123.600 184.536,124.140 185.246,124.800 185.937 C 125.460 186.628,126.000 187.392,126.000 187.636 C 126.000 187.880,126.540 188.583,127.200 189.200 C 127.860 189.817,128.400 190.492,128.400 190.701 C 128.400 190.910,128.940 191.646,129.600 192.337 C 130.260 193.028,130.800 193.859,130.800 194.184 C 130.800 194.510,131.160 195.417,131.600 196.200 C 132.040 196.983,132.400 197.889,132.400 198.212 C 132.400 198.535,132.580 198.800,132.800 198.800 C 133.020 198.800,133.200 199.160,133.200 199.600 C 133.200 200.040,133.380 200.400,133.600 200.400 C 133.820 200.400,134.000 200.805,134.000 201.300 C 134.001 201.795,134.465 202.740,135.033 203.400 C 135.798 204.289,136.025 204.935,135.912 205.900 C 135.804 206.825,135.924 207.200,136.326 207.200 C 136.777 207.200,136.838 207.637,136.624 209.349 C 136.414 211.024,136.492 211.635,136.978 212.120 C 137.320 212.463,137.600 212.925,137.600 213.148 C 137.600 213.854,138.412 214.088,139.043 213.564 C 139.417 213.254,139.564 212.711,139.424 212.154 C 139.299 211.656,139.378 211.137,139.599 211.001 C 139.819 210.864,140.000 210.943,140.000 211.176 C 140.000 211.409,140.289 211.600,140.643 211.600 C 141.057 211.600,141.202 211.381,141.049 210.984 C 140.919 210.645,141.019 210.038,141.271 209.635 C 141.913 208.607,141.118 199.432,140.246 197.800 C 139.384 196.186,139.410 194.147,140.300 193.645 C 140.879 193.318,140.909 193.159,140.473 192.725 C 140.038 192.291,139.838 192.339,139.324 193.000 C 138.737 193.756,138.718 193.723,138.977 192.400 C 139.649 188.971,139.656 188.376,139.044 186.532 C 138.686 185.455,137.565 183.632,136.541 182.461 C 134.154 179.732,133.816 177.416,135.800 177.376 C 136.460 177.362,137.484 177.114,138.074 176.823 C 139.536 176.105,140.400 176.518,140.400 177.936 C 140.400 178.575,140.850 180.476,141.400 182.161 C 141.950 183.846,142.400 185.540,142.400 185.926 C 142.400 186.312,142.760 187.652,143.200 188.904 C 143.640 190.156,144.000 192.078,144.000 193.176 C 144.000 194.274,144.287 196.019,144.639 197.054 C 144.990 198.089,145.424 200.210,145.603 201.768 C 146.374 208.481,147.752 210.548,150.333 208.861 C 151.057 208.387,151.626 199.431,151.178 195.557 C 150.989 193.931,150.823 190.890,150.808 188.800 C 150.793 186.710,150.589 184.280,150.354 183.400 C 149.357 179.657,148.962 175.675,149.414 173.900 C 149.628 173.058,149.550 172.800,149.081 172.800 C 148.184 172.800,148.986 170.726,150.897 168.100 C 152.169 166.352,152.633 166.000,153.657 166.000 C 154.863 166.000,154.883 165.969,154.609 164.506 C 154.335 163.045,154.346 163.027,155.106 163.715 C 155.985 164.511,156.458 164.401,159.284 162.744 C 160.321 162.136,161.888 161.446,162.767 161.209 C 163.647 160.972,164.474 160.603,164.607 160.389 C 164.739 160.175,165.198 160.000,165.628 160.000 C 166.057 160.000,166.716 159.640,167.093 159.200 C 167.762 158.418,170.000 158.063,170.000 158.739 C 170.000 158.926,169.325 159.370,168.500 159.726 C 167.675 160.082,166.640 160.601,166.200 160.881 C 163.055 162.877,159.780 164.643,156.000 166.382 C 152.175 168.141,152.000 168.306,152.000 170.154 C 152.000 171.175,152.236 172.098,152.567 172.373 C 152.880 172.632,153.633 174.229,154.243 175.922 C 154.852 177.615,155.576 179.360,155.851 179.800 C 156.127 180.240,156.476 181.590,156.628 182.800 C 156.779 184.010,157.166 185.630,157.487 186.400 C 158.811 189.573,160.283 201.974,160.541 212.123 C 160.636 215.821,160.805 218.939,160.919 219.052 C 161.493 219.627,163.520 217.949,163.745 216.714 C 164.447 212.851,164.791 207.373,164.768 200.400 C 164.737 190.681,164.404 187.305,162.741 179.866 C 162.321 177.989,162.345 177.894,163.554 176.647 C 164.239 175.940,164.800 175.151,164.800 174.893 C 164.800 174.636,165.159 173.736,165.598 172.894 C 166.036 172.052,166.437 170.856,166.489 170.234 C 166.586 169.058,168.745 167.200,170.015 167.200 C 170.361 167.200,171.255 166.750,172.000 166.200 C 172.745 165.650,173.509 165.200,173.696 165.200 C 174.024 165.200,183.846 160.567,186.105 159.346 C 187.476 158.605,188.540 158.910,189.134 160.216 C 189.639 161.324,191.038 162.000,192.826 162.000 C 194.244 162.000,194.366 162.680,193.039 163.185 C 192.510 163.386,191.972 163.722,191.843 163.931 C 191.713 164.140,191.111 164.432,190.504 164.579 C 189.313 164.867,184.655 166.663,183.628 167.229 C 182.648 167.770,175.198 171.200,175.004 171.200 C 171.894 171.200,166.110 176.004,167.173 177.705 C 167.442 178.136,167.813 179.324,167.998 180.344 C 168.183 181.365,168.605 183.010,168.936 184.000 C 169.884 186.833,171.132 192.752,171.382 195.600 C 171.508 197.030,171.877 199.190,172.202 200.400 C 172.528 201.610,173.002 205.660,173.256 209.400 C 173.509 213.140,173.866 216.605,174.048 217.100 C 174.871 219.332,177.600 217.137,177.600 214.243 C 177.600 213.337,177.793 211.966,178.029 211.197 C 178.515 209.617,178.938 201.613,178.822 196.187 C 178.754 192.986,178.839 192.488,179.573 191.825 C 180.028 191.413,180.400 190.645,180.400 190.119 C 180.400 189.124,182.134 187.200,183.032 187.200 C 183.315 187.200,184.481 186.619,185.624 185.909 C 187.569 184.699,187.943 184.615,191.550 184.576 C 196.497 184.522,196.884 184.681,200.061 188.062 C 201.812 189.926,202.894 190.789,203.224 190.585 C 203.603 190.351,203.662 190.588,203.467 191.563 C 203.315 192.327,203.432 193.381,203.757 194.159 C 204.058 194.879,204.437 197.523,204.600 200.034 C 204.770 202.671,205.086 204.724,205.348 204.894 C 206.253 205.482,207.303 205.174,208.400 204.000 C 209.017 203.340,209.809 202.800,210.160 202.800 C 210.720 202.800,211.052 201.594,210.847 200.300 C 210.821 200.135,210.986 200.000,211.214 200.000 C 211.494 200.000,211.488 199.738,211.196 199.193 C 210.707 198.279,210.775 194.863,211.288 194.545 C 211.747 194.262,211.627 182.000,211.166 182.000 C 210.965 182.000,210.800 181.136,210.800 180.080 C 210.800 179.024,210.575 177.918,210.300 177.621 C 209.900 177.190,209.900 177.139,210.300 177.365 C 210.645 177.559,210.800 177.322,210.800 176.600 C 210.800 176.004,210.628 175.659,210.400 175.800 C 210.150 175.954,210.000 175.145,210.000 173.647 C 210.000 172.327,209.820 171.136,209.600 171.000 C 209.380 170.864,209.200 169.964,209.200 169.000 C 209.200 168.036,209.020 167.136,208.800 167.000 C 208.580 166.864,208.400 166.401,208.400 165.971 C 208.400 165.541,208.192 164.787,207.938 164.295 C 206.963 162.409,206.800 161.991,206.800 161.377 C 206.800 160.640,205.864 159.600,205.200 159.600 C 204.241 159.600,203.600 158.410,203.600 156.629 C 203.600 155.623,203.420 154.800,203.200 154.800 C 202.980 154.800,202.800 154.260,202.800 153.600 C 202.800 152.940,202.620 152.400,202.400 152.400 C 202.180 152.400,202.000 151.951,202.000 151.403 C 202.000 150.106,200.501 148.400,199.361 148.400 C 198.869 148.400,198.376 148.175,198.265 147.900 C 198.104 147.500,198.057 147.500,198.032 147.900 C 198.013 148.197,197.441 148.400,196.624 148.400 C 195.867 148.400,195.136 148.580,195.000 148.800 C 194.864 149.020,194.133 149.200,193.376 149.200 C 192.619 149.200,192.000 149.380,192.000 149.600 C 192.000 149.820,191.550 150.000,191.000 150.000 C 190.450 150.000,190.000 150.180,190.000 150.400 C 190.000 150.620,189.640 150.800,189.200 150.800 C 188.667 150.800,188.400 150.533,188.400 150.000 C 188.400 149.560,188.220 149.200,188.000 149.200 C 187.780 149.200,187.600 148.660,187.600 148.000 C 187.600 147.340,187.399 146.800,187.153 146.800 C 186.904 146.800,186.799 146.447,186.916 146.000 C 187.052 145.480,186.928 145.200,186.563 145.200 C 186.225 145.200,186.000 144.789,186.000 144.171 C 186.000 142.512,185.097 141.947,182.608 142.048 C 181.393 142.097,180.400 142.286,180.400 142.468 " stroke="none" fill="#74e32b" fill-rule="evenodd"></path><path id="path4" d="M254.119 69.453 C 254.258 69.592,254.153 70.087,253.886 70.553 C 253.535 71.164,253.336 76.250,253.171 88.800 C 252.905 108.989,253.052 108.192,249.843 106.961 C 249.404 106.793,249.084 107.054,248.794 107.815 L 248.377 108.911 245.014 108.702 C 242.146 108.523,241.613 108.588,241.395 109.146 C 241.174 109.715,241.045 109.683,240.408 108.902 C 239.835 108.200,239.414 108.057,238.475 108.245 C 237.481 108.444,237.156 108.305,236.591 107.443 C 235.494 105.768,233.563 106.395,234.255 108.200 C 234.570 109.019,234.009 108.957,233.351 108.100 C 232.849 107.446,232.796 107.460,232.560 108.300 C 232.421 108.795,232.148 109.200,231.953 109.200 C 231.759 109.200,231.600 110.100,231.600 111.200 C 231.600 112.412,231.777 113.200,232.049 113.200 C 232.362 113.200,232.373 113.352,232.085 113.700 C 231.652 114.225,231.338 123.993,230.984 148.000 C 230.840 157.759,230.597 162.913,230.155 165.600 C 229.592 169.024,229.200 170.529,229.200 169.267 C 229.200 169.010,229.020 168.800,228.800 168.800 C 228.141 168.800,228.348 170.072,229.100 170.643 C 229.767 171.149,229.767 171.175,229.100 171.187 C 228.308 171.202,228.009 176.800,228.800 176.800 C 229.020 176.800,229.203 176.575,229.206 176.300 C 229.210 175.966,229.343 175.999,229.606 176.400 C 229.928 176.891,230.063 176.903,230.344 176.466 C 230.627 176.028,230.728 176.035,230.909 176.507 C 231.049 176.871,231.981 177.169,233.460 177.321 C 236.811 177.667,239.415 174.902,239.226 171.200 C 239.198 170.650,239.079 168.461,238.961 166.336 C 238.750 162.533,238.765 162.450,239.873 161.181 C 241.695 159.096,244.755 156.401,245.304 156.400 C 245.471 156.400,246.172 155.860,246.863 155.200 C 247.554 154.540,248.334 154.000,248.597 154.000 C 248.861 154.000,249.402 153.640,249.800 153.200 C 250.198 152.760,250.678 152.400,250.865 152.400 C 251.053 152.400,251.745 151.920,252.403 151.334 L 253.600 150.268 253.600 136.590 C 253.600 121.788,253.772 119.027,254.673 119.373 C 254.980 119.491,255.602 119.365,256.054 119.094 C 256.763 118.668,256.960 118.724,257.487 119.500 C 258.213 120.570,259.253 120.646,260.648 119.732 C 261.924 118.896,262.384 119.440,262.396 121.800 C 262.406 123.610,263.139 126.594,263.488 126.245 C 263.674 126.060,264.144 99.425,264.122 90.400 C 264.113 87.028,263.525 81.601,263.142 81.364 C 262.954 81.248,262.800 80.623,262.800 79.976 C 262.800 79.329,262.620 78.800,262.400 78.800 C 262.180 78.800,262.000 78.440,262.000 78.000 C 262.000 77.560,261.820 77.200,261.600 77.200 C 261.380 77.200,261.200 76.922,261.200 76.583 C 261.200 76.244,260.840 75.580,260.400 75.108 C 259.960 74.636,259.600 74.013,259.600 73.725 C 259.600 73.436,259.420 73.200,259.200 73.200 C 258.980 73.200,258.800 72.975,258.800 72.700 C 258.799 71.937,256.989 70.000,256.277 70.000 C 255.931 70.000,255.536 69.820,255.400 69.600 C 255.264 69.380,254.863 69.200,254.510 69.200 C 254.156 69.200,253.980 69.314,254.119 69.453 M219.324 89.500 C 219.011 90.233,218.775 95.203,218.619 104.400 C 218.264 125.242,217.953 129.401,216.976 126.325 C 216.711 125.490,216.674 125.484,216.162 126.184 C 215.867 126.588,215.720 127.071,215.836 127.259 C 215.952 127.447,215.869 127.600,215.651 127.600 C 215.198 127.600,214.973 126.933,214.587 124.458 C 214.226 122.144,213.127 121.052,211.463 121.354 C 209.983 121.621,204.855 121.753,204.033 121.544 C 203.326 121.365,202.414 123.030,202.406 124.513 C 202.402 125.203,202.134 125.724,201.700 125.885 C 201.315 126.028,200.681 126.504,200.291 126.944 C 199.104 128.282,198.738 127.227,198.343 121.337 C 197.879 114.401,197.928 114.800,197.533 114.800 C 197.251 114.800,197.096 117.533,197.016 123.900 C 197.007 124.615,196.865 125.200,196.700 125.200 C 196.171 125.200,196.344 137.784,196.880 138.320 C 197.253 138.693,197.253 138.800,196.880 138.800 C 196.616 138.800,196.400 139.034,196.400 139.320 C 196.400 140.056,197.341 141.993,197.700 141.997 C 197.865 141.999,198.000 142.294,198.000 142.653 C 198.000 143.012,198.316 143.597,198.703 143.953 C 199.089 144.309,199.660 145.095,199.970 145.700 C 200.281 146.305,200.685 146.800,200.868 146.800 C 201.050 146.800,201.200 147.036,201.200 147.325 C 201.200 147.613,201.520 148.198,201.911 148.625 C 203.222 150.055,204.400 151.918,204.400 152.562 C 204.400 152.913,204.580 153.200,204.800 153.200 C 205.020 153.200,205.200 153.452,205.200 153.759 C 205.200 154.067,205.740 155.345,206.400 156.600 C 207.060 157.855,207.600 159.223,207.600 159.641 C 207.600 160.058,207.780 160.400,208.000 160.400 C 208.220 160.400,208.400 160.940,208.400 161.600 C 208.400 162.260,208.580 162.800,208.800 162.800 C 209.020 162.800,209.200 163.149,209.200 163.576 C 209.200 164.003,209.380 164.464,209.600 164.600 C 209.820 164.736,210.000 165.611,210.000 166.544 C 210.000 167.477,210.174 168.414,210.387 168.627 C 210.599 168.839,210.818 169.609,210.874 170.337 C 210.929 171.065,211.115 171.748,211.287 171.854 C 211.459 171.960,211.600 172.926,211.600 174.000 C 211.600 175.074,211.780 176.064,212.000 176.200 C 212.220 176.336,212.400 177.056,212.400 177.800 C 212.400 178.544,212.580 179.264,212.800 179.400 C 213.020 179.536,213.200 180.706,213.200 182.000 C 213.200 183.294,213.380 184.464,213.600 184.600 C 213.820 184.736,214.000 185.517,214.000 186.335 C 214.000 187.153,214.280 188.222,214.623 188.711 C 214.965 189.200,215.138 189.600,215.007 189.600 C 214.876 189.600,215.148 190.005,215.612 190.500 C 216.401 191.342,216.489 191.355,216.968 190.706 C 217.249 190.325,217.551 190.085,217.640 190.173 C 217.728 190.261,217.836 189.394,217.879 188.247 C 217.923 187.099,218.172 185.629,218.433 184.980 C 218.830 183.991,219.364 170.247,219.570 155.697 C 219.598 153.726,219.648 153.623,220.368 154.073 C 221.288 154.647,222.400 153.942,222.400 152.784 C 222.400 151.693,222.840 150.778,223.245 151.028 C 223.443 151.150,223.714 150.969,223.846 150.625 C 224.302 149.436,225.098 150.007,225.621 151.900 C 225.910 152.945,226.448 154.018,226.818 154.284 C 227.765 154.966,228.382 158.641,228.434 163.899 C 228.458 166.374,228.604 168.321,228.758 168.226 C 229.057 168.041,229.450 148.353,229.323 139.900 C 229.272 136.504,229.389 134.800,229.674 134.800 C 229.971 134.800,230.024 132.274,229.849 126.500 C 229.711 121.935,229.489 114.060,229.357 109.000 C 229.224 103.940,228.955 99.629,228.758 99.420 C 228.561 99.211,228.400 98.547,228.400 97.944 C 228.400 97.341,228.220 96.736,228.000 96.600 C 227.780 96.464,227.600 96.003,227.600 95.576 C 227.600 95.149,227.420 94.800,227.200 94.800 C 226.980 94.800,226.800 94.440,226.800 94.000 C 226.800 93.560,226.620 93.200,226.400 93.200 C 226.180 93.200,226.000 92.922,226.000 92.582 C 226.000 90.141,220.197 87.462,219.324 89.500 M187.200 108.791 C 186.709 109.102,186.551 110.827,186.329 118.285 C 185.971 130.303,186.083 129.953,182.917 128.986 C 182.651 128.904,182.140 127.827,181.781 126.593 L 181.128 124.347 178.264 124.409 C 176.689 124.443,174.818 124.345,174.107 124.191 C 172.622 123.870,172.000 124.839,172.000 127.476 C 172.000 128.845,171.954 128.891,170.800 128.660 C 169.901 128.480,169.600 128.568,169.600 129.010 C 169.600 129.335,169.255 129.600,168.834 129.600 C 168.173 129.600,168.030 129.191,167.787 126.594 C 167.632 124.941,167.368 123.504,167.201 123.400 C 166.914 123.223,166.810 125.093,166.544 135.200 C 166.483 137.510,166.331 140.300,166.206 141.400 C 165.972 143.461,167.155 145.980,167.897 145.000 C 168.064 144.780,168.560 144.548,169.000 144.484 C 169.775 144.372,171.065 143.881,172.495 143.153 C 172.877 142.959,173.516 142.800,173.915 142.800 C 174.314 142.800,174.819 142.621,175.038 142.402 C 175.256 142.184,176.597 141.892,178.018 141.755 C 179.438 141.617,180.999 141.256,181.486 140.952 C 181.973 140.649,183.164 140.400,184.132 140.400 L 185.891 140.400 186.146 138.544 C 186.286 137.523,186.402 135.768,186.405 134.644 C 186.412 132.175,186.758 130.727,187.266 131.041 C 187.472 131.168,188.281 130.968,189.065 130.596 C 190.731 129.805,192.330 129.563,192.633 130.054 C 192.751 130.244,192.657 130.400,192.424 130.400 C 192.191 130.400,192.000 130.561,192.000 130.758 C 192.000 130.955,192.694 131.081,193.542 131.038 C 194.766 130.975,195.050 131.088,194.920 131.585 C 194.830 131.930,194.948 132.659,195.183 133.206 C 195.538 134.031,195.587 133.809,195.472 131.900 C 195.396 130.635,195.474 129.600,195.645 129.600 C 196.066 129.600,195.591 118.300,195.150 117.820 C 194.957 117.611,194.800 117.133,194.800 116.758 C 194.800 116.002,193.173 112.677,192.700 112.467 C 192.535 112.393,192.400 112.096,192.400 111.807 C 192.400 110.052,188.648 107.876,187.200 108.791 M263.693 128.400 C 263.693 129.170,263.775 129.485,263.876 129.100 C 263.976 128.715,263.976 128.085,263.876 127.700 C 263.775 127.315,263.693 127.630,263.693 128.400 M198.669 148.111 C 198.785 148.299,198.983 148.351,199.108 148.225 C 199.234 148.100,199.762 148.277,200.284 148.618 C 201.195 149.215,201.212 149.208,200.727 148.431 C 200.435 147.964,199.850 147.654,199.340 147.697 C 198.855 147.737,198.553 147.924,198.669 148.111 M120.600 185.600 C 120.464 185.820,120.734 186.000,121.200 186.000 C 121.666 186.000,121.936 185.820,121.800 185.600 C 121.664 185.380,121.394 185.200,121.200 185.200 C 121.006 185.200,120.736 185.380,120.600 185.600 M227.775 189.700 L 226.600 191.000 227.900 189.825 C 228.615 189.179,229.200 188.594,229.200 188.525 C 229.200 188.216,228.870 188.488,227.775 189.700 M160.900 221.476 C 161.285 221.576,161.915 221.576,162.300 221.476 C 162.685 221.375,162.370 221.293,161.600 221.293 C 160.830 221.293,160.515 221.375,160.900 221.476 M157.900 224.293 C 158.835 224.377,160.365 224.377,161.300 224.293 C 162.235 224.209,161.470 224.140,159.600 224.140 C 157.730 224.140,156.965 224.209,157.900 224.293 " stroke="none" fill="#9dbef7" fill-rule="evenodd"></path></g></svg>