<svg id="svg" version="1.1" xmlns="http://www.w3.org/2000/svg" xmlns:xlink="http://www.w3.org/1999/xlink" width="400" height="400" viewBox="0, 0, 400,400"><g id="svgg"><path id="path0" d="M0.000 200.000 L 0.000 400.000 200.000 400.000 L 400.000 400.000 400.000 200.000 L 400.000 0.000 200.000 0.000 L 0.000 0.000 0.000 200.000 M121.705 158.387 C 149.771 162.159,166.470 190.038,156.195 215.966 C 146.397 240.690,114.096 250.381,92.480 235.082 C 88.756 232.446,96.535 213.284,105.254 203.613 C 107.546 201.072,106.704 200.846,112.894 205.660 C 115.793 207.913,118.432 209.759,118.760 209.761 C 120.135 209.771,128.554 200.195,133.211 193.325 C 134.945 190.766,136.444 188.672,136.541 188.672 C 136.638 188.672,137.573 189.287,138.620 190.039 C 139.667 190.791,140.634 191.406,140.769 191.406 C 141.132 191.406,141.070 188.456,140.610 183.902 C 139.954 177.408,140.761 177.812,133.985 180.584 C 127.362 183.293,127.427 183.227,130.078 184.570 C 131.152 185.115,132.031 185.725,132.031 185.927 C 132.031 187.264,120.087 203.069,118.663 203.615 C 118.384 203.722,116.071 202.166,113.522 200.158 C 106.895 194.937,106.948 194.938,102.335 199.940 C 94.363 208.584,87.500 222.168,87.500 229.302 C 87.500 232.084,82.156 226.021,78.727 219.349 C 63.410 189.548,88.522 153.927,121.705 158.387 M303.527 180.324 C 303.801 180.598,303.833 181.400,303.622 182.656 L 303.300 184.570 301.291 184.439 C 299.598 184.328,299.216 184.432,298.860 185.097 C 298.105 186.508,298.354 186.719,300.781 186.719 L 303.125 186.719 303.125 189.063 L 303.125 191.406 300.781 191.406 L 298.438 191.406 298.438 197.623 L 298.438 203.840 295.864 203.971 C 292.656 204.134,292.969 204.821,292.969 197.616 L 292.969 191.456 291.699 191.333 C 289.335 191.105,289.672 186.742,292.056 186.725 C 292.734 186.720,292.952 186.413,293.163 185.165 C 293.510 183.109,294.818 181.218,296.492 180.350 C 297.997 179.571,302.756 179.553,303.527 180.324 M200.391 182.380 C 200.391 184.957,200.190 185.156,197.599 185.156 C 195.112 185.156,194.531 184.648,194.531 182.473 C 194.531 180.087,194.543 180.078,197.721 180.078 L 200.391 180.078 200.391 182.380 M288.095 182.100 C 288.432 184.544,287.791 185.246,285.352 185.109 C 282.760 184.964,282.422 184.629,282.422 182.213 L 282.422 180.078 285.120 180.078 L 287.817 180.078 288.095 182.100 M192.108 183.496 L 192.225 185.938 186.737 185.938 L 181.250 185.938 181.250 188.281 L 181.250 190.625 186.133 190.625 L 191.016 190.625 191.016 192.969 L 191.016 195.313 186.146 195.313 L 181.276 195.313 181.165 199.707 L 181.055 204.102 178.320 204.099 L 175.586 204.097 175.482 192.470 L 175.379 180.844 183.686 180.949 L 191.992 181.055 192.108 183.496 M218.039 187.408 C 220.244 188.711,220.703 190.500,220.703 197.797 L 220.703 204.333 218.066 204.217 L 215.430 204.102 215.330 198.438 C 215.219 192.176,214.909 191.406,212.500 191.406 C 209.987 191.406,209.591 192.305,209.375 198.500 C 209.268 201.581,209.048 204.058,208.887 204.004 C 208.726 203.950,207.536 203.906,206.242 203.906 L 203.891 203.906 203.996 195.410 L 204.102 186.914 206.106 186.798 C 208.294 186.670,209.625 187.457,209.180 188.615 C 209.024 189.023,209.274 188.927,209.902 188.336 C 212.028 186.339,215.549 185.938,218.039 187.408 M234.367 186.754 C 238.884 187.722,239.917 189.920,239.759 198.227 L 239.648 204.072 237.598 204.030 C 234.702 203.971,234.766 203.993,234.766 203.064 C 234.766 202.287,234.713 202.270,234.081 202.842 C 230.076 206.466,223.122 203.748,223.554 198.727 C 223.827 195.554,225.540 194.345,230.708 193.678 C 234.430 193.198,235.159 192.595,233.570 191.309 C 232.406 190.366,230.372 190.604,229.060 191.836 C 228.211 192.633,228.034 192.655,226.284 192.185 C 223.811 191.519,223.720 191.400,224.600 189.953 C 226.289 187.175,230.264 185.874,234.367 186.754 M257.227 187.455 C 259.575 188.755,260.156 190.795,260.156 197.739 L 260.156 203.906 257.422 203.906 L 254.688 203.906 254.688 198.802 C 254.688 192.472,254.268 191.425,251.728 191.412 C 249.310 191.400,248.866 192.477,248.742 198.646 L 248.633 204.102 245.898 204.102 L 243.164 204.102 243.164 195.508 L 243.164 186.914 245.699 186.914 C 248.200 186.914,248.238 186.930,248.485 188.086 C 248.623 188.730,248.756 189.042,248.782 188.779 C 248.978 186.747,254.408 185.896,257.227 187.455 M276.036 187.529 C 277.630 188.301,279.688 190.611,279.688 191.630 C 279.688 191.869,278.645 192.379,277.371 192.765 L 275.055 193.467 274.101 192.358 C 271.806 189.690,268.359 191.560,268.359 195.473 C 268.359 199.377,271.743 201.088,274.221 198.436 C 274.824 197.790,275.553 197.342,275.842 197.440 C 276.131 197.538,277.114 197.809,278.027 198.043 C 280.046 198.559,280.152 199.241,278.555 201.446 C 275.510 205.650,267.179 205.315,264.289 200.873 C 258.898 192.587,267.141 183.223,276.036 187.529 M310.987 191.921 C 311.992 194.675,312.888 197.002,312.978 197.092 C 313.068 197.183,313.902 194.885,314.831 191.988 L 316.520 186.719 319.393 186.719 C 320.973 186.719,322.266 186.811,322.266 186.924 C 322.266 187.220,316.538 202.362,315.587 204.581 C 313.609 209.195,310.529 211.077,306.457 210.159 C 304.570 209.733,304.604 209.802,305.102 207.479 L 305.533 205.469 307.237 205.469 C 310.833 205.469,310.804 205.128,306.289 194.369 C 302.839 186.147,302.835 186.657,306.338 186.799 L 309.160 186.914 310.987 191.921 M200.391 195.508 L 200.391 203.906 197.656 203.906 L 194.922 203.906 194.922 195.508 L 194.922 187.109 197.656 187.109 L 200.391 187.109 200.391 195.508 M287.956 194.727 C 287.992 198.916,288.035 202.651,288.053 203.027 C 288.081 203.609,287.662 203.728,285.254 203.826 L 282.422 203.940 282.422 195.525 L 282.422 187.109 285.156 187.109 L 287.891 187.109 287.956 194.727 M134.165 199.121 C 132.924 200.786,130.969 203.230,129.821 204.552 L 127.734 206.956 127.734 221.447 C 127.734 233.852,127.816 235.938,128.301 235.938 C 129.352 235.938,135.345 233.144,136.051 232.326 C 136.669 231.609,137.145 196.094,136.536 196.094 C 136.474 196.094,135.407 197.456,134.165 199.121 M230.664 197.158 C 229.471 197.451,228.906 198.052,228.906 199.029 C 228.906 200.680,231.901 200.947,233.416 199.432 C 235.426 197.422,234.088 196.316,230.664 197.158 M105.827 209.462 C 104.940 210.585,103.705 212.242,103.084 213.146 L 101.953 214.789 101.953 224.884 L 101.953 234.979 104.590 235.828 C 106.040 236.295,107.694 236.774,108.264 236.892 C 108.835 237.010,109.582 237.213,109.925 237.345 C 110.487 237.561,110.547 236.208,110.547 223.316 L 110.547 209.048 109.231 208.235 C 107.515 207.174,107.684 207.113,105.827 209.462 M258.508 216.341 C 258.613 220.893,258.584 221.094,257.825 221.094 C 257.019 221.094,256.536 212.344,257.300 211.580 C 258.112 210.768,258.406 211.929,258.508 216.341 M121.712 213.102 C 119.834 214.761,118.287 214.864,116.384 213.460 L 115.039 212.468 114.936 225.043 C 114.879 231.960,114.912 237.698,115.008 237.794 C 115.104 237.891,117.040 237.843,119.310 237.688 L 123.438 237.407 123.438 224.563 C 123.438 217.499,123.394 211.726,123.340 211.735 C 123.286 211.744,122.554 212.359,121.712 213.102 M178.125 214.014 C 179.288 215.767,179.551 215.976,179.883 215.416 C 181.231 213.143,182.527 211.667,182.871 212.012 C 183.118 212.259,182.696 213.268,181.669 214.887 C 180.394 216.897,180.085 217.744,180.082 219.238 C 180.079 220.626,179.930 221.094,179.492 221.094 C 179.054 221.094,178.905 220.626,178.903 219.238 C 178.900 217.749,178.591 216.898,177.340 214.926 C 174.903 211.085,175.624 210.248,178.125 214.014 M213.086 212.500 C 213.086 212.946,212.503 213.114,210.645 213.202 L 208.203 213.319 208.203 214.667 L 208.203 216.016 210.547 216.016 C 212.370 216.016,212.891 216.146,212.891 216.602 C 212.891 217.057,212.370 217.188,210.547 217.188 L 208.203 217.188 208.203 219.141 C 208.203 220.616,208.060 221.094,207.617 221.094 C 207.129 221.094,207.031 220.311,207.031 216.390 L 207.031 211.686 210.059 211.800 C 212.438 211.890,213.086 212.039,213.086 212.500 M215.820 212.505 C 215.820 213.343,214.685 213.222,214.521 212.367 C 214.420 211.845,214.579 211.686,215.101 211.786 C 215.497 211.862,215.820 212.186,215.820 212.505 M248.364 212.398 C 248.168 213.416,246.875 213.530,246.875 212.529 C 246.875 211.970,247.126 211.719,247.685 211.719 C 248.244 211.719,248.454 211.929,248.364 212.398 M268.537 211.961 C 269.503 212.332,270.524 214.453,269.737 214.453 C 269.409 214.453,268.789 214.102,268.359 213.672 C 267.437 212.749,266.453 212.677,265.407 213.454 C 264.323 214.259,265.073 215.292,267.187 215.904 C 270.535 216.873,271.449 219.240,269.043 220.707 C 266.722 222.123,263.349 221.032,263.294 218.848 C 263.274 218.072,264.384 218.282,264.844 219.141 C 265.366 220.116,268.004 220.234,268.766 219.316 C 269.454 218.488,268.660 217.729,266.429 217.083 C 264.181 216.432,263.053 214.991,263.693 213.587 C 264.396 212.043,266.719 211.264,268.537 211.961 M308.984 216.016 C 308.984 218.379,309.028 220.442,309.082 220.600 C 309.136 220.758,308.872 220.947,308.496 221.019 C 307.876 221.139,307.813 220.716,307.813 216.435 C 307.813 212.503,307.910 211.719,308.398 211.719 C 308.884 211.719,308.984 212.457,308.984 216.016 M312.109 216.406 C 312.109 220.313,312.012 221.094,311.523 221.094 C 311.035 221.094,310.938 220.313,310.938 216.406 C 310.938 212.500,311.035 211.719,311.523 211.719 C 312.012 211.719,312.109 212.500,312.109 216.406 M273.438 213.477 C 273.438 214.193,273.646 214.453,274.219 214.453 C 274.653 214.453,275.000 214.714,275.000 215.039 C 275.000 215.365,274.653 215.625,274.219 215.625 C 273.532 215.625,273.438 215.885,273.438 217.773 C 273.438 219.661,273.532 219.922,274.219 219.922 C 274.667 219.922,275.000 220.182,275.000 220.533 C 275.000 220.986,274.674 221.112,273.730 221.021 L 272.461 220.898 272.345 218.262 C 272.260 216.322,272.086 215.625,271.685 215.625 C 270.763 215.625,270.575 214.804,271.445 214.577 C 271.989 214.434,272.266 214.048,272.266 213.431 C 272.266 212.864,272.495 212.500,272.852 212.500 C 273.216 212.500,273.438 212.869,273.438 213.477 M297.656 213.477 C 297.656 214.193,297.865 214.453,298.438 214.453 C 298.872 214.453,299.219 214.714,299.219 215.039 C 299.219 215.365,298.872 215.625,298.438 215.625 C 297.751 215.625,297.656 215.885,297.656 217.773 C 297.656 219.661,297.751 219.922,298.438 219.922 C 298.872 219.922,299.219 220.182,299.219 220.508 C 299.219 221.159,297.081 221.353,296.700 220.736 C 296.579 220.540,296.369 219.319,296.233 218.023 C 296.083 216.583,295.780 215.588,295.454 215.463 C 294.737 215.188,294.776 214.453,295.508 214.453 C 295.830 214.453,296.094 214.131,296.094 213.737 C 296.094 212.889,296.421 212.500,297.135 212.500 C 297.431 212.500,297.656 212.923,297.656 213.477 M188.574 215.331 C 189.581 216.271,189.775 218.880,188.921 220.004 C 187.492 221.885,184.472 221.608,183.380 219.496 C 181.473 215.809,185.568 212.526,188.574 215.331 M201.953 214.844 C 201.953 215.336,201.693 215.625,201.250 215.625 C 200.047 215.625,199.609 216.479,199.609 218.828 C 199.609 220.582,199.477 221.094,199.023 221.094 C 198.549 221.094,198.438 220.467,198.438 217.800 L 198.438 214.505 199.615 214.539 C 200.262 214.557,200.907 214.458,201.047 214.317 C 201.537 213.827,201.953 214.069,201.953 214.844 M222.479 215.021 C 223.802 216.345,223.941 221.094,222.656 221.094 C 221.956 221.094,221.875 220.833,221.875 218.568 C 221.875 215.650,221.139 214.777,219.592 215.861 C 218.890 216.352,218.750 216.838,218.750 218.772 C 218.750 220.575,218.619 221.094,218.164 221.094 C 217.690 221.094,217.578 220.467,217.578 217.800 L 217.578 214.505 218.756 214.539 C 219.403 214.557,220.048 214.458,220.188 214.317 C 220.688 213.817,221.535 214.077,222.479 215.021 M229.030 214.512 C 230.767 215.426,231.341 221.413,229.648 220.970 C 229.197 220.852,228.445 220.930,227.977 221.143 C 225.761 222.153,223.540 219.388,225.375 217.903 C 225.861 217.509,226.722 217.185,227.289 217.182 C 228.920 217.172,229.487 216.652,228.712 215.877 C 227.923 215.089,227.696 215.081,226.735 215.808 C 225.756 216.548,225.000 216.559,225.000 215.833 C 225.000 214.608,227.595 213.757,229.030 214.512 M237.402 215.153 C 237.868 215.745,237.969 216.352,237.969 218.555 C 237.969 220.704,237.867 221.094,237.305 221.094 C 236.844 221.094,236.719 220.553,236.719 218.568 C 236.719 215.650,235.983 214.777,234.435 215.861 C 233.734 216.352,233.594 216.838,233.594 218.772 C 233.594 220.833,233.506 221.094,232.813 221.094 C 232.093 221.094,232.031 220.833,232.031 217.785 L 232.031 214.477 233.400 214.528 C 234.153 214.557,234.887 214.462,235.032 214.317 C 235.416 213.933,236.837 214.434,237.402 215.153 M245.035 215.314 C 246.092 216.564,245.246 217.060,243.835 216.017 C 242.464 215.003,241.184 215.406,240.790 216.975 C 240.235 219.186,241.897 220.849,243.567 219.754 C 244.690 219.019,245.828 218.949,245.617 219.629 C 245.064 221.412,241.248 221.666,239.986 220.004 C 237.492 216.723,242.385 212.178,245.035 215.314 M254.510 215.021 C 256.042 216.554,255.956 221.099,254.395 221.122 C 253.804 221.131,252.754 221.154,252.061 221.173 C 248.575 221.267,248.752 217.785,252.262 217.214 C 253.163 217.068,253.749 216.739,253.827 216.336 C 254.013 215.370,252.550 215.082,251.373 215.853 C 250.276 216.571,249.769 216.400,250.138 215.437 C 250.706 213.959,253.210 213.721,254.510 215.021 M280.592 214.517 C 281.923 215.226,282.397 216.081,282.397 217.773 C 282.397 222.257,276.592 222.740,275.946 218.310 C 275.528 215.441,278.212 213.250,280.592 214.517 M287.695 214.844 C 287.695 215.160,287.344 215.484,286.914 215.564 C 285.486 215.829,285.156 216.436,285.156 218.798 C 285.156 220.578,285.025 221.094,284.570 221.094 C 284.095 221.094,283.984 220.460,283.984 217.731 L 283.984 214.368 284.937 214.608 C 285.461 214.739,286.005 214.660,286.145 214.433 C 286.510 213.843,287.695 214.158,287.695 214.844 M290.654 217.264 L 291.550 219.660 292.218 217.694 C 293.062 215.210,293.674 214.063,294.154 214.063 C 294.798 214.063,294.583 214.966,292.995 218.928 C 291.274 223.222,291.173 223.372,289.879 223.524 C 288.589 223.676,288.393 222.743,289.617 222.278 C 290.918 221.783,290.894 221.072,289.457 217.588 C 288.309 214.803,288.229 213.600,289.249 214.446 C 289.529 214.678,290.161 215.946,290.654 217.264 M304.746 214.485 C 305.618 214.951,306.798 217.398,306.435 217.986 C 306.308 218.191,305.160 218.359,303.883 218.359 C 302.066 218.359,301.563 218.488,301.563 218.954 C 301.563 220.039,303.342 220.516,304.518 219.746 C 305.843 218.877,306.592 219.491,305.459 220.517 C 304.209 221.648,302.053 221.484,300.926 220.174 C 298.479 217.329,301.541 212.769,304.746 214.485 M318.938 214.941 C 319.544 215.467,319.984 216.292,320.034 216.992 L 320.117 218.164 317.676 218.280 C 315.060 218.405,314.428 219.072,316.086 219.959 C 316.773 220.327,317.186 220.281,318.236 219.715 C 319.824 218.860,320.381 219.246,319.225 220.401 C 317.965 221.662,315.786 221.554,314.598 220.174 C 311.876 217.009,315.829 212.244,318.938 214.941 M325.195 214.871 C 325.195 215.172,324.844 215.484,324.414 215.564 C 322.986 215.829,322.656 216.436,322.656 218.798 C 322.656 220.578,322.525 221.094,322.070 221.094 C 321.596 221.094,321.484 220.467,321.484 217.800 L 321.484 214.505 322.662 214.539 C 323.309 214.557,323.958 214.454,324.102 214.309 C 324.507 213.904,325.195 214.258,325.195 214.871 M192.188 216.978 C 192.188 219.897,192.923 220.770,194.471 219.686 C 195.172 219.195,195.313 218.709,195.313 216.775 C 195.313 214.971,195.443 214.453,195.898 214.453 C 196.356 214.453,196.486 214.987,196.490 216.895 C 196.493 218.237,196.600 219.727,196.728 220.205 C 196.938 220.990,196.816 221.076,195.453 221.098 C 194.624 221.112,193.529 221.133,193.021 221.147 C 191.271 221.192,189.731 216.605,190.876 214.754 C 191.589 213.600,192.188 214.614,192.188 216.978 M215.625 217.773 C 215.625 220.464,215.514 221.094,215.039 221.094 C 214.564 221.094,214.453 220.464,214.453 217.773 C 214.453 215.082,214.564 214.453,215.039 214.453 C 215.514 214.453,215.625 215.082,215.625 217.773 M248.438 217.773 C 248.438 220.833,248.376 221.094,247.656 221.094 C 246.936 221.094,246.875 220.833,246.875 217.773 C 246.875 214.714,246.936 214.453,247.656 214.453 C 248.376 214.453,248.438 214.714,248.438 217.773 M184.989 215.848 C 183.679 217.158,184.687 220.313,186.415 220.313 C 187.088 220.313,188.281 218.689,188.281 217.773 C 188.281 215.850,186.202 214.635,184.989 215.848 M278.212 215.842 C 276.953 216.724,277.013 218.906,278.320 219.762 C 280.490 221.184,282.366 217.913,280.469 216.016 C 279.528 215.075,279.329 215.060,278.212 215.842 M302.176 215.848 C 301.173 216.851,301.461 217.188,303.320 217.188 C 304.287 217.188,305.078 217.024,305.078 216.825 C 305.078 216.279,303.923 215.234,303.320 215.234 C 303.029 215.234,302.514 215.511,302.176 215.848 M316.109 215.495 C 314.428 216.172,314.833 217.188,316.783 217.188 C 318.250 217.188,318.750 217.042,318.750 216.615 C 318.750 215.682,317.237 215.040,316.109 215.495 M171.094 217.383 C 171.094 217.715,170.714 217.990,170.215 218.018 C 166.956 218.202,166.615 218.152,166.483 217.480 C 166.367 216.890,166.671 216.797,168.721 216.797 C 170.570 216.797,171.094 216.926,171.094 217.383 M227.470 218.241 C 226.161 218.496,225.643 219.321,226.400 219.949 C 227.168 220.587,229.015 219.731,229.225 218.639 C 229.354 217.972,229.122 217.919,227.470 218.241 M252.665 218.246 C 251.217 218.467,250.593 219.280,251.374 219.927 C 252.205 220.618,253.906 219.832,253.906 218.758 C 253.906 218.324,253.862 217.995,253.809 218.027 C 253.755 218.059,253.240 218.158,252.665 218.246 " stroke="none" fill="#d6eef8" fill-rule="evenodd"></path><path id="path1" d="M112.463 162.510 C 83.323 165.956,68.086 200.312,85.744 222.754 C 87.975 225.589,87.903 225.611,89.046 221.775 C 92.298 210.875,104.314 194.586,108.084 195.970 C 108.472 196.112,110.723 197.723,113.086 199.550 C 115.449 201.377,117.608 203.042,117.883 203.251 C 118.785 203.936,124.461 197.365,129.172 190.181 C 132.138 185.658,132.125 185.805,129.688 184.570 C 127.131 183.275,127.192 183.109,130.762 181.638 C 132.427 180.952,135.016 179.881,136.516 179.258 C 140.592 177.565,140.206 177.031,141.018 185.491 C 141.674 192.321,141.562 192.547,138.645 190.322 L 136.578 188.746 133.475 193.299 C 129.001 199.865,120.069 210.156,118.845 210.156 C 118.616 210.156,117.458 209.409,116.273 208.496 C 115.087 207.583,112.698 205.737,110.963 204.395 C 107.197 201.480,107.487 201.513,105.393 203.744 C 99.068 210.478,91.393 226.036,92.707 229.461 C 92.969 230.142,96.735 232.728,99.512 234.132 L 101.563 235.169 101.563 225.068 L 101.563 214.966 103.498 212.268 C 104.563 210.784,105.938 208.977,106.555 208.252 L 107.676 206.935 109.070 207.848 C 110.897 209.046,110.920 209.295,110.648 224.842 C 110.519 232.159,110.575 237.471,110.781 237.599 C 110.975 237.719,111.890 237.871,112.814 237.938 L 114.495 238.060 114.464 225.355 C 114.430 211.176,114.335 211.736,116.504 213.307 C 118.600 214.826,119.469 214.755,121.587 212.891 C 122.563 212.031,123.472 211.328,123.605 211.328 C 123.739 211.328,123.800 217.221,123.741 224.424 L 123.633 237.520 124.805 237.265 C 125.449 237.125,126.372 236.861,126.855 236.679 L 127.734 236.347 127.734 221.542 L 127.734 206.736 130.134 203.871 C 131.454 202.295,133.431 199.772,134.529 198.263 L 136.523 195.520 136.719 213.975 L 136.914 232.429 138.867 231.111 C 159.188 217.399,160.056 186.320,140.551 170.800 C 132.836 164.661,121.805 161.405,112.463 162.510 M297.164 180.224 C 294.641 181.162,293.359 183.008,293.359 185.704 C 293.359 187.050,293.301 187.109,291.992 187.109 L 290.625 187.109 290.625 189.038 C 290.625 190.928,290.650 190.969,291.895 191.089 L 293.164 191.211 293.271 197.559 L 293.379 203.906 295.908 203.906 L 298.438 203.906 298.438 197.461 L 298.438 191.016 300.586 191.016 L 302.734 191.016 302.734 189.063 L 302.734 187.109 300.586 187.109 C 298.560 187.109,298.438 187.054,298.438 186.142 C 298.438 184.782,300.004 183.825,301.708 184.145 C 303.142 184.414,303.498 183.903,303.510 181.566 C 303.519 179.911,300.005 179.167,297.164 180.224 M195.080 180.619 C 194.966 180.917,194.928 181.928,194.995 182.865 L 195.117 184.570 197.520 184.686 L 199.922 184.801 200.059 182.828 C 200.134 181.743,200.137 180.680,200.065 180.466 C 199.855 179.841,195.326 179.980,195.080 180.619 M282.666 180.679 C 281.614 183.419,282.574 184.834,285.388 184.689 L 287.695 184.570 287.695 182.422 L 287.695 180.273 285.302 180.158 C 283.382 180.066,282.861 180.169,282.666 180.679 M175.781 192.578 L 175.781 203.906 178.308 203.906 L 180.834 203.906 180.944 199.543 L 181.055 195.180 186.035 195.274 L 191.016 195.368 191.016 193.248 L 191.016 191.129 188.379 190.880 C 186.929 190.743,184.635 190.629,183.282 190.628 L 180.822 190.625 180.938 188.184 L 181.055 185.742 186.426 185.742 L 191.798 185.742 191.797 183.496 L 191.797 181.250 183.789 181.250 L 175.781 181.250 175.781 192.578 M212.109 187.157 C 211.572 187.370,210.649 188.007,210.059 188.572 L 208.984 189.599 208.984 188.354 L 208.984 187.109 206.438 187.109 L 203.891 187.109 203.996 195.410 L 204.102 203.711 206.738 203.826 L 209.375 203.942 209.375 198.529 C 209.375 192.711,209.646 191.869,211.734 191.206 C 214.570 190.306,215.625 192.377,215.625 198.847 L 215.625 203.906 218.203 203.906 L 220.782 203.906 220.633 197.363 C 220.418 187.877,217.895 184.856,212.109 187.157 M228.320 187.282 C 226.839 187.828,224.219 190.191,224.219 190.981 C 224.219 192.057,228.141 192.526,229.103 191.564 C 230.749 189.918,234.375 190.469,234.375 192.366 C 234.375 193.389,234.056 193.502,229.883 193.957 C 224.597 194.533,221.994 198.114,224.324 201.602 C 226.395 204.702,231.136 205.217,233.887 202.640 L 234.766 201.817 234.766 202.862 C 234.766 203.878,234.829 203.906,237.109 203.906 L 239.453 203.906 239.453 197.519 C 239.453 190.517,239.209 189.670,236.647 187.772 C 235.252 186.739,230.543 186.462,228.320 187.282 M251.172 187.158 C 250.635 187.372,249.822 187.898,249.365 188.328 L 248.534 189.108 248.283 188.109 C 248.049 187.176,247.876 187.109,245.696 187.109 L 243.359 187.109 243.359 195.508 L 243.359 203.906 245.869 203.906 L 248.378 203.906 248.506 198.447 C 248.618 193.605,248.721 192.900,249.415 192.207 C 250.650 190.974,252.362 190.806,253.619 191.795 L 254.688 192.635 254.688 198.271 L 254.688 203.906 257.227 203.906 L 259.766 203.906 259.766 197.323 C 259.766 188.104,257.001 184.833,251.172 187.158 M267.770 187.447 C 259.526 191.193,262.395 204.306,271.457 204.295 C 275.568 204.290,280.718 200.812,279.509 198.856 C 278.929 197.917,275.294 197.531,274.651 198.339 C 271.668 202.087,266.864 198.587,268.320 193.726 C 269.186 190.837,272.217 190.045,274.216 192.185 C 275.400 193.452,275.157 193.461,279.213 191.993 C 279.851 191.762,279.031 190.060,277.669 188.788 C 275.429 186.697,270.802 186.070,267.770 187.447 M194.922 195.508 L 194.922 203.906 197.461 203.906 L 200.000 203.906 200.000 195.508 L 200.000 187.109 197.461 187.109 L 194.922 187.109 194.922 195.508 M282.813 195.508 L 282.813 203.906 285.352 203.906 L 287.891 203.906 287.891 195.508 L 287.891 187.109 285.352 187.109 L 282.813 187.109 282.813 195.508 M304.256 188.948 C 304.665 189.978,306.159 193.602,307.578 197.001 C 310.808 204.744,310.735 206.104,307.105 205.791 C 305.790 205.678,305.650 205.764,305.421 206.838 C 304.877 209.379,304.986 209.713,306.448 209.987 C 310.545 210.756,313.643 208.825,315.443 204.382 C 317.277 199.853,321.875 187.719,321.875 187.407 C 321.875 187.243,320.681 187.109,319.222 187.109 L 316.569 187.109 314.848 192.370 C 313.901 195.264,313.031 197.536,312.914 197.419 C 312.797 197.302,311.908 194.979,310.938 192.256 L 309.174 187.305 306.344 187.190 L 303.514 187.075 304.256 188.948 M234.375 197.588 C 234.375 199.774,231.317 201.427,229.489 200.229 C 227.704 199.059,228.565 197.437,231.250 196.913 C 234.213 196.335,234.375 196.370,234.375 197.588 M214.714 211.979 C 214.264 212.429,214.429 212.891,215.039 212.891 C 215.361 212.891,215.625 212.627,215.625 212.305 C 215.625 211.695,215.163 211.530,214.714 211.979 M247.049 212.143 C 246.905 212.377,246.990 212.771,247.238 213.019 C 247.728 213.509,248.569 212.638,248.193 212.030 C 247.920 211.589,247.358 211.644,247.049 212.143 M257.422 216.406 C 257.422 219.271,257.574 221.094,257.813 221.094 C 258.051 221.094,258.203 219.271,258.203 216.406 C 258.203 213.542,258.051 211.719,257.813 211.719 C 257.574 211.719,257.422 213.542,257.422 216.406 M265.713 211.989 C 262.661 212.599,263.223 215.753,266.596 216.946 C 268.210 217.517,268.980 218.008,269.080 218.529 C 269.407 220.229,266.251 220.952,264.888 219.489 C 264.466 219.036,263.893 218.741,263.615 218.834 C 262.472 219.215,265.118 221.094,266.797 221.094 C 271.116 221.094,271.401 217.458,267.188 216.115 C 265.463 215.565,265.013 215.246,264.907 214.497 C 264.671 212.824,267.402 212.220,268.645 213.672 C 269.420 214.577,269.922 214.678,269.922 213.928 C 269.922 212.672,267.614 211.609,265.713 211.989 M308.160 211.891 C 307.832 212.216,308.273 221.094,308.617 221.094 C 309.079 221.094,309.109 212.233,308.648 211.948 C 308.463 211.833,308.244 211.808,308.160 211.891 M311.116 212.209 C 310.687 213.325,311.119 220.830,311.621 220.997 C 312.237 221.201,312.330 212.292,311.716 211.912 C 311.500 211.779,311.229 211.912,311.116 212.209 M177.219 214.355 C 178.273 215.974,178.740 217.177,178.891 218.662 C 179.007 219.796,179.277 220.723,179.492 220.723 C 179.707 220.723,179.972 219.796,180.081 218.662 C 180.218 217.232,180.646 216.064,181.479 214.844 C 183.259 212.237,183.315 212.109,182.669 212.109 C 182.350 212.109,181.522 213.100,180.829 214.311 L 179.570 216.512 178.203 214.311 C 177.452 213.100,176.594 212.109,176.297 212.109 C 175.945 212.109,176.265 212.889,177.219 214.355 M207.116 216.504 C 207.228 220.944,207.897 222.625,208.127 219.043 L 208.246 217.188 210.373 217.188 C 211.543 217.188,212.500 217.012,212.500 216.797 C 212.500 216.582,211.533 216.406,210.352 216.406 L 208.203 216.406 208.203 214.648 L 208.203 212.891 210.547 212.891 C 211.849 212.891,212.891 212.717,212.891 212.500 C 212.891 212.274,211.649 212.109,209.948 212.109 L 207.006 212.109 207.116 216.504 M272.266 213.672 C 272.266 214.106,272.005 214.453,271.680 214.453 C 271.357 214.453,271.094 214.629,271.094 214.844 C 271.094 215.059,271.357 215.234,271.680 215.234 C 272.130 215.234,272.266 215.736,272.266 217.408 C 272.266 220.065,272.760 221.094,274.037 221.094 C 275.193 221.094,275.316 220.486,274.219 220.199 C 273.545 220.023,273.438 219.666,273.438 217.615 C 273.438 215.495,273.523 215.234,274.219 215.234 C 274.648 215.234,275.000 215.059,275.000 214.844 C 275.000 214.629,274.648 214.453,274.219 214.453 C 273.698 214.453,273.438 214.193,273.438 213.672 C 273.438 213.238,273.177 212.891,272.852 212.891 C 272.526 212.891,272.266 213.238,272.266 213.672 M296.484 213.672 C 296.484 214.106,296.224 214.453,295.898 214.453 C 295.576 214.453,295.313 214.629,295.313 214.844 C 295.313 215.059,295.576 215.234,295.898 215.234 C 296.357 215.234,296.484 215.768,296.484 217.695 C 296.484 220.344,296.889 221.094,298.320 221.094 C 299.465 221.094,299.475 220.610,298.340 220.112 C 297.056 219.549,296.780 215.234,298.027 215.234 C 298.468 215.234,298.828 215.059,298.828 214.844 C 298.828 214.629,298.477 214.453,298.047 214.453 C 297.526 214.453,297.266 214.193,297.266 213.672 C 297.266 213.242,297.090 212.891,296.875 212.891 C 296.660 212.891,296.484 213.242,296.484 213.672 M184.013 215.482 C 182.251 217.722,183.643 221.094,186.328 221.094 C 187.829 221.094,189.453 219.570,189.453 218.162 C 189.453 214.860,185.885 213.102,184.013 215.482 M191.016 217.127 C 191.016 220.612,192.999 222.392,194.893 220.605 C 195.307 220.215,195.446 220.215,195.589 220.605 C 196.092 221.976,196.484 220.735,196.484 217.773 C 196.484 215.820,196.324 214.453,196.094 214.453 C 195.879 214.453,195.703 215.381,195.703 216.515 C 195.703 218.925,194.915 220.313,193.546 220.313 C 192.293 220.313,191.797 219.266,191.797 216.627 C 191.797 215.431,191.621 214.453,191.406 214.453 C 191.184 214.453,191.016 215.605,191.016 217.127 M198.438 217.773 C 198.438 219.727,198.598 221.094,198.828 221.094 C 199.043 221.094,199.219 220.127,199.219 218.945 C 199.219 216.711,200.074 215.234,201.367 215.234 C 201.689 215.234,201.953 215.059,201.953 214.844 C 201.953 214.292,200.648 214.358,200.029 214.941 C 199.615 215.332,199.476 215.332,199.333 214.941 C 198.830 213.570,198.438 214.812,198.438 217.773 M214.757 214.746 C 214.470 215.379,214.927 221.094,215.265 221.094 C 215.463 221.094,215.625 219.600,215.625 217.773 C 215.625 214.944,215.254 213.650,214.757 214.746 M217.578 217.773 C 217.578 219.727,217.739 221.094,217.969 221.094 C 218.184 221.094,218.359 220.314,218.359 219.361 C 218.359 216.930,218.919 215.695,220.164 215.383 C 221.646 215.011,222.266 216.027,222.266 218.825 C 222.266 220.077,222.441 221.094,222.656 221.094 C 223.333 221.094,223.136 215.770,222.433 215.067 C 221.697 214.331,219.890 214.262,219.170 214.941 C 218.756 215.332,218.617 215.332,218.473 214.941 C 217.971 213.570,217.578 214.812,217.578 217.773 M225.727 215.221 C 224.979 215.844,224.930 215.992,225.465 216.003 C 225.829 216.010,226.234 215.840,226.367 215.625 C 226.701 215.085,228.260 215.135,228.828 215.703 C 229.692 216.567,229.310 217.083,227.641 217.307 C 225.475 217.597,224.330 218.861,225.132 220.076 C 225.755 221.020,227.341 221.332,228.465 220.730 C 229.032 220.427,229.279 220.446,229.407 220.804 C 229.793 221.883,230.180 220.584,230.186 218.190 C 230.196 214.522,228.179 213.179,225.727 215.221 M232.422 217.773 C 232.422 219.727,232.583 221.094,232.813 221.094 C 233.027 221.094,233.203 220.166,233.203 219.032 C 233.203 216.604,233.989 215.234,235.383 215.234 C 236.573 215.234,237.109 216.455,237.109 219.166 C 237.109 220.226,237.285 221.094,237.500 221.094 C 238.254 221.094,237.969 215.817,237.176 215.100 C 236.331 214.334,234.741 214.255,234.014 214.941 C 233.600 215.332,233.460 215.332,233.317 214.941 C 232.814 213.570,232.422 214.812,232.422 217.773 M240.571 215.200 C 238.423 216.939,239.807 221.094,242.534 221.094 C 243.631 221.094,245.313 220.135,245.313 219.509 C 245.313 218.951,244.548 219.068,243.890 219.727 C 242.539 221.077,240.625 219.950,240.625 217.806 C 240.625 215.610,242.341 214.643,244.079 215.860 C 245.226 216.664,245.651 216.256,244.729 215.237 C 243.820 214.232,241.788 214.214,240.571 215.200 M247.266 217.773 C 247.266 219.727,247.426 221.094,247.656 221.094 C 247.886 221.094,248.047 219.727,248.047 217.773 C 248.047 215.820,247.886 214.453,247.656 214.453 C 247.426 214.453,247.266 215.820,247.266 217.773 M250.621 215.196 C 250.242 215.614,250.111 216.038,250.321 216.168 C 250.525 216.294,250.910 216.136,251.175 215.816 C 252.085 214.720,254.297 215.332,254.297 216.680 C 254.297 216.959,253.884 217.188,253.379 217.188 C 251.967 217.188,250.089 217.954,249.827 218.637 C 249.181 220.320,251.666 221.693,253.541 220.689 C 254.062 220.411,254.297 220.411,254.297 220.689 C 254.297 220.912,254.473 221.094,254.688 221.094 C 255.364 221.094,255.167 215.770,254.464 215.067 C 253.610 214.213,251.445 214.285,250.621 215.196 M277.021 215.357 C 275.830 216.625,275.857 219.100,277.076 220.244 C 279.286 222.321,282.706 220.494,282.299 217.455 C 281.915 214.596,278.872 213.387,277.021 215.357 M283.984 217.773 C 283.984 220.464,284.095 221.094,284.570 221.094 C 285.032 221.094,285.156 220.547,285.156 218.521 C 285.156 216.021,285.189 215.935,286.328 215.505 C 286.973 215.262,287.500 214.926,287.500 214.758 C 287.500 214.282,286.147 214.400,285.625 214.922 C 285.260 215.286,285.156 215.286,285.156 214.922 C 285.156 214.664,284.893 214.453,284.570 214.453 C 284.095 214.453,283.984 215.082,283.984 217.773 M288.672 214.865 C 288.672 215.092,289.209 216.539,289.865 218.081 C 291.111 221.009,291.036 222.656,289.657 222.656 C 289.330 222.656,289.063 222.832,289.063 223.047 C 289.063 223.626,290.461 223.520,290.973 222.902 C 291.566 222.188,294.578 214.760,294.362 214.544 C 293.938 214.120,293.355 215.049,292.577 217.387 C 291.547 220.482,291.694 220.495,290.430 217.188 C 289.507 214.773,288.672 213.670,288.672 214.865 M301.172 215.234 C 298.241 218.165,302.419 223.012,305.523 220.283 L 306.445 219.472 305.469 219.728 C 302.954 220.389,302.684 220.388,301.939 219.714 C 300.505 218.416,300.960 217.969,303.711 217.969 C 305.928 217.969,306.250 217.876,306.250 217.240 C 306.250 214.889,302.857 213.549,301.172 215.234 M315.131 214.941 C 313.464 216.207,313.532 219.792,315.240 220.706 C 316.425 221.340,318.210 221.149,319.195 220.283 L 320.117 219.472 319.141 219.728 C 316.626 220.389,316.356 220.388,315.611 219.714 C 314.177 218.416,314.632 217.969,317.383 217.969 C 319.780 217.969,319.922 217.918,319.922 217.060 C 319.922 215.075,316.784 213.687,315.131 214.941 M321.777 214.746 C 321.385 215.545,321.716 220.843,322.168 220.995 C 322.526 221.115,322.656 220.465,322.656 218.553 C 322.656 216.017,322.687 215.936,323.828 215.505 C 324.473 215.262,325.000 214.926,325.000 214.758 C 325.000 214.282,323.647 214.400,323.125 214.922 C 322.760 215.286,322.656 215.286,322.656 214.922 C 322.656 214.408,322.007 214.278,321.777 214.746 M187.667 215.848 C 188.005 216.186,188.281 217.052,188.281 217.773 C 188.281 220.145,185.853 221.244,184.592 219.444 C 182.884 217.005,185.622 213.802,187.667 215.848 M280.636 215.848 C 281.610 216.822,281.568 219.046,280.561 219.824 C 279.066 220.979,276.953 219.777,276.953 217.773 C 276.953 215.698,279.273 214.485,280.636 215.848 M304.984 216.309 C 305.562 217.185,305.558 217.188,303.345 217.188 C 301.088 217.188,301.004 217.088,302.078 215.703 C 302.659 214.954,304.318 215.300,304.984 216.309 M318.426 215.881 C 319.573 216.918,319.277 217.188,316.992 217.188 C 314.760 217.188,314.417 216.889,315.458 215.848 C 316.254 215.052,317.526 215.066,318.426 215.881 M166.406 217.578 C 166.406 217.795,167.448 217.969,168.750 217.969 C 170.052 217.969,171.094 217.795,171.094 217.578 C 171.094 217.361,170.052 217.188,168.750 217.188 C 167.448 217.188,166.406 217.361,166.406 217.578 M229.297 218.736 C 229.297 220.145,226.390 220.945,225.901 219.670 C 225.582 218.840,226.759 217.969,228.200 217.969 C 229.030 217.969,229.297 218.155,229.297 218.736 M254.297 218.527 C 254.297 219.393,253.170 220.313,252.108 220.313 C 250.865 220.313,250.417 219.201,251.378 218.498 C 252.353 217.786,254.297 217.805,254.297 218.527 " stroke="none" fill="#165e69" fill-rule="evenodd"></path><path id="path2" d="M108.789 159.065 C 76.881 165.706,63.726 203.180,84.717 227.637 C 86.893 230.172,86.904 230.172,87.437 227.518 L 87.873 225.348 85.831 222.871 C 73.059 207.373,76.657 182.779,93.555 170.078 C 94.844 169.109,96.173 168.092,96.509 167.818 C 97.186 167.266,103.248 164.603,105.200 164.000 C 110.350 162.409,119.081 161.880,123.543 162.887 C 126.383 163.528,130.868 164.908,132.003 165.490 C 132.525 165.757,133.096 165.886,133.273 165.777 C 133.449 165.668,133.594 165.733,133.594 165.921 C 133.594 166.109,134.341 166.671,135.254 167.171 C 139.886 169.706,145.616 175.044,148.690 179.688 C 150.187 181.950,152.344 186.235,152.344 186.948 C 152.344 187.251,152.482 187.500,152.651 187.500 C 152.820 187.500,152.988 187.892,153.024 188.372 C 153.061 188.852,153.257 189.599,153.460 190.032 C 154.556 192.369,155.224 207.199,154.261 207.824 C 154.086 207.938,153.898 208.685,153.844 209.485 C 153.791 210.284,153.607 210.938,153.436 210.938 C 153.265 210.938,153.125 211.307,153.125 211.759 C 153.125 212.821,150.430 218.571,148.868 220.841 C 148.201 221.809,147.656 222.714,147.656 222.852 C 147.656 222.990,146.206 224.550,144.434 226.318 C 138.783 231.956,133.520 235.034,125.977 237.112 C 116.001 239.860,102.697 237.358,94.567 231.204 C 92.371 229.543,92.335 229.557,91.979 232.249 L 91.724 234.180 94.397 235.764 C 123.207 252.838,158.591 233.182,158.593 200.103 C 158.594 194.642,158.396 193.412,156.571 187.541 C 152.377 174.045,141.404 163.679,127.148 159.745 C 123.554 158.753,112.292 158.336,108.789 159.065 " stroke="none" fill="#adf046" fill-rule="evenodd"></path><path id="path3" d="M140.333 181.055 C 140.337 181.914,140.417 182.220,140.511 181.734 C 140.604 181.248,140.601 180.545,140.503 180.171 C 140.405 179.798,140.329 180.195,140.333 181.055 M194.792 180.339 C 194.434 180.697,194.462 184.286,194.824 184.510 C 194.985 184.610,195.117 183.653,195.117 182.385 C 195.117 181.116,195.103 180.078,195.085 180.078 C 195.067 180.078,194.935 180.195,194.792 180.339 M175.391 192.352 C 175.391 198.681,175.522 203.942,175.684 204.042 C 175.845 204.141,175.928 199.054,175.868 192.736 L 175.759 181.250 183.759 181.250 L 191.760 181.250 191.904 183.496 L 192.048 185.742 192.020 183.398 L 191.992 181.055 183.691 180.949 L 175.391 180.844 175.391 192.352 M200.112 183.008 C 200.115 184.082,200.191 184.475,200.280 183.881 C 200.370 183.288,200.368 182.409,200.275 181.928 C 200.182 181.448,200.109 181.934,200.112 183.008 M287.860 183.300 C 287.743 184.140,287.803 184.619,288.000 184.422 C 288.188 184.234,288.279 183.575,288.202 182.958 C 288.074 181.925,288.046 181.952,287.860 183.300 M140.724 184.961 C 140.728 185.820,140.808 186.126,140.901 185.640 C 140.995 185.154,140.991 184.451,140.893 184.077 C 140.796 183.704,140.719 184.102,140.724 184.961 M196.582 185.045 C 197.173 185.135,198.140 185.135,198.730 185.045 C 199.321 184.956,198.838 184.883,197.656 184.883 C 196.475 184.883,195.991 184.956,196.582 185.045 M285.063 185.042 C 285.549 185.135,286.252 185.132,286.626 185.034 C 286.999 184.936,286.602 184.860,285.742 184.864 C 284.883 184.868,284.577 184.948,285.063 185.042 M292.969 185.912 C 292.969 186.436,292.640 186.717,291.895 186.830 C 290.895 186.981,290.908 186.996,292.090 187.051 C 293.199 187.102,293.359 186.986,293.359 186.133 C 293.359 185.596,293.271 185.156,293.164 185.156 C 293.057 185.156,292.969 185.496,292.969 185.912 M181.020 186.082 C 180.907 186.376,180.880 187.562,180.960 188.718 L 181.105 190.820 181.178 188.391 L 181.250 185.961 186.230 185.839 L 191.211 185.717 186.218 185.632 C 182.293 185.565,181.182 185.661,181.020 186.082 M231.348 186.597 C 231.724 186.696,232.339 186.696,232.715 186.597 C 233.091 186.499,232.783 186.419,232.031 186.419 C 231.279 186.419,230.972 186.499,231.348 186.597 M271.001 186.604 C 271.487 186.698,272.190 186.694,272.563 186.597 C 272.937 186.499,272.539 186.422,271.680 186.427 C 270.820 186.431,270.515 186.511,271.001 186.604 M205.176 186.999 C 205.767 187.088,206.733 187.088,207.324 186.999 C 207.915 186.909,207.432 186.836,206.250 186.836 C 205.068 186.836,204.585 186.909,205.176 186.999 M243.151 187.198 C 243.042 187.483,243.000 191.402,243.058 195.909 L 243.164 204.102 245.898 204.102 L 248.633 204.102 248.651 198.828 L 248.670 193.555 248.542 198.730 L 248.415 203.906 245.887 203.906 L 243.359 203.906 243.359 195.508 L 243.359 187.109 245.671 187.109 C 246.942 187.109,248.071 187.290,248.180 187.510 C 248.290 187.730,248.334 187.686,248.280 187.412 C 248.136 186.695,243.419 186.498,243.151 187.198 M300.488 187.007 L 302.734 187.148 302.734 189.063 L 302.734 190.977 300.488 191.118 L 298.242 191.259 300.684 191.332 L 303.125 191.406 303.125 189.063 L 303.125 186.719 300.684 186.793 L 298.242 186.866 300.488 187.007 M304.297 186.959 C 306.629 187.252,309.287 187.281,309.120 187.012 C 309.020 186.851,307.674 186.745,306.129 186.777 C 304.584 186.809,303.760 186.891,304.297 186.959 M317.188 186.959 C 319.524 187.253,322.266 187.281,322.266 187.012 C 322.266 186.851,320.903 186.745,319.238 186.777 C 317.573 186.809,316.650 186.891,317.188 186.959 M200.166 195.508 C 200.167 200.234,200.223 202.114,200.292 199.685 C 200.360 197.256,200.360 193.389,200.291 191.092 C 200.222 188.794,200.166 190.781,200.166 195.508 M282.588 195.508 C 282.589 200.234,282.645 202.114,282.714 199.685 C 282.782 197.256,282.782 193.389,282.713 191.092 C 282.644 188.794,282.588 190.781,282.588 195.508 M290.392 189.063 C 290.429 191.192,290.441 191.212,291.699 191.333 L 292.969 191.456 292.969 197.658 C 292.969 201.069,293.101 203.942,293.262 204.042 C 293.423 204.142,293.467 201.296,293.359 197.718 L 293.164 191.211 291.914 191.090 C 290.707 190.973,290.659 190.899,290.510 188.942 L 290.355 186.914 290.392 189.063 M210.141 188.104 C 209.744 188.583,209.575 188.604,209.329 188.207 C 209.124 187.875,209.041 187.998,209.084 188.570 L 209.149 189.434 210.043 188.594 C 210.535 188.132,210.938 187.697,210.938 187.627 C 210.938 187.341,210.614 187.535,210.141 188.104 M141.122 189.453 C 141.122 190.420,141.198 190.815,141.291 190.332 C 141.384 189.849,141.384 189.058,141.291 188.574 C 141.198 188.091,141.122 188.486,141.122 189.453 M265.014 189.160 L 263.867 190.430 265.137 189.282 C 265.835 188.651,266.406 188.080,266.406 188.013 C 266.406 187.711,266.084 187.977,265.014 189.160 M188.384 190.905 C 188.978 190.995,189.857 190.993,190.337 190.900 C 190.818 190.807,190.332 190.734,189.258 190.737 C 188.184 190.740,187.791 190.816,188.384 190.905 M259.925 197.656 C 259.925 201.201,259.984 202.651,260.056 200.879 C 260.129 199.106,260.129 196.206,260.056 194.434 C 259.984 192.661,259.925 194.111,259.925 197.656 M239.452 197.931 C 239.345 201.412,239.394 204.123,239.561 203.955 C 239.728 203.788,239.816 200.940,239.755 197.626 L 239.646 191.602 239.452 197.931 M215.413 198.730 L 215.430 204.102 217.969 204.128 L 220.508 204.155 218.077 204.013 L 215.647 203.871 215.521 198.615 L 215.395 193.358 215.413 198.730 M262.599 195.508 C 262.603 196.367,262.683 196.673,262.776 196.187 C 262.870 195.701,262.866 194.998,262.768 194.624 C 262.671 194.251,262.594 194.648,262.599 195.508 M268.067 195.508 C 268.072 196.367,268.152 196.673,268.245 196.187 C 268.338 195.701,268.335 194.998,268.237 194.624 C 268.139 194.251,268.063 194.648,268.067 195.508 M181.120 195.182 C 180.977 195.326,180.859 197.335,180.859 199.647 C 180.859 203.544,180.802 203.865,180.072 204.029 C 179.417 204.176,179.434 204.197,180.170 204.154 C 181.025 204.103,181.058 203.958,181.166 199.819 C 181.240 196.996,181.440 195.434,181.752 195.235 C 182.045 195.049,182.065 194.932,181.803 194.928 C 181.571 194.925,181.263 195.039,181.120 195.182 M103.885 197.949 L 102.539 199.414 104.004 198.068 C 104.810 197.328,105.469 196.668,105.469 196.603 C 105.469 196.305,105.138 196.586,103.885 197.949 M125.561 203.223 L 124.414 204.492 125.684 203.345 C 126.867 202.275,127.133 201.953,126.831 201.953 C 126.764 201.953,126.192 202.524,125.561 203.223 M306.738 205.738 C 307.114 205.836,307.729 205.836,308.105 205.738 C 308.481 205.640,308.174 205.559,307.422 205.559 C 306.670 205.559,306.362 205.640,306.738 205.738 M121.484 207.617 C 120.536 208.584,119.847 209.375,119.955 209.375 C 120.062 209.375,120.926 208.584,121.875 207.617 C 122.824 206.650,123.512 205.859,123.405 205.859 C 123.297 205.859,122.433 206.650,121.484 207.617 M110.690 215.039 C 110.691 217.188,110.756 218.017,110.835 216.881 C 110.914 215.746,110.914 213.988,110.833 212.975 C 110.753 211.962,110.689 212.891,110.690 215.039 M122.046 212.598 L 120.898 213.867 122.163 212.725 L 123.427 211.583 123.535 224.444 L 123.644 237.305 123.736 224.316 C 123.787 217.173,123.685 211.328,123.511 211.328 C 123.336 211.328,122.677 211.899,122.046 212.598 M257.213 211.808 C 257.098 212.107,257.061 214.363,257.130 216.821 L 257.255 221.289 257.338 216.504 C 257.447 210.275,258.138 210.206,258.308 216.407 L 258.436 221.095 258.417 216.341 C 258.400 211.857,257.907 210.001,257.213 211.808 M209.960 212.002 C 213.421 212.168,213.850 212.792,210.645 212.998 L 208.398 213.142 210.742 213.114 C 214.643 213.067,214.004 211.922,210.057 211.888 L 207.029 211.861 209.960 212.002 M114.630 212.601 C 114.527 212.872,114.491 218.629,114.551 225.394 L 114.660 237.695 114.752 225.075 C 114.820 215.654,114.958 212.525,115.295 212.733 C 115.574 212.905,115.640 212.840,115.467 212.560 C 115.107 211.978,114.865 211.990,114.630 212.601 M296.240 213.073 C 296.119 213.388,296.111 213.872,296.221 214.147 C 296.332 214.423,296.437 214.253,296.454 213.770 C 296.470 213.286,296.648 212.891,296.848 212.891 C 297.048 212.891,297.287 213.286,297.381 213.770 C 297.526 214.523,297.557 214.495,297.603 213.574 C 297.661 212.408,296.639 212.033,296.240 213.073 M307.960 216.797 C 307.960 219.268,308.024 220.278,308.101 219.043 C 308.179 217.808,308.179 215.786,308.101 214.551 C 308.024 213.315,307.960 214.326,307.960 216.797 M286.816 214.309 C 287.658 214.557,287.705 215.113,286.906 215.361 C 286.491 215.490,286.521 215.526,287.004 215.482 C 287.956 215.395,287.879 214.287,286.914 214.188 C 286.307 214.125,286.285 214.152,286.816 214.309 M324.600 214.320 C 325.187 214.611,325.087 215.150,324.406 215.361 C 323.991 215.490,324.021 215.526,324.504 215.482 C 325.293 215.410,325.452 214.375,324.697 214.222 C 324.423 214.167,324.379 214.210,324.600 214.320 M191.922 216.797 C 191.922 218.193,191.993 218.765,192.079 218.066 C 192.166 217.368,192.166 216.226,192.079 215.527 C 191.993 214.829,191.922 215.400,191.922 216.797 M195.434 216.602 C 195.436 217.891,195.509 218.371,195.596 217.669 C 195.683 216.967,195.681 215.912,195.592 215.325 C 195.502 214.738,195.431 215.313,195.434 216.602 M232.170 217.773 C 232.169 219.707,232.235 220.547,232.317 219.641 C 232.399 218.734,232.400 217.152,232.319 216.125 C 232.238 215.098,232.171 215.840,232.170 217.773 M247.014 217.773 C 247.012 219.707,247.079 220.547,247.160 219.641 C 247.242 218.734,247.243 217.152,247.163 216.125 C 247.082 215.098,247.015 215.840,247.014 217.773 M248.186 217.773 C 248.184 219.707,248.250 220.547,248.332 219.641 C 248.414 218.734,248.415 217.152,248.334 216.125 C 248.254 215.098,248.187 215.840,248.186 217.773 M294.953 214.727 C 294.936 214.985,295.172 215.336,295.479 215.508 C 295.785 215.680,296.107 216.523,296.194 217.383 C 296.352 218.936,296.353 218.934,296.419 217.090 C 296.467 215.719,296.340 215.234,295.931 215.234 C 295.627 215.234,295.289 215.015,295.181 214.746 C 295.036 214.388,294.975 214.383,294.953 214.727 M298.828 214.844 C 298.828 215.059,298.477 215.234,298.047 215.234 C 297.348 215.234,297.273 215.471,297.338 217.480 L 297.410 219.727 297.554 217.676 C 297.674 215.953,297.819 215.625,298.458 215.625 C 298.876 215.625,299.219 215.361,299.219 215.039 C 299.219 214.717,299.131 214.453,299.023 214.453 C 298.916 214.453,298.828 214.629,298.828 214.844 M101.733 224.805 C 101.733 230.391,101.788 232.621,101.855 229.762 C 101.921 226.903,101.921 222.332,101.854 219.606 C 101.787 216.879,101.732 219.219,101.733 224.805 M225.781 215.853 C 225.236 216.155,225.064 216.392,225.391 216.388 C 225.713 216.384,226.318 216.123,226.735 215.808 C 227.675 215.097,227.095 215.124,225.781 215.853 M190.737 217.383 C 190.740 218.457,190.816 218.850,190.905 218.256 C 190.995 217.663,190.993 216.784,190.900 216.303 C 190.807 215.823,190.734 216.309,190.737 217.383 M214.584 218.359 C 214.584 219.971,214.653 220.630,214.738 219.824 C 214.822 219.019,214.822 217.700,214.738 216.895 C 214.653 216.089,214.584 216.748,214.584 218.359 M210.148 216.307 C 211.325 216.387,212.421 216.662,212.583 216.918 C 212.782 217.230,212.881 217.158,212.885 216.699 C 212.890 216.113,212.543 216.026,210.449 216.088 L 208.008 216.160 210.148 216.307 M223.175 218.555 C 223.177 220.059,223.247 220.626,223.332 219.816 C 223.417 219.005,223.415 217.775,223.329 217.081 C 223.243 216.388,223.173 217.051,223.175 218.555 M255.206 218.555 C 255.208 220.059,255.279 220.626,255.363 219.816 C 255.448 219.005,255.446 217.775,255.360 217.081 C 255.274 216.388,255.205 217.051,255.206 218.555 M222.000 218.750 C 222.000 220.146,222.071 220.718,222.158 220.020 C 222.244 219.321,222.244 218.179,222.158 217.480 C 222.071 216.782,222.000 217.354,222.000 218.750 M300.099 217.773 C 300.103 218.633,300.183 218.938,300.276 218.452 C 300.370 217.967,300.366 217.263,300.268 216.890 C 300.171 216.517,300.094 216.914,300.099 217.773 M167.480 217.079 C 168.179 217.166,169.321 217.166,170.020 217.079 C 170.718 216.993,170.146 216.922,168.750 216.922 C 167.354 216.922,166.782 216.993,167.480 217.079 M199.340 218.945 C 199.342 220.234,199.415 220.715,199.502 220.013 C 199.589 219.310,199.587 218.256,199.498 217.669 C 199.409 217.082,199.338 217.656,199.340 218.945 M233.324 218.945 C 233.326 220.234,233.399 220.715,233.486 220.013 C 233.573 219.310,233.571 218.256,233.482 217.669 C 233.393 217.082,233.322 217.656,233.324 218.945 M236.840 218.945 C 236.842 220.234,236.915 220.715,237.002 220.013 C 237.089 219.310,237.087 218.256,236.998 217.669 C 236.909 217.082,236.838 217.656,236.840 218.945 M319.922 217.318 C 319.922 217.859,319.492 217.969,317.383 217.969 C 315.213 217.969,314.848 218.068,314.875 218.652 C 314.893 219.061,314.985 219.139,315.102 218.848 C 315.229 218.534,316.130 218.359,317.623 218.359 C 319.828 218.359,320.966 217.711,320.165 216.910 C 320.031 216.776,319.922 216.960,319.922 217.318 M218.476 219.141 C 218.476 220.322,218.550 220.806,218.639 220.215 C 218.729 219.624,218.729 218.657,218.639 218.066 C 218.550 217.476,218.476 217.959,218.476 219.141 M306.250 217.513 C 306.250 217.814,305.385 217.969,303.711 217.969 C 301.541 217.969,301.176 218.068,301.203 218.652 C 301.221 219.061,301.313 219.139,301.431 218.848 C 301.557 218.535,302.451 218.359,303.916 218.359 C 305.992 218.359,307.094 217.901,306.484 217.292 C 306.355 217.163,306.250 217.262,306.250 217.513 M266.113 220.191 C 266.489 220.289,267.104 220.289,267.480 220.191 C 267.856 220.093,267.549 220.013,266.797 220.013 C 266.045 220.013,265.737 220.093,266.113 220.191 M266.113 221.363 C 266.489 221.461,267.104 221.461,267.480 221.363 C 267.856 221.265,267.549 221.184,266.797 221.184 C 266.045 221.184,265.737 221.265,266.113 221.363 M289.518 222.290 C 288.596 222.659,288.518 223.506,289.390 223.677 C 289.650 223.728,289.683 223.680,289.463 223.571 C 288.868 223.276,288.978 222.656,289.625 222.656 C 289.935 222.656,290.297 222.480,290.430 222.266 C 290.710 221.811,290.712 221.811,289.518 222.290 " stroke="none" fill="#83aab6" fill-rule="evenodd"></path><path id="path4" d="M110.326 158.413 C 94.796 160.681,78.694 174.600,75.999 188.086 C 75.703 189.569,76.030 188.889,77.769 184.410 C 83.757 168.987,99.261 158.716,116.820 158.542 C 120.881 158.501,121.628 158.420,120.117 158.185 C 117.331 157.751,114.393 157.820,110.326 158.413 M124.609 159.174 C 141.500 162.544,154.881 175.988,158.052 192.773 C 158.262 193.886,158.390 194.090,158.494 193.482 C 158.873 191.284,155.850 183.196,152.607 177.734 C 146.950 168.205,131.826 158.364,123.250 158.630 C 122.523 158.653,123.045 158.862,124.609 159.174 M74.988 191.504 C 74.731 192.632,74.460 194.961,74.386 196.680 L 74.250 199.805 74.779 195.898 C 75.069 193.750,75.435 191.421,75.593 190.723 C 75.750 190.024,75.784 189.453,75.667 189.453 C 75.551 189.453,75.245 190.376,74.988 191.504 M158.643 200.000 C 158.468 218.546,147.393 234.151,130.469 239.700 C 129.287 240.087,128.597 240.461,128.936 240.530 C 129.787 240.704,135.466 238.260,138.771 236.296 C 145.144 232.510,149.951 227.533,154.208 220.313 C 157.628 214.513,159.886 203.853,159.050 197.461 C 158.709 194.853,158.690 194.970,158.643 200.000 M74.265 203.548 C 74.290 204.712,74.455 206.191,74.631 206.836 C 74.826 207.554,74.866 206.799,74.732 204.883 C 74.480 201.263,74.197 200.456,74.265 203.548 M75.066 208.984 C 75.060 209.521,75.206 210.313,75.391 210.742 L 75.726 211.523 75.715 210.742 C 75.709 210.313,75.563 209.521,75.391 208.984 L 75.078 208.008 75.066 208.984 M75.795 211.963 C 75.782 212.379,76.338 214.060,77.315 216.558 C 77.558 217.179,77.834 217.609,77.929 217.513 C 78.024 217.418,77.586 216.032,76.955 214.432 C 76.324 212.832,75.802 211.721,75.795 211.963 M78.125 218.118 C 78.125 218.538,79.287 220.703,79.512 220.703 C 79.620 220.703,79.417 220.132,79.062 219.434 C 78.337 218.008,78.125 217.710,78.125 218.118 M80.215 222.131 C 80.960 223.597,85.096 228.854,86.159 229.688 C 86.571 230.010,86.118 229.339,85.153 228.196 C 84.188 227.054,82.676 225.072,81.794 223.792 C 79.861 220.990,79.374 220.477,80.215 222.131 M87.767 225.931 C 87.620 226.313,87.511 226.920,87.525 227.278 C 87.541 227.710,87.677 227.611,87.927 226.987 C 88.134 226.468,88.243 225.862,88.169 225.639 C 88.095 225.417,87.914 225.548,87.767 225.931 M91.998 230.069 C 91.093 231.533,91.333 234.269,92.433 235.031 C 94.419 236.406,98.087 238.371,98.290 238.169 C 98.398 238.061,97.904 237.683,97.192 237.330 C 91.936 234.722,91.462 234.141,92.156 231.152 C 92.495 229.692,92.445 229.346,91.998 230.069 M135.938 232.406 C 135.339 233.157,129.328 235.938,128.301 235.938 C 127.990 235.938,127.734 236.113,127.734 236.328 C 127.734 236.833,127.759 236.830,129.542 236.097 C 133.920 234.299,136.719 232.795,136.719 232.243 C 136.719 231.488,136.658 231.501,135.938 232.406 M101.743 235.132 C 101.990 235.532,105.881 236.827,106.120 236.589 C 106.215 236.493,105.225 236.054,103.919 235.613 C 102.613 235.172,101.634 234.955,101.743 235.132 M107.422 237.109 C 107.959 237.281,108.750 237.427,109.180 237.434 L 109.961 237.445 109.180 237.109 C 108.750 236.925,107.959 236.779,107.422 236.785 L 106.445 236.797 107.422 237.109 M116.992 237.891 L 114.648 238.150 117.773 238.169 C 119.492 238.180,121.426 238.055,122.070 237.891 C 123.587 237.505,120.481 237.505,116.992 237.891 M99.023 238.575 C 99.539 239.114,106.331 241.416,107.273 241.371 C 107.677 241.352,107.217 241.112,106.250 240.837 C 104.732 240.406,102.267 239.551,99.414 238.464 C 98.875 238.259,98.754 238.293,99.023 238.575 M125.977 241.016 L 125.195 241.351 125.977 241.351 C 126.406 241.351,127.109 241.200,127.539 241.016 L 128.320 240.680 127.539 240.680 C 127.109 240.680,126.406 240.831,125.977 241.016 M109.180 241.776 C 110.367 242.099,113.938 242.311,113.639 242.040 C 113.550 241.959,112.246 241.795,110.742 241.675 C 109.017 241.538,108.440 241.575,109.180 241.776 M121.289 241.797 L 119.727 242.077 121.484 242.093 C 122.451 242.102,123.682 241.969,124.219 241.797 C 125.533 241.376,123.639 241.376,121.289 241.797 M115.534 242.471 C 116.236 242.558,117.291 242.556,117.878 242.467 C 118.465 242.377,117.891 242.306,116.602 242.309 C 115.313 242.311,114.832 242.384,115.534 242.471 " stroke="none" fill="#c5f2a8" fill-rule="evenodd"></path></g></svg>