<svg id="svg" version="1.1" xmlns="http://www.w3.org/2000/svg" xmlns:xlink="http://www.w3.org/1999/xlink" width="400" height="400" viewBox="0, 0, 400,400"><g id="svgg"><path id="path0" d="M251.200 70.330 C 250.430 70.713,249.170 71.277,248.400 71.584 C 247.630 71.891,246.010 72.579,244.800 73.114 C 243.590 73.649,242.015 74.337,241.300 74.643 C 240.585 74.949,239.415 75.451,238.700 75.757 C 237.985 76.063,236.365 76.781,235.100 77.351 L 232.800 78.389 232.800 92.930 C 232.800 100.928,232.919 111.010,233.063 115.336 L 233.327 123.200 234.852 123.200 L 236.377 123.200 237.227 120.400 L 238.078 117.600 243.212 117.600 C 248.956 117.600,248.522 117.353,249.023 120.900 L 249.291 122.800 251.182 122.800 L 253.073 122.800 253.335 130.900 C 253.480 135.355,253.598 141.205,253.599 143.900 C 253.600 149.779,253.340 149.679,258.600 145.838 L 262.600 142.917 262.539 130.558 C 262.506 123.761,262.357 116.400,262.208 114.200 L 261.937 110.200 258.202 110.200 C 256.147 110.200,254.317 110.050,254.133 109.867 C 253.950 109.684,253.710 100.609,253.600 89.700 C 253.472 76.995,253.256 69.824,253.000 69.750 C 252.780 69.686,251.970 69.947,251.200 70.330 M217.380 89.162 C 217.171 89.362,216.325 89.902,215.500 90.362 C 214.675 90.823,213.325 91.587,212.500 92.059 C 211.675 92.531,210.010 93.459,208.800 94.120 C 207.590 94.781,206.122 95.655,205.538 96.061 C 204.954 96.467,204.385 96.800,204.273 96.800 C 203.738 96.800,198.454 100.086,198.304 100.513 C 198.083 101.140,198.677 140.810,198.911 141.044 C 199.008 141.141,203.326 141.098,208.507 140.948 L 217.927 140.676 218.177 139.238 C 218.315 138.447,218.532 126.775,218.659 113.300 C 218.901 87.860,218.893 87.720,217.380 89.162 M182.271 109.829 C 180.329 111.023,178.652 112.000,178.543 112.000 C 178.433 112.000,177.559 112.540,176.600 113.200 C 175.641 113.860,174.772 114.400,174.669 114.400 C 174.346 114.400,169.036 117.667,168.276 118.333 C 167.548 118.971,167.534 127.382,168.250 134.352 L 168.470 136.503 176.735 136.222 C 183.653 135.987,185.081 135.836,185.500 135.294 C 185.924 134.746,186.000 134.897,186.000 136.289 C 186.000 137.301,186.447 138.827,187.164 140.266 C 188.592 143.130,189.450 145.102,189.808 146.339 C 190.033 147.120,190.257 147.234,191.139 147.015 C 191.723 146.870,192.695 146.652,193.300 146.530 L 194.400 146.309 194.400 140.417 C 194.400 137.176,194.283 132.618,194.141 130.288 L 193.882 126.051 190.509 126.060 C 186.259 126.072,186.660 126.986,186.477 116.884 C 186.390 112.108,186.202 108.078,186.059 107.929 C 185.917 107.779,184.212 108.634,182.271 109.829 M213.348 132.500 C 214.583 137.108,213.379 138.169,207.399 137.749 L 203.600 137.482 203.600 134.768 C 203.600 131.599,203.295 131.761,209.453 131.660 C 212.928 131.603,213.119 131.644,213.348 132.500 M220.955 138.263 C 219.216 138.514,219.200 138.798,219.200 168.659 C 219.200 193.627,219.270 194.967,220.477 193.262 C 220.765 192.856,222.582 190.834,224.516 188.770 C 226.449 186.705,228.130 184.621,228.251 184.138 C 228.479 183.232,227.758 138.824,227.511 138.578 C 227.257 138.324,222.215 138.082,220.955 138.263 M189.400 162.750 C 188.300 163.157,185.510 164.293,183.200 165.275 C 180.890 166.256,178.370 167.308,177.600 167.611 C 174.628 168.781,166.159 173.127,165.646 173.745 C 165.349 174.103,165.116 175.117,165.128 175.998 C 165.148 177.441,165.052 177.600,164.162 177.600 C 162.992 177.600,162.487 178.607,163.137 179.648 C 163.392 180.055,163.600 181.011,163.600 181.771 C 163.600 182.531,163.758 183.251,163.951 183.370 C 164.145 183.489,164.399 184.625,164.516 185.894 C 164.633 187.162,164.941 190.437,165.199 193.170 C 165.678 198.221,165.524 216.282,164.977 219.353 L 164.700 220.905 166.050 220.639 C 166.793 220.492,168.410 220.268,169.644 220.142 L 171.888 219.912 172.117 216.073 C 172.381 211.640,172.149 205.121,171.572 200.800 C 170.933 196.014,170.365 192.324,170.002 190.600 C 169.817 189.720,169.445 187.920,169.175 186.600 C 168.774 184.631,167.303 178.740,166.518 175.957 C 166.226 174.923,169.802 173.080,183.600 167.151 C 186.130 166.063,188.560 165.004,189.000 164.797 C 189.440 164.590,190.970 163.979,192.400 163.438 C 194.170 162.769,194.681 162.445,194.000 162.422 C 193.450 162.404,192.640 162.304,192.200 162.199 C 191.760 162.094,190.500 162.342,189.400 162.750 M151.716 172.500 C 151.830 172.995,152.406 175.200,152.994 177.400 C 153.582 179.600,154.207 182.030,154.383 182.800 C 155.251 186.596,155.995 190.407,156.236 192.300 L 156.503 194.400 154.452 194.400 L 152.400 194.400 152.386 197.700 C 152.369 201.651,152.088 210.253,151.794 215.854 C 151.545 220.578,151.307 220.310,156.082 220.678 L 159.200 220.919 159.200 210.036 C 159.200 199.857,159.043 197.438,157.949 190.800 C 157.077 185.502,154.504 176.594,153.123 174.088 C 152.725 173.366,152.400 172.511,152.400 172.188 C 152.400 171.865,152.199 171.600,151.953 171.600 C 151.695 171.600,151.595 171.979,151.716 172.500 M189.333 186.365 C 179.052 188.968,179.211 203.060,189.552 205.787 C 195.055 207.239,201.600 201.922,201.600 196.000 C 201.600 190.029,195.082 184.909,189.333 186.365 M195.436 191.800 C 195.986 192.350,196.878 192.800,197.418 192.800 C 198.503 192.800,198.661 193.177,197.900 193.945 C 197.625 194.222,197.400 195.113,197.400 195.925 C 197.400 197.958,195.825 198.334,195.400 196.402 C 195.237 195.659,194.940 195.247,194.664 195.379 C 194.409 195.500,193.885 195.711,193.500 195.846 C 193.010 196.019,192.800 196.522,192.800 197.521 C 192.800 200.491,189.777 201.811,187.486 199.841 C 186.803 199.253,186.067 198.962,185.586 199.088 C 184.988 199.244,184.800 199.091,184.800 198.447 C 184.800 197.981,184.980 197.600,185.200 197.600 C 185.420 197.600,185.600 196.715,185.600 195.633 C 185.600 193.691,186.014 193.102,187.100 193.502 C 187.375 193.603,187.600 194.196,187.600 194.819 C 187.600 196.224,188.036 196.519,189.366 196.013 C 190.230 195.684,190.400 195.367,190.400 194.085 C 190.400 191.051,193.349 189.713,195.436 191.800 M143.040 192.666 C 143.408 194.199,143.600 194.344,143.600 193.090 C 143.600 192.517,143.413 191.932,143.184 191.790 C 142.911 191.621,142.862 191.923,143.040 192.666 M192.880 193.280 C 192.616 193.544,192.400 193.904,192.400 194.080 C 192.400 194.557,193.511 194.467,193.822 193.965 C 194.233 193.299,193.439 192.721,192.880 193.280 M189.300 197.465 C 188.497 197.789,188.725 198.800,189.600 198.800 C 190.133 198.800,190.400 198.533,190.400 198.000 C 190.400 197.192,190.208 197.098,189.300 197.465 M143.454 213.056 C 143.165 215.167,143.118 217.600,143.367 217.600 C 143.459 217.600,143.819 217.709,144.167 217.843 C 144.704 218.049,144.799 217.698,144.795 215.543 C 144.785 211.211,143.926 209.616,143.454 213.056 M182.200 216.000 C 182.064 216.220,181.553 216.400,181.065 216.400 C 180.577 216.400,179.866 216.764,179.486 217.208 C 178.741 218.078,179.704 218.076,181.800 217.205 C 182.240 217.022,182.915 216.772,183.300 216.649 C 183.685 216.526,184.000 216.239,184.000 216.013 C 184.000 215.483,182.526 215.473,182.200 216.000 M245.200 271.153 C 235.185 273.349,229.718 287.658,234.964 297.942 C 239.840 307.502,254.125 309.328,262.989 301.526 C 265.207 299.574,265.211 299.602,262.244 296.256 C 259.518 293.183,259.345 293.137,257.441 294.986 C 254.412 297.928,250.428 298.632,247.867 296.678 C 242.304 292.435,244.302 279.200,250.506 279.200 C 251.971 279.200,254.624 281.691,255.007 283.427 C 255.150 284.072,255.339 284.831,255.426 285.114 C 255.546 285.499,256.617 285.600,259.693 285.514 L 263.800 285.400 263.909 278.300 L 264.018 271.200 260.642 271.200 C 257.015 271.200,256.000 271.411,256.000 272.163 C 256.000 273.448,255.094 273.501,253.202 272.325 C 251.130 271.037,247.891 270.562,245.200 271.153 M103.472 271.462 C 102.538 272.395,103.214 277.588,104.300 277.826 C 104.905 277.958,105.628 278.137,105.907 278.223 C 106.302 278.346,106.390 280.643,106.307 288.690 L 106.200 299.000 104.684 299.125 L 103.167 299.250 103.284 302.325 L 103.400 305.400 112.500 305.508 L 121.600 305.615 121.600 302.427 L 121.600 299.240 119.300 299.120 L 117.000 299.000 117.000 296.000 L 117.000 293.000 121.500 292.887 L 126.000 292.774 126.000 289.587 L 126.000 286.400 121.386 286.400 L 116.772 286.400 116.886 282.300 L 117.000 278.200 120.400 278.200 L 123.800 278.200 123.921 280.313 L 124.043 282.427 128.321 282.313 L 132.600 282.200 132.600 276.800 L 132.600 271.400 118.172 271.295 C 110.236 271.237,103.621 271.312,103.472 271.462 M134.667 271.467 C 133.737 272.397,134.417 277.589,135.500 277.826 C 136.105 277.958,136.828 278.137,137.107 278.223 C 137.502 278.346,137.590 280.643,137.507 288.690 L 137.400 299.000 135.884 299.125 L 134.367 299.250 134.484 302.325 L 134.600 305.400 142.800 305.400 L 151.000 305.400 151.000 302.400 L 151.000 299.400 149.600 299.200 L 148.200 299.000 148.200 288.600 L 148.200 278.200 149.200 278.062 C 149.750 277.986,150.425 277.739,150.700 277.513 C 151.350 276.979,151.366 272.326,150.720 271.680 C 150.201 271.161,135.172 270.962,134.667 271.467 M153.600 274.373 C 153.600 277.538,153.603 277.547,154.700 277.673 L 155.800 277.800 155.907 288.500 L 156.013 299.200 154.825 299.200 C 153.460 299.200,153.043 300.385,153.273 303.609 L 153.400 305.400 161.000 305.400 L 168.600 305.400 168.727 303.609 C 168.986 299.980,168.606 299.200,166.582 299.200 L 164.800 299.200 164.800 293.600 C 164.800 290.520,164.935 288.004,165.100 288.009 C 165.265 288.015,168.010 291.974,171.200 296.808 L 177.000 305.597 182.400 305.499 L 187.800 305.400 188.000 291.600 L 188.200 277.800 189.600 277.600 L 191.000 277.400 191.117 274.763 C 191.279 271.095,191.428 271.160,183.147 271.290 L 176.200 271.400 176.084 274.475 L 175.967 277.550 177.484 277.675 L 179.000 277.800 179.112 282.900 C 179.174 285.705,179.084 287.996,178.912 287.991 C 178.740 287.986,176.260 284.445,173.400 280.123 C 170.540 275.801,167.962 272.026,167.671 271.733 C 167.273 271.331,165.478 271.200,160.371 271.200 L 153.600 271.200 153.600 274.373 M200.800 274.393 C 200.800 276.919,200.922 277.600,201.376 277.600 C 202.394 277.600,202.468 278.353,201.681 280.703 C 201.257 281.966,200.501 284.350,200.000 286.000 C 198.980 289.360,198.147 292.031,196.788 296.300 L 195.865 299.200 194.332 299.200 L 192.800 299.200 192.800 302.409 L 192.800 305.617 200.500 305.509 L 208.200 305.400 208.200 302.400 L 208.200 299.400 206.500 299.277 C 204.666 299.144,204.464 298.775,205.264 297.019 C 205.794 295.857,214.443 295.403,215.520 296.480 C 216.868 297.828,216.101 299.200,214.000 299.200 L 212.000 299.200 212.000 302.400 L 212.000 305.600 221.800 305.600 L 231.600 305.600 231.600 302.423 L 231.600 299.246 229.932 299.123 L 228.264 299.000 227.381 296.400 C 226.895 294.970,225.918 291.910,225.209 289.600 C 224.501 287.290,223.601 284.410,223.210 283.200 C 222.819 281.990,221.926 279.110,221.226 276.800 C 220.526 274.490,219.810 272.330,219.634 272.000 C 219.366 271.498,217.800 271.382,210.057 271.293 L 200.800 271.185 200.800 274.393 M267.052 272.100 C 266.198 275.289,266.867 277.867,268.601 278.064 L 269.800 278.200 269.907 288.491 L 270.013 298.781 268.907 299.024 C 266.710 299.506,266.758 299.423,266.882 302.494 L 267.000 305.400 281.800 305.400 L 296.600 305.400 296.600 300.000 L 296.600 294.600 292.320 294.487 L 288.041 294.373 287.920 296.687 L 287.800 299.000 284.200 299.000 L 280.600 299.000 280.486 295.100 L 280.371 291.200 284.986 291.200 L 289.600 291.200 289.600 288.047 C 289.600 284.306,289.763 284.414,284.083 284.405 L 280.366 284.400 280.483 281.300 L 280.600 278.200 284.200 278.200 L 287.800 278.200 287.921 280.313 L 288.043 282.427 292.321 282.313 L 296.600 282.200 296.713 277.256 C 296.866 270.545,298.500 271.200,281.598 271.200 L 267.293 271.200 267.052 272.100 M211.771 283.800 C 213.575 290.041,213.582 290.002,210.676 289.994 C 207.713 289.985,207.440 289.725,208.125 287.566 C 208.433 286.595,208.922 284.990,209.213 284.000 C 210.361 280.084,210.689 280.059,211.771 283.800 " stroke="none" fill="#276cba" fill-rule="evenodd"></path><path id="path1" d="M0.000 200.000 L 0.000 400.000 200.000 400.000 L 400.000 400.000 400.000 200.000 L 400.000 0.000 200.000 0.000 L 0.000 0.000 0.000 200.000 M253.600 89.700 C 253.710 100.609,253.950 109.684,254.133 109.867 C 254.317 110.050,256.147 110.200,258.202 110.200 L 261.937 110.200 262.208 114.200 C 262.357 116.400,262.506 123.761,262.539 130.558 L 262.600 142.917 258.600 145.838 C 253.340 149.679,253.600 149.779,253.599 143.900 C 253.598 141.205,253.480 135.355,253.335 130.900 L 253.073 122.800 251.182 122.800 L 249.291 122.800 249.023 120.900 C 248.522 117.353,248.956 117.600,243.212 117.600 L 238.078 117.600 237.227 120.400 L 236.377 123.200 234.852 123.200 L 233.327 123.200 233.063 115.336 C 232.919 111.010,232.800 100.928,232.800 92.930 L 232.800 78.389 235.100 77.351 C 236.365 76.781,237.985 76.063,238.700 75.757 C 239.415 75.451,240.585 74.949,241.300 74.643 C 242.015 74.337,243.590 73.649,244.800 73.114 C 246.010 72.579,247.630 71.891,248.400 71.584 C 249.170 71.277,250.430 70.713,251.200 70.330 C 251.970 69.947,252.780 69.686,253.000 69.750 C 253.256 69.824,253.472 76.995,253.600 89.700 M218.659 113.300 C 218.532 126.775,218.315 138.447,218.177 139.238 L 217.927 140.676 208.507 140.948 C 203.326 141.098,199.008 141.141,198.911 141.044 C 198.677 140.810,198.083 101.140,198.304 100.513 C 198.454 100.086,203.738 96.800,204.273 96.800 C 204.385 96.800,204.954 96.467,205.538 96.061 C 206.122 95.655,207.590 94.781,208.800 94.120 C 210.010 93.459,211.675 92.531,212.500 92.059 C 213.325 91.587,214.675 90.823,215.500 90.362 C 216.325 89.902,217.171 89.362,217.380 89.162 C 218.893 87.720,218.901 87.860,218.659 113.300 M186.477 116.884 C 186.660 126.986,186.259 126.072,190.509 126.060 L 193.882 126.051 194.141 130.288 C 194.283 132.618,194.400 137.176,194.400 140.417 L 194.400 146.309 193.300 146.530 C 192.695 146.652,191.723 146.870,191.139 147.015 C 190.257 147.234,190.033 147.120,189.808 146.339 C 189.450 145.102,188.592 143.130,187.164 140.266 C 186.447 138.827,186.000 137.301,186.000 136.289 C 186.000 134.897,185.924 134.746,185.500 135.294 C 185.081 135.836,183.653 135.987,176.735 136.222 L 168.470 136.503 168.250 134.352 C 167.534 127.382,167.548 118.971,168.276 118.333 C 169.036 117.667,174.346 114.400,174.669 114.400 C 174.772 114.400,175.641 113.860,176.600 113.200 C 177.559 112.540,178.433 112.000,178.543 112.000 C 178.652 112.000,180.329 111.023,182.271 109.829 C 184.212 108.634,185.917 107.779,186.059 107.929 C 186.202 108.078,186.390 112.108,186.477 116.884 M204.700 131.887 C 203.624 132.049,203.600 132.113,203.600 134.768 L 203.600 137.482 207.399 137.749 C 213.379 138.169,214.583 137.108,213.348 132.500 C 213.106 131.599,208.675 131.284,204.700 131.887 M227.511 138.578 C 227.758 138.824,228.479 183.232,228.251 184.138 C 228.130 184.621,226.449 186.705,224.516 188.770 C 222.582 190.834,220.765 192.856,220.477 193.262 C 219.270 194.967,219.200 193.627,219.200 168.659 C 219.200 138.798,219.216 138.514,220.955 138.263 C 222.215 138.082,227.257 138.324,227.511 138.578 M277.786 140.642 C 278.548 140.775,279.329 141.090,279.522 141.342 C 280.738 142.934,281.381 165.878,280.417 173.282 C 279.135 183.131,277.973 189.478,276.441 195.000 C 272.329 209.824,270.059 215.035,266.991 216.689 C 263.855 218.379,263.958 218.405,262.000 215.400 C 259.942 212.241,259.894 212.239,257.400 215.281 C 253.604 219.910,252.221 221.419,247.020 226.611 C 241.798 231.824,240.910 232.639,236.799 235.995 C 235.589 236.981,234.510 237.897,234.400 238.029 C 234.085 238.408,226.093 243.699,223.000 245.576 C 220.087 247.344,213.227 250.723,210.800 251.584 C 210.030 251.857,209.040 252.224,208.600 252.400 C 207.303 252.917,205.590 253.463,202.400 254.373 C 196.729 255.991,196.314 256.075,188.523 257.189 C 184.795 257.722,175.829 257.717,172.446 257.180 C 167.643 256.418,162.725 255.351,161.400 254.783 C 160.960 254.595,159.725 254.156,158.655 253.810 C 141.334 248.193,126.223 232.703,121.575 215.800 C 120.576 212.168,120.344 211.021,119.798 207.025 C 118.852 200.105,119.568 187.899,121.003 186.463 C 122.025 185.442,124.786 191.023,124.561 193.656 C 124.295 196.766,125.055 203.072,125.977 205.400 C 129.059 213.185,134.513 218.617,142.200 221.559 C 143.520 222.065,144.960 222.627,145.400 222.809 C 146.241 223.157,147.084 223.352,151.000 224.107 C 154.020 224.690,165.686 224.681,169.400 224.094 C 173.770 223.403,175.612 222.997,180.600 221.625 C 182.206 221.183,185.585 220.051,186.700 219.580 C 187.558 219.218,188.501 218.836,190.500 218.043 C 192.305 217.326,199.052 213.943,201.000 212.778 C 202.100 212.120,203.270 211.464,203.600 211.320 C 204.812 210.793,211.118 206.423,214.214 203.967 C 223.813 196.350,231.397 188.094,238.340 177.702 L 241.613 172.804 241.349 167.860 C 241.003 161.389,241.014 161.357,244.447 159.200 C 246.022 158.210,250.529 155.285,254.462 152.700 C 258.395 150.115,261.791 148.000,262.007 148.000 C 262.223 148.000,262.400 147.820,262.400 147.600 C 262.400 147.380,262.625 147.189,262.900 147.176 C 263.175 147.163,265.740 145.545,268.600 143.581 C 274.154 139.767,273.669 139.923,277.786 140.642 M185.136 144.100 C 185.428 144.815,185.823 145.760,186.013 146.200 C 186.204 146.640,186.650 147.896,187.006 148.990 C 187.769 151.342,188.338 152.131,188.953 151.688 C 189.866 151.032,197.743 148.800,199.149 148.800 C 199.890 148.800,201.600 151.671,201.600 152.916 C 201.600 153.204,201.743 153.611,201.918 153.820 C 202.250 154.215,202.744 155.669,203.645 158.900 C 204.005 160.190,204.388 160.800,204.838 160.800 C 205.731 160.800,206.131 161.400,206.972 164.000 C 209.645 172.268,210.540 179.106,210.573 191.521 L 210.600 201.642 209.600 202.440 C 206.518 204.901,199.656 209.214,195.426 211.350 C 190.415 213.880,189.084 214.472,185.000 215.987 C 183.680 216.477,182.240 217.024,181.800 217.203 C 179.816 218.008,179.361 218.134,174.400 219.248 C 166.244 221.080,154.724 221.207,148.600 219.534 C 141.144 217.497,136.800 214.841,136.800 212.320 C 136.800 202.917,130.175 189.500,120.873 180.063 C 119.263 178.430,118.093 176.959,118.273 176.795 C 118.453 176.631,120.400 175.737,122.600 174.809 C 124.800 173.881,127.550 172.689,128.712 172.161 C 129.873 171.632,130.903 171.200,131.000 171.200 C 131.097 171.200,132.161 170.750,133.365 170.199 C 134.568 169.649,136.033 169.016,136.619 168.793 C 137.748 168.364,137.752 168.324,136.994 164.600 C 136.734 163.322,136.689 163.369,139.955 161.496 C 144.274 159.017,160.359 150.822,162.845 149.833 C 163.810 149.449,165.230 148.861,166.000 148.526 C 166.770 148.192,167.805 147.757,168.300 147.559 C 168.795 147.362,169.605 147.037,170.100 146.837 C 175.620 144.612,181.221 142.957,183.602 142.846 C 184.378 142.811,184.725 143.094,185.136 144.100 M191.216 191.675 C 190.689 192.241,190.400 193.094,190.400 194.085 C 190.400 195.367,190.230 195.684,189.366 196.013 C 188.036 196.519,187.600 196.224,187.600 194.819 C 187.600 194.196,187.375 193.603,187.100 193.502 C 186.014 193.102,185.600 193.691,185.600 195.633 C 185.600 196.715,185.420 197.600,185.200 197.600 C 184.980 197.600,184.800 197.981,184.800 198.447 C 184.800 199.091,184.988 199.244,185.586 199.088 C 186.067 198.962,186.803 199.253,187.486 199.841 C 189.777 201.811,192.800 200.491,192.800 197.521 C 192.800 196.522,193.010 196.019,193.500 195.846 C 193.885 195.711,194.409 195.500,194.664 195.379 C 194.940 195.247,195.237 195.659,195.400 196.402 C 195.825 198.334,197.400 197.958,197.400 195.925 C 197.400 195.113,197.625 194.222,197.900 193.945 C 198.661 193.177,198.503 192.800,197.418 192.800 C 196.878 192.800,195.986 192.350,195.436 191.800 C 194.169 190.533,192.331 190.478,191.216 191.675 M193.822 193.965 C 193.511 194.467,192.400 194.557,192.400 194.080 C 192.400 193.904,192.616 193.544,192.880 193.280 C 193.439 192.721,194.233 193.299,193.822 193.965 M190.400 198.000 C 190.400 198.533,190.133 198.800,189.600 198.800 C 188.725 198.800,188.497 197.789,189.300 197.465 C 190.208 197.098,190.400 197.192,190.400 198.000 M253.202 272.325 C 255.094 273.501,256.000 273.448,256.000 272.163 C 256.000 271.411,257.015 271.200,260.642 271.200 L 264.018 271.200 263.909 278.300 L 263.800 285.400 259.693 285.514 C 256.617 285.600,255.546 285.499,255.426 285.114 C 255.339 284.831,255.150 284.072,255.007 283.427 C 254.624 281.691,251.971 279.200,250.506 279.200 C 244.302 279.200,242.304 292.435,247.867 296.678 C 250.428 298.632,254.412 297.928,257.441 294.986 C 259.345 293.137,259.518 293.183,262.244 296.256 C 265.211 299.602,265.207 299.574,262.989 301.526 C 252.385 310.860,236.177 306.416,233.350 293.400 C 230.338 279.536,243.066 266.024,253.202 272.325 M132.600 276.800 L 132.600 282.200 128.321 282.313 L 124.043 282.427 123.921 280.313 L 123.800 278.200 120.400 278.200 L 117.000 278.200 116.886 282.300 L 116.772 286.400 121.386 286.400 L 126.000 286.400 126.000 289.587 L 126.000 292.774 121.500 292.887 L 117.000 293.000 117.000 296.000 L 117.000 299.000 119.300 299.120 L 121.600 299.240 121.600 302.427 L 121.600 305.615 112.500 305.508 L 103.400 305.400 103.284 302.325 L 103.167 299.250 104.684 299.125 L 106.200 299.000 106.307 288.690 C 106.390 280.643,106.302 278.346,105.907 278.223 C 105.628 278.137,104.905 277.958,104.300 277.826 C 103.214 277.588,102.538 272.395,103.472 271.462 C 103.621 271.312,110.236 271.237,118.172 271.295 L 132.600 271.400 132.600 276.800 M150.720 271.680 C 151.366 272.326,151.350 276.979,150.700 277.513 C 150.425 277.739,149.750 277.986,149.200 278.062 L 148.200 278.200 148.200 288.600 L 148.200 299.000 149.600 299.200 L 151.000 299.400 151.000 302.400 L 151.000 305.400 142.800 305.400 L 134.600 305.400 134.484 302.325 L 134.367 299.250 135.884 299.125 L 137.400 299.000 137.507 288.690 C 137.590 280.643,137.502 278.346,137.107 278.223 C 136.828 278.137,136.105 277.958,135.500 277.826 C 134.417 277.589,133.737 272.397,134.667 271.467 C 135.172 270.962,150.201 271.161,150.720 271.680 M167.671 271.733 C 167.962 272.026,170.540 275.801,173.400 280.123 C 176.260 284.445,178.740 287.986,178.912 287.991 C 179.084 287.996,179.174 285.705,179.112 282.900 L 179.000 277.800 177.484 277.675 L 175.967 277.550 176.084 274.475 L 176.200 271.400 183.147 271.290 C 191.428 271.160,191.279 271.095,191.117 274.763 L 191.000 277.400 189.600 277.600 L 188.200 277.800 188.000 291.600 L 187.800 305.400 182.400 305.499 L 177.000 305.597 171.200 296.808 C 168.010 291.974,165.265 288.015,165.100 288.009 C 164.935 288.004,164.800 290.520,164.800 293.600 L 164.800 299.200 166.582 299.200 C 168.606 299.200,168.986 299.980,168.727 303.609 L 168.600 305.400 161.000 305.400 L 153.400 305.400 153.273 303.609 C 153.043 300.385,153.460 299.200,154.825 299.200 L 156.013 299.200 155.907 288.500 L 155.800 277.800 154.700 277.673 C 153.603 277.547,153.600 277.538,153.600 274.373 L 153.600 271.200 160.371 271.200 C 165.478 271.200,167.273 271.331,167.671 271.733 M219.634 272.000 C 219.810 272.330,220.526 274.490,221.226 276.800 C 221.926 279.110,222.819 281.990,223.210 283.200 C 223.601 284.410,224.501 287.290,225.209 289.600 C 225.918 291.910,226.895 294.970,227.381 296.400 L 228.264 299.000 229.932 299.123 L 231.600 299.246 231.600 302.423 L 231.600 305.600 221.800 305.600 L 212.000 305.600 212.000 302.400 L 212.000 299.200 214.000 299.200 C 216.101 299.200,216.868 297.828,215.520 296.480 C 214.443 295.403,205.794 295.857,205.264 297.019 C 204.464 298.775,204.666 299.144,206.500 299.277 L 208.200 299.400 208.200 302.400 L 208.200 305.400 200.500 305.509 L 192.800 305.617 192.800 302.409 L 192.800 299.200 194.332 299.200 L 195.865 299.200 196.788 296.300 C 198.147 292.031,198.980 289.360,200.000 286.000 C 200.501 284.350,201.257 281.966,201.681 280.703 C 202.468 278.353,202.394 277.600,201.376 277.600 C 200.922 277.600,200.800 276.919,200.800 274.393 L 200.800 271.185 210.057 271.293 C 217.800 271.382,219.366 271.498,219.634 272.000 M296.364 271.756 C 296.672 272.128,296.788 273.953,296.713 277.256 L 296.600 282.200 292.321 282.313 L 288.043 282.427 287.921 280.313 L 287.800 278.200 284.200 278.200 L 280.600 278.200 280.483 281.300 L 280.366 284.400 284.083 284.405 C 289.763 284.414,289.600 284.306,289.600 288.047 L 289.600 291.200 284.986 291.200 L 280.371 291.200 280.486 295.100 L 280.600 299.000 284.200 299.000 L 287.800 299.000 287.920 296.687 L 288.041 294.373 292.320 294.487 L 296.600 294.600 296.600 300.000 L 296.600 305.400 281.800 305.400 L 267.000 305.400 266.882 302.494 C 266.758 299.423,266.710 299.506,268.907 299.024 L 270.013 298.781 269.907 288.491 L 269.800 278.200 268.601 278.064 C 266.867 277.867,266.198 275.289,267.052 272.100 L 267.293 271.200 281.598 271.200 C 293.325 271.200,295.985 271.300,296.364 271.756 M210.107 281.457 C 209.906 281.866,209.503 283.010,209.213 284.000 C 208.922 284.990,208.433 286.595,208.125 287.566 C 207.440 289.725,207.713 289.985,210.676 289.994 C 213.582 290.002,213.575 290.041,211.771 283.800 C 210.946 280.949,210.599 280.460,210.107 281.457 " stroke="none" fill="#ebf3fb" fill-rule="evenodd"></path><path id="path2" d="M268.600 143.581 C 265.740 145.545,263.175 147.163,262.900 147.176 C 262.625 147.189,262.400 147.380,262.400 147.600 C 262.400 147.820,262.219 148.000,261.998 148.000 C 261.777 148.000,258.402 150.099,254.498 152.664 C 250.594 155.230,246.140 158.145,244.600 159.142 C 243.060 160.140,241.723 161.013,241.629 161.082 C 241.088 161.482,243.354 162.800,244.583 162.800 C 245.362 162.800,246.000 162.935,246.001 163.100 C 246.001 163.265,245.056 163.400,243.901 163.400 L 241.800 163.400 241.687 168.145 L 241.574 172.890 238.399 177.626 C 230.736 189.056,222.022 198.368,212.000 205.835 C 208.192 208.672,204.511 211.200,204.187 211.200 C 204.092 211.200,202.886 211.889,201.507 212.732 C 196.816 215.599,189.703 219.065,186.382 220.101 C 185.512 220.373,184.800 220.731,184.800 220.897 C 184.800 221.064,184.260 221.200,183.600 221.200 C 182.655 221.200,182.400 221.375,182.400 222.024 C 182.400 222.477,182.581 222.735,182.803 222.598 C 183.024 222.461,183.313 222.630,183.445 222.972 C 183.576 223.315,183.845 223.496,184.042 223.374 C 184.590 223.035,184.468 223.725,183.814 224.658 C 183.492 225.119,183.342 225.609,183.481 225.747 C 183.620 225.886,183.341 226.000,182.861 226.000 C 182.382 226.000,181.677 226.162,181.295 226.361 C 180.913 226.560,179.790 226.940,178.800 227.207 C 177.810 227.474,176.550 227.849,176.000 228.041 C 171.373 229.651,154.795 230.397,149.200 229.247 C 133.457 226.010,122.055 213.219,120.618 197.181 C 120.278 193.388,119.804 192.508,119.458 195.027 C 118.884 199.220,119.571 208.293,120.820 213.000 C 122.238 218.340,122.933 220.275,124.914 224.400 C 131.306 237.707,144.523 249.227,158.655 253.810 C 159.725 254.156,160.960 254.595,161.400 254.783 C 162.725 255.351,167.643 256.418,172.446 257.180 C 175.858 257.721,184.950 257.721,188.354 257.179 C 189.809 256.947,192.260 256.565,193.800 256.330 C 197.699 255.735,203.434 254.074,210.400 251.522 C 214.858 249.890,227.493 242.703,227.933 241.549 C 228.007 241.357,228.256 241.200,228.486 241.200 C 229.373 241.200,230.400 239.450,230.400 237.939 C 230.400 237.092,230.543 236.400,230.718 236.400 C 230.894 236.400,231.088 233.340,231.151 229.600 C 231.219 225.541,231.114 222.800,230.889 222.800 C 230.665 222.800,230.481 218.052,230.434 211.024 C 230.350 198.575,230.393 198.230,232.273 196.200 C 236.429 191.710,241.645 184.242,244.824 178.229 L 247.346 173.459 247.248 168.197 L 247.151 162.935 250.475 160.785 C 252.304 159.602,258.660 155.467,264.600 151.597 C 270.540 147.726,276.255 144.028,277.299 143.380 C 279.595 141.954,279.772 140.987,277.800 140.644 C 273.663 139.923,274.157 139.766,268.600 143.581 M262.500 208.948 C 259.854 212.876,260.235 213.786,263.883 212.250 C 266.521 211.139,266.730 210.691,265.776 208.193 C 264.883 205.854,264.531 205.935,262.500 208.948 " stroke="none" fill="#f4484b" fill-rule="evenodd"></path><path id="path3" d="M279.199 141.620 C 279.199 141.939,278.344 142.731,277.299 143.380 C 276.255 144.028,270.540 147.726,264.600 151.597 C 258.660 155.467,252.304 159.602,250.475 160.785 L 247.151 162.935 247.248 168.197 L 247.346 173.459 244.824 178.229 C 241.645 184.242,236.429 191.710,232.273 196.200 C 230.393 198.230,230.350 198.575,230.434 211.024 C 230.481 218.052,230.665 222.800,230.889 222.800 C 231.114 222.800,231.219 225.541,231.151 229.600 C 231.088 233.340,230.894 236.400,230.718 236.400 C 230.543 236.400,230.400 237.092,230.400 237.939 C 230.400 239.450,229.373 241.200,228.486 241.200 C 228.256 241.200,228.007 241.347,227.933 241.528 C 227.713 242.070,222.849 245.246,218.800 247.492 C 216.710 248.651,215.156 249.600,215.347 249.600 C 216.515 249.600,233.206 239.464,234.400 238.029 C 234.510 237.897,235.589 236.981,236.799 235.995 C 240.910 232.639,241.798 231.824,247.020 226.611 C 252.221 221.419,253.604 219.910,257.400 215.281 C 259.894 212.239,259.942 212.241,262.000 215.400 C 263.958 218.405,263.855 218.379,266.991 216.689 C 269.831 215.158,272.084 210.291,275.548 198.200 C 277.862 190.126,278.948 184.567,280.417 173.282 C 281.374 165.935,280.735 142.762,279.539 141.420 C 279.335 141.191,279.200 141.271,279.199 141.620 M241.272 165.500 L 241.344 169.400 241.572 166.400 L 241.800 163.400 243.901 163.400 C 245.056 163.400,246.001 163.265,246.001 163.100 C 246.000 162.935,245.357 162.800,244.571 162.800 C 243.786 162.800,242.873 162.530,242.543 162.200 C 241.405 161.062,241.200 161.595,241.272 165.500 M120.463 187.946 C 119.482 191.222,120.451 199.783,122.485 205.800 C 126.581 217.919,136.516 226.639,149.200 229.247 C 154.795 230.397,171.373 229.651,176.000 228.041 C 176.550 227.849,177.810 227.474,178.800 227.207 C 179.790 226.940,180.913 226.560,181.295 226.361 C 181.677 226.162,182.382 226.000,182.861 226.000 C 183.341 226.000,183.620 225.886,183.481 225.747 C 183.342 225.609,183.492 225.119,183.814 224.658 C 184.468 223.725,184.590 223.035,184.042 223.374 C 183.845 223.496,183.576 223.315,183.445 222.972 C 183.313 222.630,183.024 222.461,182.803 222.598 C 182.581 222.735,182.400 222.477,182.400 222.024 C 182.400 221.375,182.655 221.200,183.600 221.200 C 184.260 221.200,184.800 221.064,184.800 220.897 C 184.800 220.731,185.514 220.372,186.387 220.100 C 188.456 219.454,192.346 217.632,191.695 217.614 C 191.417 217.606,190.877 217.759,190.495 217.953 C 190.113 218.148,189.305 218.508,188.700 218.753 C 188.095 218.999,187.195 219.371,186.700 219.580 C 185.533 220.072,182.159 221.198,180.500 221.647 C 179.785 221.841,178.525 222.185,177.700 222.411 C 172.098 223.944,167.215 224.535,160.000 224.553 C 153.465 224.570,148.111 223.930,145.400 222.809 C 144.960 222.627,143.520 222.065,142.200 221.559 C 134.513 218.617,129.059 213.185,125.977 205.400 C 125.055 203.072,124.295 196.766,124.561 193.656 C 124.764 191.282,124.693 190.988,123.508 189.256 C 121.227 185.922,121.088 185.862,120.463 187.946 M265.776 208.193 C 266.730 210.691,266.521 211.139,263.883 212.250 C 260.235 213.786,259.854 212.876,262.500 208.948 C 264.531 205.935,264.883 205.854,265.776 208.193 M194.485 216.191 C 192.565 217.205,191.814 217.795,193.012 217.348 C 193.811 217.050,196.461 215.645,196.767 215.357 C 197.203 214.946,196.028 215.375,194.485 216.191 " stroke="none" fill="#dcad2d" fill-rule="evenodd"></path><path id="path4" d="M181.800 143.057 C 179.155 143.598,174.019 145.257,170.100 146.837 C 169.605 147.037,168.795 147.362,168.300 147.559 C 167.805 147.757,166.770 148.192,166.000 148.526 C 165.230 148.861,163.810 149.449,162.845 149.833 C 160.359 150.822,144.274 159.017,139.955 161.496 C 136.689 163.369,136.734 163.322,136.994 164.600 C 137.752 168.324,137.748 168.364,136.619 168.793 C 136.033 169.016,134.568 169.649,133.365 170.199 C 132.161 170.750,131.097 171.200,131.000 171.200 C 130.903 171.200,129.873 171.632,128.712 172.161 C 127.550 172.689,124.800 173.881,122.600 174.809 C 120.400 175.737,118.453 176.631,118.273 176.795 C 118.093 176.959,119.263 178.430,120.873 180.063 C 130.176 189.500,136.800 202.917,136.800 212.322 C 136.800 214.201,140.786 217.600,142.990 217.600 C 143.041 217.600,143.199 216.220,143.342 214.533 C 143.484 212.846,143.691 211.376,143.801 211.266 C 144.335 210.731,144.600 211.968,144.600 215.001 L 144.600 218.336 146.200 218.810 C 147.080 219.070,148.213 219.445,148.719 219.642 C 151.183 220.603,151.508 220.288,151.757 216.700 C 152.008 213.080,152.374 201.880,152.390 197.300 L 152.400 194.400 154.452 194.400 L 156.503 194.400 156.236 192.300 C 155.995 190.407,155.251 186.596,154.383 182.800 C 154.207 182.030,153.582 179.600,152.994 177.400 C 151.475 171.719,151.454 171.600,151.953 171.600 C 152.199 171.600,152.400 171.865,152.400 172.188 C 152.400 172.511,152.725 173.366,153.123 174.088 C 154.504 176.594,157.077 185.502,157.949 190.800 C 159.042 197.436,159.200 199.853,159.200 209.977 L 159.200 220.800 161.931 220.800 L 164.662 220.800 165.133 217.700 C 165.703 213.957,165.728 198.172,165.173 192.600 C 164.954 190.400,164.665 187.470,164.532 186.089 C 164.398 184.708,164.134 183.483,163.944 183.366 C 163.755 183.249,163.600 182.531,163.600 181.771 C 163.600 181.011,163.392 180.055,163.137 179.648 C 162.487 178.607,162.992 177.600,164.162 177.600 C 165.052 177.600,165.148 177.441,165.128 175.998 C 165.116 175.117,165.349 174.103,165.646 173.745 C 166.157 173.128,174.604 168.792,177.600 167.609 C 178.370 167.304,181.492 166.006,184.537 164.724 C 190.062 162.398,190.957 162.164,193.600 162.355 C 194.946 162.452,194.900 162.493,192.400 163.438 C 190.970 163.979,189.440 164.590,189.000 164.797 C 188.560 165.004,186.130 166.063,183.600 167.151 C 169.802 173.080,166.226 174.923,166.518 175.957 C 167.303 178.740,168.774 184.631,169.175 186.600 C 169.445 187.920,169.817 189.720,170.002 190.600 C 170.187 191.480,170.524 193.460,170.751 195.000 C 170.978 196.540,171.373 199.132,171.629 200.760 C 171.885 202.388,172.101 207.377,172.109 211.846 C 172.119 217.455,172.255 219.890,172.547 219.709 C 172.939 219.467,174.709 219.078,177.897 218.534 C 178.671 218.402,179.088 218.142,178.931 217.889 C 178.771 217.630,178.909 217.556,179.285 217.700 C 179.696 217.858,179.884 217.715,179.850 217.269 C 179.818 216.840,180.159 216.552,180.800 216.466 C 181.350 216.393,181.971 216.168,182.180 215.966 C 182.738 215.428,183.998 215.520,184.013 216.100 C 184.021 216.429,184.192 216.382,184.513 215.963 C 184.781 215.612,185.540 215.310,186.200 215.292 C 187.516 215.255,189.730 214.263,189.349 213.882 C 189.217 213.751,189.468 213.670,189.906 213.703 C 190.749 213.766,199.200 209.681,199.200 209.210 C 199.200 209.058,199.431 208.933,199.714 208.933 C 200.194 208.933,207.372 204.218,209.600 202.440 L 210.600 201.642 210.573 191.521 C 210.540 179.106,209.645 172.268,206.972 164.000 C 206.131 161.400,205.731 160.800,204.838 160.800 C 204.388 160.800,204.005 160.190,203.645 158.900 C 202.744 155.669,202.250 154.215,201.918 153.820 C 201.743 153.611,201.600 153.204,201.600 152.916 C 201.600 151.671,199.890 148.800,199.149 148.800 C 197.743 148.800,189.866 151.032,188.953 151.688 C 188.338 152.131,187.769 151.342,187.006 148.990 C 186.650 147.896,186.204 146.640,186.013 146.200 C 185.823 145.760,185.428 144.815,185.136 144.100 C 184.598 142.783,184.020 142.602,181.800 143.057 M196.009 187.205 C 204.478 191.525,202.848 202.937,193.354 205.794 C 188.035 207.395,181.600 202.033,181.600 196.000 C 181.600 188.821,189.603 183.936,196.009 187.205 M143.600 193.090 C 143.600 194.344,143.408 194.199,143.040 192.666 C 142.862 191.923,142.911 191.621,143.184 191.790 C 143.413 191.932,143.600 192.517,143.600 193.090 " stroke="none" fill="#62cf49" fill-rule="evenodd"></path></g></svg>